%TF.GenerationSoftware,KiCad,Pcbnew,10.0.6*%
%TF.CreationDate,2026-09-02T19:19:22-05:00*%
%TF.ProjectId,DaisyMultiFX,44616973-794d-4756-9c74-6946582e6b69,rev?*%
%TF.SameCoordinates,Original*%
%TF.FileFunction,Soldermask,Bot*%
%TF.FilePolarity,Negative*%
%FSLAX46Y46*%
G04 Gerber Fmt 4.6, Leading zero omitted, Abs format (unit mm)*
G04 Created by KiCad (PCBNEW 10.0.6) date 2026-09-02 19:19:22*
%MOMM*%
%LPD*%
G01*
G04 APERTURE LIST*
G04 Aperture macros list*
%AMRoundRect*
0 Rectangle with rounded corners*
0 $1 Rounding radius*
0 $2 $3 $4 $5 $6 $7 $8 $9 X,Y pos of 4 corners*
0 Add a 4 corners polygon primitive as box body*
4,1,4,$2,$3,$4,$5,$6,$7,$8,$9,$2,$3,0*
0 Add four circle primitives for the rounded corners*
1,1,$1+$1,$2,$3*
1,1,$1+$1,$4,$5*
1,1,$1+$1,$6,$7*
1,1,$1+$1,$8,$9*
0 Add four rect primitives between the rounded corners*
20,1,$1+$1,$2,$3,$4,$5,0*
20,1,$1+$1,$4,$5,$6,$7,0*
20,1,$1+$1,$6,$7,$8,$9,0*
20,1,$1+$1,$8,$9,$2,$3,0*%
G04 Aperture macros list end*
%ADD10C,1.600000*%
%ADD11RoundRect,0.250000X-0.625000X0.350000X-0.625000X-0.350000X0.625000X-0.350000X0.625000X0.350000X0*%
%ADD12O,1.750000X1.200000*%
%ADD13R,1.500000X1.500000*%
%ADD14C,1.500000*%
%ADD15RoundRect,0.250000X0.550000X-0.550000X0.550000X0.550000X-0.550000X0.550000X-0.550000X-0.550000X0*%
%ADD16RoundRect,1.200000X-0.000010X-1.300000X0.000010X-1.300000X0.000010X1.300000X-0.000010X1.300000X0*%
%ADD17R,1.550000X1.550000*%
%ADD18C,1.550000*%
%ADD19RoundRect,0.250000X0.350000X0.625000X-0.350000X0.625000X-0.350000X-0.625000X0.350000X-0.625000X0*%
%ADD20O,1.200000X1.750000*%
%ADD21RoundRect,0.250000X0.625000X-0.350000X0.625000X0.350000X-0.625000X0.350000X-0.625000X-0.350000X0*%
%ADD22R,2.000000X2.000000*%
%ADD23C,2.000000*%
%ADD24RoundRect,0.250000X-0.550000X0.550000X-0.550000X-0.550000X0.550000X-0.550000X0.550000X0.550000X0*%
%ADD25RoundRect,0.250000X-0.350000X-0.625000X0.350000X-0.625000X0.350000X0.625000X-0.350000X0.625000X0*%
%ADD26RoundRect,0.249999X-0.850001X-0.850001X0.850001X-0.850001X0.850001X0.850001X-0.850001X0.850001X0*%
%ADD27C,2.200000*%
%ADD28R,1.700000X1.700000*%
%ADD29C,1.700000*%
%ADD30RoundRect,0.250000X-0.550000X-0.550000X0.550000X-0.550000X0.550000X0.550000X-0.550000X0.550000X0*%
%ADD31C,1.651000*%
G04 APERTURE END LIST*
D10*
%TO.C,R7*%
X118400000Y-88135000D03*
X118400000Y-80515000D03*
%TD*%
%TO.C,C7*%
X156850000Y-56500000D03*
X156850000Y-61500000D03*
%TD*%
%TO.C,R2*%
X188675000Y-56190000D03*
X188675000Y-63810000D03*
%TD*%
D11*
%TO.C,J_LCD1*%
X116850000Y-116000000D03*
D12*
X116850000Y-118000000D03*
X116850000Y-120000000D03*
X116850000Y-122000000D03*
X116850000Y-124000000D03*
X116850000Y-126000000D03*
X116850000Y-128000000D03*
X116850000Y-130000000D03*
%TD*%
D13*
%TO.C,C12*%
X112625000Y-87225000D03*
D14*
X112625000Y-82225000D03*
%TD*%
D13*
%TO.C,C16*%
X140195000Y-96540000D03*
D14*
X140195000Y-91540000D03*
%TD*%
D10*
%TO.C,R8*%
X122450000Y-88135000D03*
X122450000Y-80515000D03*
%TD*%
%TO.C,R6*%
X181850000Y-69000000D03*
X181850000Y-76620000D03*
%TD*%
%TO.C,R9*%
X114850000Y-108810000D03*
X114850000Y-101190000D03*
%TD*%
D13*
%TO.C,U1*%
X144420000Y-84650000D03*
D14*
X146960000Y-84650000D03*
X149500000Y-84650000D03*
%TD*%
D10*
%TO.C,C2*%
X145950000Y-59775000D03*
X150950000Y-59775000D03*
%TD*%
D13*
%TO.C,C9*%
X199975000Y-104000000D03*
D14*
X199975000Y-109000000D03*
%TD*%
D10*
%TO.C,R3*%
X184400000Y-57000000D03*
X184400000Y-64620000D03*
%TD*%
D15*
%TO.C,U4*%
X128040000Y-84000000D03*
D10*
X130580000Y-84000000D03*
X133120000Y-84000000D03*
X135660000Y-84000000D03*
X135660000Y-76380000D03*
X133120000Y-76380000D03*
X130580000Y-76380000D03*
X128040000Y-76380000D03*
%TD*%
D16*
%TO.C,SW4*%
X186750000Y-92890000D03*
X198150000Y-92890000D03*
D17*
X189950000Y-100390000D03*
D18*
X194950000Y-100390000D03*
X192450000Y-100390000D03*
%TD*%
D10*
%TO.C,R4*%
X181850000Y-91190000D03*
X181850000Y-98810000D03*
%TD*%
%TO.C,R14*%
X132195000Y-96415000D03*
X132195000Y-88795000D03*
%TD*%
D13*
%TO.C,C15*%
X121850000Y-97500000D03*
D14*
X121850000Y-92500000D03*
%TD*%
D10*
%TO.C,R1*%
X192800000Y-56000000D03*
X192800000Y-63620000D03*
%TD*%
D11*
%TO.C,J4*%
X200575000Y-59000000D03*
D12*
X200575000Y-61000000D03*
X200575000Y-63000000D03*
%TD*%
D13*
%TO.C,C11*%
X112850000Y-78825000D03*
D14*
X112850000Y-73825000D03*
%TD*%
D16*
%TO.C,SW7*%
X122120000Y-122000000D03*
X133520000Y-122000000D03*
D18*
X130320000Y-115000000D03*
X125320000Y-115000000D03*
D17*
X130320000Y-129500000D03*
D18*
X125320000Y-129500000D03*
X127820000Y-129500000D03*
%TD*%
D13*
%TO.C,C5*%
X137350000Y-70000000D03*
D14*
X142350000Y-70000000D03*
%TD*%
D16*
%TO.C,SW1*%
X165150000Y-74000000D03*
X176550000Y-74000000D03*
D17*
X168350000Y-81500000D03*
D18*
X173350000Y-81500000D03*
X170850000Y-81500000D03*
%TD*%
D19*
%TO.C,FS3*%
X198850000Y-130000000D03*
D20*
X196850000Y-130000000D03*
%TD*%
D21*
%TO.C,J5*%
X111850000Y-68000000D03*
D12*
X111850000Y-66000000D03*
X111850000Y-64000000D03*
%TD*%
D22*
%TO.C,L1*%
X155350000Y-86000000D03*
D23*
X160350000Y-86000000D03*
%TD*%
D10*
%TO.C,R13*%
X128145000Y-96415000D03*
X128145000Y-88795000D03*
%TD*%
D24*
%TO.C,U3*%
X179010000Y-55000000D03*
D10*
X176470000Y-55000000D03*
X173930000Y-55000000D03*
X171390000Y-55000000D03*
X168850000Y-55000000D03*
X166310000Y-55000000D03*
X163770000Y-55000000D03*
X163770000Y-62620000D03*
X166310000Y-62620000D03*
X168850000Y-62620000D03*
X171390000Y-62620000D03*
X173930000Y-62620000D03*
X176470000Y-62620000D03*
X179010000Y-62620000D03*
%TD*%
%TO.C,C14*%
X129700000Y-72395000D03*
X129700000Y-67395000D03*
%TD*%
D25*
%TO.C,J1*%
X134850000Y-55000000D03*
D20*
X136850000Y-55000000D03*
X138850000Y-55000000D03*
%TD*%
D10*
%TO.C,C8*%
X160850000Y-67020000D03*
X160850000Y-72020000D03*
%TD*%
D26*
%TO.C,D1*%
X130920000Y-63000000D03*
D27*
X141080000Y-63000000D03*
%TD*%
D25*
%TO.C,FS2*%
X139850000Y-105000000D03*
D20*
X141850000Y-105000000D03*
%TD*%
D13*
%TO.C,C4*%
X146350000Y-74000000D03*
D14*
X151350000Y-74000000D03*
%TD*%
D10*
%TO.C,R10*%
X114375000Y-98075000D03*
X114375000Y-90455000D03*
%TD*%
D13*
%TO.C,C10*%
X192850000Y-104000000D03*
D14*
X192850000Y-109000000D03*
%TD*%
D10*
%TO.C,C3*%
X146225000Y-54200000D03*
X151225000Y-54200000D03*
%TD*%
D28*
%TO.C,A1*%
X189355000Y-113380000D03*
D29*
X186815000Y-113380000D03*
X184275000Y-113380000D03*
X181735000Y-113380000D03*
X179195000Y-113380000D03*
X176655000Y-113380000D03*
X174115000Y-113380000D03*
X171575000Y-113380000D03*
X169035000Y-113380000D03*
X166495000Y-113380000D03*
X163955000Y-113380000D03*
X161415000Y-113380000D03*
X158875000Y-113380000D03*
X156335000Y-113380000D03*
X153795000Y-113380000D03*
X151255000Y-113380000D03*
X148715000Y-113380000D03*
X146175000Y-113380000D03*
X143635000Y-113380000D03*
X141095000Y-113380000D03*
X141095000Y-128620000D03*
X143635000Y-128620000D03*
X146175000Y-128620000D03*
X148715000Y-128620000D03*
X151255000Y-128620000D03*
X153795000Y-128620000D03*
X156335000Y-128620000D03*
X158875000Y-128620000D03*
X161415000Y-128620000D03*
X163955000Y-128620000D03*
X166495000Y-128620000D03*
X169035000Y-128620000D03*
X171575000Y-128620000D03*
X174115000Y-128620000D03*
X176655000Y-128620000D03*
X179195000Y-128620000D03*
X181735000Y-128620000D03*
X184275000Y-128620000D03*
X186815000Y-128620000D03*
X189355000Y-128620000D03*
%TD*%
D19*
%TO.C,FS1*%
X130850000Y-106000000D03*
D20*
X128850000Y-106000000D03*
%TD*%
D10*
%TO.C,R12*%
X123350000Y-75700000D03*
X123350000Y-68080000D03*
%TD*%
D30*
%TO.C,C6*%
X161850000Y-107000000D03*
D10*
X163850000Y-107000000D03*
%TD*%
D16*
%TO.C,SW2*%
X186750000Y-74000000D03*
X198150000Y-74000000D03*
D17*
X189950000Y-81500000D03*
D18*
X194950000Y-81500000D03*
X192450000Y-81500000D03*
%TD*%
D13*
%TO.C,C1*%
X179350000Y-106625000D03*
D14*
X184350000Y-106625000D03*
%TD*%
D13*
%TO.C,C1*%
X155850000Y-77000000D03*
D14*
X160850000Y-77000000D03*
%TD*%
D10*
%TO.C,R5*%
X181850000Y-80190000D03*
X181850000Y-87810000D03*
%TD*%
D31*
%TO.C,U2*%
X148230000Y-99380000D03*
X148230000Y-107000000D03*
X155850000Y-107000000D03*
X155850000Y-101920000D03*
%TD*%
D10*
%TO.C,R11*%
X119300000Y-75700000D03*
X119300000Y-68080000D03*
%TD*%
%TO.C,C13*%
X120325000Y-61875000D03*
X120325000Y-56875000D03*
%TD*%
D16*
%TO.C,SW3*%
X165150000Y-92890000D03*
X176550000Y-92890000D03*
D17*
X168350000Y-100390000D03*
D18*
X173350000Y-100390000D03*
X170850000Y-100390000D03*
%TD*%
M02*
