M48
; DRILL file KiCad 10.0.6 date 2026-09-02T19:19:33
; FORMAT={-:-/ absolute / metric / decimal}
; #@! TF.CreationDate,2026-09-02T19:19:33-05:00
; #@! TF.GenerationSoftware,Kicad,Pcbnew,10.0.6
; #@! TF.FileFunction,Plated,1,4,PTH
FMAT,2
METRIC
; #@! TA.AperFunction,Plated,PTH,ViaDrill
T1C0.300
; #@! TA.AperFunction,Plated,PTH,ComponentDrill
T2C0.750
; #@! TA.AperFunction,Plated,PTH,ComponentDrill
T3C0.800
; #@! TA.AperFunction,Plated,PTH,ComponentDrill
T4C1.000
; #@! TA.AperFunction,Plated,PTH,ComponentDrill
T5C1.100
; #@! TA.AperFunction,Plated,PTH,ComponentDrill
T6C1.143
; #@! TA.AperFunction,Plated,PTH,ComponentDrill
T7C2.000
%
G90
G05
T1
X127.0Y-120.77
X135.0Y-117.0
X148.0Y-118.0
X149.0Y-123.0
X151.0Y-91.0
X153.0Y-117.0
X159.0Y-96.0
X162.0Y-100.0
X165.0Y-111.0
X173.0Y-104.0
X178.0Y-103.0
X184.0Y-102.0
X184.0Y-104.0
X186.0Y-101.0
X188.0Y-102.0
X188.85Y-87.6
T2
X111.85Y-64.0
X111.85Y-66.0
X111.85Y-68.0
X116.85Y-116.0
X116.85Y-118.0
X116.85Y-120.0
X116.85Y-122.0
X116.85Y-124.0
X116.85Y-126.0
X116.85Y-128.0
X116.85Y-130.0
X128.85Y-106.0
X130.85Y-106.0
X134.85Y-55.0
X136.85Y-55.0
X138.85Y-55.0
X139.85Y-105.0
X141.85Y-105.0
X196.85Y-130.0
X198.85Y-130.0
X200.575Y-59.0
X200.575Y-61.0
X200.575Y-63.0
T3
X112.625Y-82.225
X112.625Y-87.225
X112.85Y-73.825
X112.85Y-78.825
X114.375Y-90.455
X114.375Y-98.075
X114.85Y-101.19
X114.85Y-108.81
X118.4Y-80.515
X118.4Y-88.135
X119.3Y-68.08
X119.3Y-75.7
X120.325Y-56.875
X120.325Y-61.875
X121.85Y-92.5
X121.85Y-97.5
X122.45Y-80.515
X122.45Y-88.135
X123.35Y-68.08
X123.35Y-75.7
X128.04Y-76.38
X128.04Y-84.0
X128.145Y-88.795
X128.145Y-96.415
X129.7Y-67.395
X129.7Y-72.395
X130.58Y-76.38
X130.58Y-84.0
X132.195Y-88.795
X132.195Y-96.415
X133.12Y-76.38
X133.12Y-84.0
X135.66Y-76.38
X135.66Y-84.0
X137.35Y-70.0
X140.195Y-91.54
X140.195Y-96.54
X142.35Y-70.0
X144.42Y-84.65
X145.95Y-59.775
X146.225Y-54.2
X146.35Y-74.0
X146.96Y-84.65
X149.5Y-84.65
X150.95Y-59.775
X151.225Y-54.2
X151.35Y-74.0
X155.85Y-77.0
X156.85Y-56.5
X156.85Y-61.5
X160.85Y-67.02
X160.85Y-72.02
X160.85Y-77.0
X161.85Y-107.0
X163.77Y-55.0
X163.77Y-62.62
X163.85Y-107.0
X166.31Y-55.0
X166.31Y-62.62
X168.85Y-55.0
X168.85Y-62.62
X171.39Y-55.0
X171.39Y-62.62
X173.93Y-55.0
X173.93Y-62.62
X176.47Y-55.0
X176.47Y-62.62
X179.01Y-55.0
X179.01Y-62.62
X179.35Y-106.625
X181.85Y-69.0
X181.85Y-76.62
X181.85Y-80.19
X181.85Y-87.81
X181.85Y-91.19
X181.85Y-98.81
X184.35Y-106.625
X184.4Y-57.0
X184.4Y-64.62
X188.675Y-56.19
X188.675Y-63.81
X192.8Y-56.0
X192.8Y-63.62
X192.85Y-104.0
X192.85Y-109.0
X199.975Y-104.0
X199.975Y-109.0
T4
X125.32Y-115.0
X125.32Y-129.5
X127.82Y-129.5
X130.32Y-115.0
X130.32Y-129.5
X155.35Y-86.0
X160.35Y-86.0
X168.35Y-81.5
X168.35Y-100.39
X170.85Y-81.5
X170.85Y-100.39
X173.35Y-81.5
X173.35Y-100.39
X189.95Y-81.5
X189.95Y-100.39
X192.45Y-81.5
X192.45Y-100.39
X194.95Y-81.5
X194.95Y-100.39
T5
X130.92Y-63.0
X141.08Y-63.0
X141.095Y-113.38
X141.095Y-128.62
X143.635Y-113.38
X143.635Y-128.62
X146.175Y-113.38
X146.175Y-128.62
X148.715Y-113.38
X148.715Y-128.62
X151.255Y-113.38
X151.255Y-128.62
X153.795Y-113.38
X153.795Y-128.62
X156.335Y-113.38
X156.335Y-128.62
X158.875Y-113.38
X158.875Y-128.62
X161.415Y-113.38
X161.415Y-128.62
X163.955Y-113.38
X163.955Y-128.62
X166.495Y-113.38
X166.495Y-128.62
X169.035Y-113.38
X169.035Y-128.62
X171.575Y-113.38
X171.575Y-128.62
X174.115Y-113.38
X174.115Y-128.62
X176.655Y-113.38
X176.655Y-128.62
X179.195Y-113.38
X179.195Y-128.62
X181.735Y-113.38
X181.735Y-128.62
X184.275Y-113.38
X184.275Y-128.62
X186.815Y-113.38
X186.815Y-128.62
X189.355Y-113.38
X189.355Y-128.62
T6
X148.23Y-99.38
X148.23Y-107.0
X155.85Y-101.92
X155.85Y-107.0
T7
G00X122.12Y-120.8
M15
G01X122.12Y-123.2
M16
G05
G00X133.52Y-120.8
M15
G01X133.52Y-123.2
M16
G05
G00X165.15Y-72.8
M15
G01X165.15Y-75.2
M16
G05
G00X165.15Y-91.69
M15
G01X165.15Y-94.09
M16
G05
G00X176.55Y-72.8
M15
G01X176.55Y-75.2
M16
G05
G00X176.55Y-91.69
M15
G01X176.55Y-94.09
M16
G05
G00X186.75Y-72.8
M15
G01X186.75Y-75.2
M16
G05
G00X186.75Y-91.69
M15
G01X186.75Y-94.09
M16
G05
G00X198.15Y-72.8
M15
G01X198.15Y-75.2
M16
G05
G00X198.15Y-91.69
M15
G01X198.15Y-94.09
M16
G05
M30
