%TF.GenerationSoftware,KiCad,Pcbnew,10.0.6*%
%TF.CreationDate,2026-09-02T19:19:22-05:00*%
%TF.ProjectId,DaisyMultiFX,44616973-794d-4756-9c74-6946582e6b69,rev?*%
%TF.SameCoordinates,Original*%
%TF.FileFunction,Copper,L1,Top*%
%TF.FilePolarity,Positive*%
%FSLAX46Y46*%
G04 Gerber Fmt 4.6, Leading zero omitted, Abs format (unit mm)*
G04 Created by KiCad (PCBNEW 10.0.6) date 2026-09-02 19:19:22*
%MOMM*%
%LPD*%
G01*
G04 APERTURE LIST*
G04 Aperture macros list*
%AMRoundRect*
0 Rectangle with rounded corners*
0 $1 Rounding radius*
0 $2 $3 $4 $5 $6 $7 $8 $9 X,Y pos of 4 corners*
0 Add a 4 corners polygon primitive as box body*
4,1,4,$2,$3,$4,$5,$6,$7,$8,$9,$2,$3,0*
0 Add four circle primitives for the rounded corners*
1,1,$1+$1,$2,$3*
1,1,$1+$1,$4,$5*
1,1,$1+$1,$6,$7*
1,1,$1+$1,$8,$9*
0 Add four rect primitives between the rounded corners*
20,1,$1+$1,$2,$3,$4,$5,0*
20,1,$1+$1,$4,$5,$6,$7,0*
20,1,$1+$1,$6,$7,$8,$9,0*
20,1,$1+$1,$8,$9,$2,$3,0*%
G04 Aperture macros list end*
%TA.AperFunction,ComponentPad*%
%ADD10C,1.600000*%
%TD*%
%TA.AperFunction,ComponentPad*%
%ADD11RoundRect,0.250000X-0.625000X0.350000X-0.625000X-0.350000X0.625000X-0.350000X0.625000X0.350000X0*%
%TD*%
%TA.AperFunction,ComponentPad*%
%ADD12O,1.750000X1.200000*%
%TD*%
%TA.AperFunction,ComponentPad*%
%ADD13R,1.500000X1.500000*%
%TD*%
%TA.AperFunction,ComponentPad*%
%ADD14C,1.500000*%
%TD*%
%TA.AperFunction,ComponentPad*%
%ADD15RoundRect,0.250000X0.550000X-0.550000X0.550000X0.550000X-0.550000X0.550000X-0.550000X-0.550000X0*%
%TD*%
%TA.AperFunction,ComponentPad*%
%ADD16RoundRect,1.200000X-0.000010X-1.300000X0.000010X-1.300000X0.000010X1.300000X-0.000010X1.300000X0*%
%TD*%
%TA.AperFunction,ComponentPad*%
%ADD17R,1.550000X1.550000*%
%TD*%
%TA.AperFunction,ComponentPad*%
%ADD18C,1.550000*%
%TD*%
%TA.AperFunction,SMDPad,CuDef*%
%ADD19RoundRect,0.250000X-0.262500X-0.450000X0.262500X-0.450000X0.262500X0.450000X-0.262500X0.450000X0*%
%TD*%
%TA.AperFunction,ComponentPad*%
%ADD20RoundRect,0.250000X0.350000X0.625000X-0.350000X0.625000X-0.350000X-0.625000X0.350000X-0.625000X0*%
%TD*%
%TA.AperFunction,ComponentPad*%
%ADD21O,1.200000X1.750000*%
%TD*%
%TA.AperFunction,ComponentPad*%
%ADD22RoundRect,0.250000X0.625000X-0.350000X0.625000X0.350000X-0.625000X0.350000X-0.625000X-0.350000X0*%
%TD*%
%TA.AperFunction,ComponentPad*%
%ADD23R,2.000000X2.000000*%
%TD*%
%TA.AperFunction,ComponentPad*%
%ADD24C,2.000000*%
%TD*%
%TA.AperFunction,ComponentPad*%
%ADD25RoundRect,0.250000X-0.550000X0.550000X-0.550000X-0.550000X0.550000X-0.550000X0.550000X0.550000X0*%
%TD*%
%TA.AperFunction,ComponentPad*%
%ADD26RoundRect,0.250000X-0.350000X-0.625000X0.350000X-0.625000X0.350000X0.625000X-0.350000X0.625000X0*%
%TD*%
%TA.AperFunction,ComponentPad*%
%ADD27RoundRect,0.249999X-0.850001X-0.850001X0.850001X-0.850001X0.850001X0.850001X-0.850001X0.850001X0*%
%TD*%
%TA.AperFunction,ComponentPad*%
%ADD28C,2.200000*%
%TD*%
%TA.AperFunction,ComponentPad*%
%ADD29R,1.700000X1.700000*%
%TD*%
%TA.AperFunction,ComponentPad*%
%ADD30C,1.700000*%
%TD*%
%TA.AperFunction,ComponentPad*%
%ADD31RoundRect,0.250000X-0.550000X-0.550000X0.550000X-0.550000X0.550000X0.550000X-0.550000X0.550000X0*%
%TD*%
%TA.AperFunction,ComponentPad*%
%ADD32C,1.651000*%
%TD*%
%TA.AperFunction,ViaPad*%
%ADD33C,0.700000*%
%TD*%
%TA.AperFunction,Conductor*%
%ADD34C,0.500000*%
%TD*%
%TA.AperFunction,Conductor*%
%ADD35C,0.250000*%
%TD*%
%TA.AperFunction,Conductor*%
%ADD36C,0.300000*%
%TD*%
%TA.AperFunction,Conductor*%
%ADD37C,0.800000*%
%TD*%
G04 APERTURE END LIST*
D10*
%TO.P,R7,1*%
%TO.N,+5V_ISOLATED_POWER*%
X118400000Y-88135000D03*
%TO.P,R7,2*%
%TO.N,Net-(U4B-+)*%
X118400000Y-80515000D03*
%TD*%
%TO.P,C7,1*%
%TO.N,+5V_ISOLATED_POWER*%
X156850000Y-56500000D03*
%TO.P,C7,2*%
%TO.N,GND*%
X156850000Y-61500000D03*
%TD*%
%TO.P,R2,1*%
%TO.N,AUDIO_IN_JACK_RIGHT*%
X188675000Y-56190000D03*
%TO.P,R2,2*%
%TO.N,GND*%
X188675000Y-63810000D03*
%TD*%
D11*
%TO.P,J_LCD1,1,Pin_1_1*%
%TO.N,+3.3V*%
X116850000Y-116000000D03*
D12*
%TO.P,J_LCD1,2,Pin_2_2*%
%TO.N,GND*%
X116850000Y-118000000D03*
%TO.P,J_LCD1,3,Pin_3_3*%
%TO.N,LCD_MOSI*%
X116850000Y-120000000D03*
%TO.P,J_LCD1,4,Pin_4_4*%
%TO.N,LCD_SCK*%
X116850000Y-122000000D03*
%TO.P,J_LCD1,5,Pin_5_5*%
%TO.N,LCD_CS*%
X116850000Y-124000000D03*
%TO.P,J_LCD1,6,Pin_6_6*%
%TO.N,LCD_DC*%
X116850000Y-126000000D03*
%TO.P,J_LCD1,7,Pin_7_7*%
%TO.N,LCD_RST*%
X116850000Y-128000000D03*
%TO.P,J_LCD1,8,Pin_8_8*%
%TO.N,LCD_BL*%
X116850000Y-130000000D03*
%TD*%
D13*
%TO.P,C12,1*%
%TO.N,Net-(U4A-+)*%
X112625000Y-87225000D03*
D14*
%TO.P,C12,2*%
%TO.N,AUDIO_OUT_BUFFER_RIGHT*%
X112625000Y-82225000D03*
%TD*%
D13*
%TO.P,C16,1*%
%TO.N,Net-(C16-Pad1)*%
X140195000Y-96540000D03*
D14*
%TO.P,C16,2*%
%TO.N,AUDIO_OUT_JACK_RIGHT*%
X140195000Y-91540000D03*
%TD*%
D10*
%TO.P,R8,1*%
%TO.N,Net-(U4B-+)*%
X122450000Y-88135000D03*
%TO.P,R8,2*%
%TO.N,GND*%
X122450000Y-80515000D03*
%TD*%
%TO.P,R6,1*%
%TO.N,Net-(U3B-+)*%
X181850000Y-69000000D03*
%TO.P,R6,2*%
%TO.N,GND*%
X181850000Y-76620000D03*
%TD*%
%TO.P,R9,1*%
%TO.N,+5V_ISOLATED_POWER*%
X114850000Y-108810000D03*
%TO.P,R9,2*%
%TO.N,Net-(U4A-+)*%
X114850000Y-101190000D03*
%TD*%
D13*
%TO.P,U1,1,VO_1*%
%TO.N,+5V*%
X144420000Y-84650000D03*
D14*
%TO.P,U1,2,GND_2*%
%TO.N,GND*%
X146960000Y-84650000D03*
%TO.P,U1,3,VI_3*%
%TO.N,+9V*%
X149500000Y-84650000D03*
%TD*%
D10*
%TO.P,C2,1*%
%TO.N,+9V*%
X145950000Y-59775000D03*
%TO.P,C2,2*%
%TO.N,GND*%
X150950000Y-59775000D03*
%TD*%
D13*
%TO.P,C9,1*%
%TO.N,AUDIO_IN_JACK_LEFT*%
X199975000Y-104000000D03*
D14*
%TO.P,C9,2*%
%TO.N,Net-(U3D-+)*%
X199975000Y-109000000D03*
%TD*%
D10*
%TO.P,R3,1*%
%TO.N,+5V_ISOLATED_POWER*%
X184400000Y-57000000D03*
%TO.P,R3,2*%
%TO.N,Net-(U3B-+)*%
X184400000Y-64620000D03*
%TD*%
D15*
%TO.P,U4,1*%
%TO.N,Net-(U4A--)*%
X128040000Y-84000000D03*
D10*
%TO.P,U4,2,-_2*%
X130580000Y-84000000D03*
%TO.P,U4,3,+_3*%
%TO.N,Net-(U4A-+)*%
X133120000Y-84000000D03*
%TO.P,U4,4,V-_4*%
%TO.N,GND*%
X135660000Y-84000000D03*
%TO.P,U4,5,+_5*%
%TO.N,Net-(U4B-+)*%
X135660000Y-76380000D03*
%TO.P,U4,6,-_6*%
%TO.N,Net-(U4B--)*%
X133120000Y-76380000D03*
%TO.P,U4,7*%
X130580000Y-76380000D03*
%TO.P,U4,8,V+_8*%
%TO.N,+5V_ISOLATED_POWER*%
X128040000Y-76380000D03*
%TD*%
D16*
%TO.P,SW4,*%
%TO.N,*%
X186750000Y-92890000D03*
X198150000Y-92890000D03*
D17*
%TO.P,SW4,A,A_A*%
%TO.N,ENC_4_A*%
X189950000Y-100390000D03*
D18*
%TO.P,SW4,B,B_B*%
%TO.N,ENC_4_B*%
X194950000Y-100390000D03*
%TO.P,SW4,C,C_C*%
%TO.N,GND*%
X192450000Y-100390000D03*
%TD*%
D10*
%TO.P,R4,1*%
%TO.N,/InputBuffer/V_AUDIOBIAS*%
X181850000Y-91190000D03*
%TO.P,R4,2*%
%TO.N,Net-(U3D-+)*%
X181850000Y-98810000D03*
%TD*%
%TO.P,R14,1*%
%TO.N,AUDIO_OUT_JACK_RIGHT*%
X132195000Y-96415000D03*
%TO.P,R14,2*%
%TO.N,GND*%
X132195000Y-88795000D03*
%TD*%
D13*
%TO.P,C15,1*%
%TO.N,Net-(C15-Pad1)*%
X121850000Y-97500000D03*
D14*
%TO.P,C15,2*%
%TO.N,AUDIO_OUT_JACK_LEFT*%
X121850000Y-92500000D03*
%TD*%
D10*
%TO.P,R1,1*%
%TO.N,AUDIO_IN_JACK_LEFT*%
X192800000Y-56000000D03*
%TO.P,R1,2*%
%TO.N,GND*%
X192800000Y-63620000D03*
%TD*%
D11*
%TO.P,J4,1,Pin_1_1*%
%TO.N,AUDIO_IN_JACK_LEFT*%
X200575000Y-59000000D03*
D12*
%TO.P,J4,2,Pin_2_2*%
%TO.N,AUDIO_IN_JACK_RIGHT*%
X200575000Y-61000000D03*
%TO.P,J4,3,Pin_3_3*%
%TO.N,GND*%
X200575000Y-63000000D03*
%TD*%
D13*
%TO.P,C11,1*%
%TO.N,Net-(U4B-+)*%
X112850000Y-78825000D03*
D14*
%TO.P,C11,2*%
%TO.N,AUDIO_OUT_BUFFER_LEFT*%
X112850000Y-73825000D03*
%TD*%
D19*
%TO.P,R21,1*%
%TO.N,+5V*%
X160562500Y-98100000D03*
%TO.P,R21,2*%
%TO.N,+5V_ISOLATED_POWER*%
X162387500Y-98100000D03*
%TD*%
D16*
%TO.P,SW7,*%
%TO.N,*%
X122120000Y-122000000D03*
X133520000Y-122000000D03*
D18*
%TO.P,SW7,1,1_1*%
%TO.N,ENC_MASTER_SW*%
X130320000Y-115000000D03*
%TO.P,SW7,2,2_2*%
%TO.N,GND*%
X125320000Y-115000000D03*
D17*
%TO.P,SW7,A,A_A*%
%TO.N,ENC_MASTER_A*%
X130320000Y-129500000D03*
D18*
%TO.P,SW7,B,B_B*%
%TO.N,ENC_MASTER_B*%
X125320000Y-129500000D03*
%TO.P,SW7,C,C_C*%
%TO.N,GND*%
X127820000Y-129500000D03*
%TD*%
D13*
%TO.P,C5,1*%
%TO.N,/Power/VIN*%
X137350000Y-70000000D03*
D14*
%TO.P,C5,2*%
%TO.N,GND*%
X142350000Y-70000000D03*
%TD*%
D16*
%TO.P,SW1,*%
%TO.N,*%
X165150000Y-74000000D03*
X176550000Y-74000000D03*
D17*
%TO.P,SW1,A,A_A*%
%TO.N,ENC_1_A*%
X168350000Y-81500000D03*
D18*
%TO.P,SW1,B,B_B*%
%TO.N,ENC_1_B*%
X173350000Y-81500000D03*
%TO.P,SW1,C,C_C*%
%TO.N,GND*%
X170850000Y-81500000D03*
%TD*%
D20*
%TO.P,FS3,1,1_1*%
%TO.N,GND*%
X198850000Y-130000000D03*
D21*
%TO.P,FS3,2,2_2*%
%TO.N,FOOT_SWITCH_3*%
X196850000Y-130000000D03*
%TD*%
D22*
%TO.P,J5,1,Pin_1_1*%
%TO.N,AUDIO_OUT_JACK_LEFT*%
X111850000Y-68000000D03*
D12*
%TO.P,J5,2,Pin_2_2*%
%TO.N,AUDIO_OUT_JACK_RIGHT*%
X111850000Y-66000000D03*
%TO.P,J5,3,Pin_3_3*%
%TO.N,GND*%
X111850000Y-64000000D03*
%TD*%
D23*
%TO.P,L1,1,1_1*%
%TO.N,+5V*%
X155350000Y-86000000D03*
D24*
%TO.P,L1,2,2_2*%
%TO.N,/Power/VIN*%
X160350000Y-86000000D03*
%TD*%
D10*
%TO.P,R13,1*%
%TO.N,AUDIO_OUT_JACK_LEFT*%
X128145000Y-96415000D03*
%TO.P,R13,2*%
%TO.N,GND*%
X128145000Y-88795000D03*
%TD*%
D25*
%TO.P,U3,1*%
%TO.N,AUDIO_IN_BUFFER_RIGHT*%
X179010000Y-55000000D03*
D10*
%TO.P,U3,2,-_2*%
X176470000Y-55000000D03*
%TO.P,U3,3,+_3*%
%TO.N,Net-(U3A-+)*%
X173930000Y-55000000D03*
%TO.P,U3,4,V+_4*%
%TO.N,+5V_ISOLATED_POWER*%
X171390000Y-55000000D03*
%TO.P,U3,5,+_5*%
%TO.N,Net-(U3B-+)*%
X168850000Y-55000000D03*
%TO.P,U3,6,-_6*%
%TO.N,/InputBuffer/V_AUDIOBIAS*%
X166310000Y-55000000D03*
%TO.P,U3,7*%
X163770000Y-55000000D03*
%TO.P,U3,8*%
%TO.N,Net-(U3C--)*%
X163770000Y-62620000D03*
%TO.P,U3,9,-_9*%
X166310000Y-62620000D03*
%TO.P,U3,10,+_10*%
%TO.N,GND*%
X168850000Y-62620000D03*
%TO.P,U3,11,V-_11*%
X171390000Y-62620000D03*
%TO.P,U3,12,+_12*%
%TO.N,Net-(U3D-+)*%
X173930000Y-62620000D03*
%TO.P,U3,13,-_13*%
%TO.N,AUDIO_IN_BUFFER_LEFT*%
X176470000Y-62620000D03*
%TO.P,U3,14*%
X179010000Y-62620000D03*
%TD*%
%TO.P,C14,1*%
%TO.N,+5V_ISOLATED_POWER*%
X129700000Y-72395000D03*
%TO.P,C14,2*%
%TO.N,GND*%
X129700000Y-67395000D03*
%TD*%
D26*
%TO.P,J1,1,Pin_1_1*%
%TO.N,POWER_JACK_PWR*%
X134850000Y-55000000D03*
D21*
%TO.P,J1,2,Pin_2_2*%
%TO.N,GND*%
X136850000Y-55000000D03*
%TO.P,J1,3,Pin_3_3*%
X138850000Y-55000000D03*
%TD*%
D10*
%TO.P,C8,1*%
%TO.N,+5V_ISOLATED_POWER*%
X160850000Y-67020000D03*
%TO.P,C8,2*%
%TO.N,GND*%
X160850000Y-72020000D03*
%TD*%
D27*
%TO.P,D1,1,K_1*%
%TO.N,+9V*%
X130920000Y-63000000D03*
D28*
%TO.P,D1,2,A_2*%
%TO.N,POWER_JACK_PWR*%
X141080000Y-63000000D03*
%TD*%
D26*
%TO.P,FS2,1,1_1*%
%TO.N,GND*%
X139850000Y-105000000D03*
D21*
%TO.P,FS2,2,2_2*%
%TO.N,FOOT_SWITCH_2*%
X141850000Y-105000000D03*
%TD*%
D13*
%TO.P,C4,1*%
%TO.N,+5V*%
X146350000Y-74000000D03*
D14*
%TO.P,C4,2*%
%TO.N,GND*%
X151350000Y-74000000D03*
%TD*%
D10*
%TO.P,R10,1*%
%TO.N,Net-(U4A-+)*%
X114375000Y-98075000D03*
%TO.P,R10,2*%
%TO.N,GND*%
X114375000Y-90455000D03*
%TD*%
D13*
%TO.P,C10,1*%
%TO.N,AUDIO_IN_JACK_RIGHT*%
X192850000Y-104000000D03*
D14*
%TO.P,C10,2*%
%TO.N,Net-(U3A-+)*%
X192850000Y-109000000D03*
%TD*%
D10*
%TO.P,C3,1*%
%TO.N,+9V*%
X146225000Y-54200000D03*
%TO.P,C3,2*%
%TO.N,GND*%
X151225000Y-54200000D03*
%TD*%
D29*
%TO.P,A1,1,USB_ID_1*%
%TO.N,ENC_1_A*%
X189355000Y-113380000D03*
D30*
%TO.P,A1,2,SD_DATA_3_2*%
%TO.N,ENC_1_B*%
X186815000Y-113380000D03*
%TO.P,A1,3,SD_DATA_2_3*%
%TO.N,ENC_2_A*%
X184275000Y-113380000D03*
%TO.P,A1,4,SD_DATA_1_4*%
%TO.N,ENC_2_B*%
X181735000Y-113380000D03*
%TO.P,A1,5,SD_DATA_0_5*%
%TO.N,ENC_3_A*%
X179195000Y-113380000D03*
%TO.P,A1,6,SD_CMD_6*%
%TO.N,ENC_3_B*%
X176655000Y-113380000D03*
%TO.P,A1,7,SD_CLK_7*%
%TO.N,ENC_MASTER_SW*%
X174115000Y-113380000D03*
%TO.P,A1,8,SPI1_CS_8*%
%TO.N,LCD_CS*%
X171575000Y-113380000D03*
%TO.P,A1,9,SPI1_SCK_9*%
%TO.N,LCD_SCK*%
X169035000Y-113380000D03*
%TO.P,A1,10,SPI1_POCI_10*%
%TO.N,unconnected-(A1-SPI1_POCI-Pad10)*%
X166495000Y-113380000D03*
%TO.P,A1,11,SPI1_PICO_11*%
%TO.N,LCD_MOSI*%
X163955000Y-113380000D03*
%TO.P,A1,12,I2C1_SCL_12*%
%TO.N,ENC_4_A*%
X161415000Y-113380000D03*
%TO.P,A1,13,I2C1_SDA_13*%
%TO.N,ENC_4_B*%
X158875000Y-113380000D03*
%TO.P,A1,14,USART1_TX_14*%
%TO.N,ENC_MASTER_A*%
X156335000Y-113380000D03*
%TO.P,A1,15,USART1_RX_15*%
%TO.N,ENC_MASTER_B*%
X153795000Y-113380000D03*
%TO.P,A1,16,AUDIO_IN_1_16*%
%TO.N,AUDIO_IN_BUFFER_LEFT*%
X151255000Y-113380000D03*
%TO.P,A1,17,AUDIO_IN_2_17*%
%TO.N,AUDIO_IN_BUFFER_RIGHT*%
X148715000Y-113380000D03*
%TO.P,A1,18,AUDIO_OUT_1_18*%
%TO.N,AUDIO_OUT_BUFFER_LEFT*%
X146175000Y-113380000D03*
%TO.P,A1,19,AUDIO_OUT_2_19*%
%TO.N,AUDIO_OUT_BUFFER_RIGHT*%
X143635000Y-113380000D03*
%TO.P,A1,20,AGND_20*%
%TO.N,GND*%
X141095000Y-113380000D03*
%TO.P,A1,21,3V3_A_21*%
%TO.N,+3.3VA*%
X141095000Y-128620000D03*
%TO.P,A1,22,ADC_0_22*%
%TO.N,unconnected-(A1-ADC_0-Pad22)*%
X143635000Y-128620000D03*
%TO.P,A1,23,ADC_1_23*%
%TO.N,unconnected-(A1-ADC_1-Pad23)*%
X146175000Y-128620000D03*
%TO.P,A1,24,ADC_2_24*%
%TO.N,FOOT_SWITCH_1*%
X148715000Y-128620000D03*
%TO.P,A1,25,ADC_3_25*%
%TO.N,FOOT_SWITCH_2*%
X151255000Y-128620000D03*
%TO.P,A1,26,ADC_4_26*%
%TO.N,FOOT_SWITCH_3*%
X153795000Y-128620000D03*
%TO.P,A1,27,ADC_5_27*%
%TO.N,unconnected-(A1-ADC_5-Pad27)*%
X156335000Y-128620000D03*
%TO.P,A1,28,ADC_6_28*%
%TO.N,unconnected-(A1-ADC_6-Pad28)*%
X158875000Y-128620000D03*
%TO.P,A1,29,DAC_OUT2_29*%
%TO.N,unconnected-(A1-DAC_OUT2-Pad29)*%
X161415000Y-128620000D03*
%TO.P,A1,30,DAC_OUT1_30*%
%TO.N,unconnected-(A1-DAC_OUT1-Pad30)*%
X163955000Y-128620000D03*
%TO.P,A1,31,SAI2_MCLK_31*%
%TO.N,unconnected-(A1-SAI2_MCLK-Pad31)*%
X166495000Y-128620000D03*
%TO.P,A1,32,SAI2_SD_B_32*%
%TO.N,unconnected-(A1-SAI2_SD_B-Pad32)*%
X169035000Y-128620000D03*
%TO.P,A1,33,SAI2_SD_A_33*%
%TO.N,LCD_DC*%
X171575000Y-128620000D03*
%TO.P,A1,34,SAI2_FS_34*%
%TO.N,LCD_RST*%
X174115000Y-128620000D03*
%TO.P,A1,35,SAI2_SCK_35*%
%TO.N,unconnected-(A1-SAI2_SCK-Pad35)*%
X176655000Y-128620000D03*
%TO.P,A1,36,USB_D_-_36*%
%TO.N,LCD_BL*%
X179195000Y-128620000D03*
%TO.P,A1,37,USB_D_+_37*%
%TO.N,unconnected-(A1-USB_D_+-Pad37)*%
X181735000Y-128620000D03*
%TO.P,A1,38,3V3_D_38*%
%TO.N,+3.3V*%
X184275000Y-128620000D03*
%TO.P,A1,39,VIN_39*%
%TO.N,+9V*%
X186815000Y-128620000D03*
%TO.P,A1,40,DGND_40*%
%TO.N,GND*%
X189355000Y-128620000D03*
%TD*%
D20*
%TO.P,FS1,1,1_1*%
%TO.N,GND*%
X130850000Y-106000000D03*
D21*
%TO.P,FS1,2,2_2*%
%TO.N,FOOT_SWITCH_1*%
X128850000Y-106000000D03*
%TD*%
D10*
%TO.P,R12,1*%
%TO.N,Net-(U4A--)*%
X123350000Y-75700000D03*
%TO.P,R12,2*%
%TO.N,Net-(C16-Pad1)*%
X123350000Y-68080000D03*
%TD*%
D31*
%TO.P,C6,1*%
%TO.N,+5V_ISOLATED_POWER*%
X161850000Y-107000000D03*
D10*
%TO.P,C6,2*%
%TO.N,GND*%
X163850000Y-107000000D03*
%TD*%
D16*
%TO.P,SW2,*%
%TO.N,*%
X186750000Y-74000000D03*
X198150000Y-74000000D03*
D17*
%TO.P,SW2,A,A_A*%
%TO.N,ENC_2_A*%
X189950000Y-81500000D03*
D18*
%TO.P,SW2,B,B_B*%
%TO.N,ENC_2_B*%
X194950000Y-81500000D03*
%TO.P,SW2,C,C_C*%
%TO.N,GND*%
X192450000Y-81500000D03*
%TD*%
D13*
%TO.P,C1,1*%
%TO.N,+9V*%
X179350000Y-106625000D03*
D14*
%TO.P,C1,2*%
%TO.N,GND*%
X184350000Y-106625000D03*
%TD*%
D13*
%TO.P,C1,1*%
%TO.N,+9V*%
X155850000Y-77000000D03*
D14*
%TO.P,C1,2*%
%TO.N,GND*%
X160850000Y-77000000D03*
%TD*%
D10*
%TO.P,R5,1*%
%TO.N,/InputBuffer/V_AUDIOBIAS*%
X181850000Y-80190000D03*
%TO.P,R5,2*%
%TO.N,Net-(U3A-+)*%
X181850000Y-87810000D03*
%TD*%
D32*
%TO.P,U2,1,-VIN_1*%
%TO.N,GND*%
X148230000Y-99380000D03*
%TO.P,U2,4,+VIN_4*%
%TO.N,/Power/VIN*%
X148230000Y-107000000D03*
%TO.P,U2,5,+VOUT_5*%
%TO.N,+5V_ISOLATED_POWER*%
X155850000Y-107000000D03*
%TO.P,U2,7,-VOUT_7*%
%TO.N,GND*%
X155850000Y-101920000D03*
%TD*%
D10*
%TO.P,R11,1*%
%TO.N,Net-(U4B--)*%
X119300000Y-75700000D03*
%TO.P,R11,2*%
%TO.N,Net-(C15-Pad1)*%
X119300000Y-68080000D03*
%TD*%
%TO.P,C13,1*%
%TO.N,+5V_ISOLATED_POWER*%
X120325000Y-61875000D03*
%TO.P,C13,2*%
%TO.N,GND*%
X120325000Y-56875000D03*
%TD*%
D16*
%TO.P,SW3,*%
%TO.N,*%
X165150000Y-92890000D03*
X176550000Y-92890000D03*
D17*
%TO.P,SW3,A,A_A*%
%TO.N,ENC_3_A*%
X168350000Y-100390000D03*
D18*
%TO.P,SW3,B,B_B*%
%TO.N,ENC_3_B*%
X173350000Y-100390000D03*
%TO.P,SW3,C,C_C*%
%TO.N,GND*%
X170850000Y-100390000D03*
%TD*%
D33*
%TO.N,+5V_ISOLATED_POWER*%
X162000000Y-100000000D03*
%TO.N,LCD_MOSI*%
X135000000Y-117000000D03*
%TO.N,LCD_SCK*%
X148000000Y-118000000D03*
X127000000Y-120770000D03*
%TO.N,LCD_CS*%
X149000000Y-123000000D03*
%TO.N,+5V*%
X159000000Y-96000000D03*
X151000000Y-91000000D03*
%TO.N,ENC_4_A*%
X184000000Y-104000000D03*
X173000000Y-104000000D03*
X188000000Y-102000000D03*
%TO.N,ENC_4_B*%
X178000000Y-103000000D03*
X165000000Y-111000000D03*
X186000000Y-101000000D03*
X184000000Y-102000000D03*
%TO.N,ENC_MASTER_A*%
X153000000Y-117000000D03*
%TO.N,ENC_2_A*%
X188850000Y-87600000D03*
%TD*%
%TO.N,+5V_ISOLATED_POWER*%
D34*
X162000000Y-100000000D02*
X162000000Y-98487500D01*
X136095000Y-66000000D02*
X129700000Y-72395000D01*
X160850000Y-60500000D02*
X160850000Y-67020000D01*
X114850000Y-108810000D02*
X118400000Y-105260000D01*
X129700000Y-72395000D02*
X120325000Y-63020000D01*
X156850000Y-56500000D02*
X160850000Y-60500000D01*
X118400000Y-105260000D02*
X118400000Y-88135000D01*
X171390000Y-55000000D02*
X173390000Y-57000000D01*
X162387500Y-98100000D02*
X162387500Y-68557500D01*
X156850000Y-56500000D02*
X169890000Y-56500000D01*
X128040000Y-76960000D02*
X128040000Y-76380000D01*
X169890000Y-56500000D02*
X171390000Y-55000000D01*
X120325000Y-63020000D02*
X120325000Y-61875000D01*
X162000000Y-98487500D02*
X162387500Y-98100000D01*
X147350000Y-66000000D02*
X136095000Y-66000000D01*
X128000000Y-77000000D02*
X128040000Y-76960000D01*
X162387500Y-68557500D02*
X160850000Y-67020000D01*
X173390000Y-57000000D02*
X184400000Y-57000000D01*
X156850000Y-56500000D02*
X147350000Y-66000000D01*
%TO.N,Net-(U4B-+)*%
D35*
X128212387Y-98575000D02*
X120775000Y-98575000D01*
X136785000Y-90002387D02*
X128212387Y-98575000D01*
X120775000Y-98575000D02*
X120775000Y-89810000D01*
X135660000Y-76380000D02*
X136785000Y-77505000D01*
X118400000Y-80515000D02*
X114540000Y-80515000D01*
X114540000Y-80515000D02*
X112850000Y-78825000D01*
X120775000Y-89810000D02*
X122450000Y-88135000D01*
X136785000Y-77505000D02*
X136785000Y-90002387D01*
%TO.N,AUDIO_IN_JACK_RIGHT*%
D36*
X196075000Y-101825000D02*
X193900000Y-104000000D01*
X188865000Y-56000000D02*
X188675000Y-56190000D01*
X191000000Y-56000000D02*
X188865000Y-56000000D01*
X192000000Y-61000000D02*
X196075000Y-65075000D01*
X193900000Y-104000000D02*
X192850000Y-104000000D01*
X191000000Y-56000000D02*
X191000000Y-60190000D01*
X196075000Y-65075000D02*
X196075000Y-101825000D01*
X191000000Y-60190000D02*
X191810000Y-61000000D01*
X191810000Y-61000000D02*
X192000000Y-61000000D01*
X192000000Y-61000000D02*
X200575000Y-61000000D01*
%TO.N,LCD_MOSI*%
D35*
X119850000Y-117000000D02*
X135000000Y-117000000D01*
X116850000Y-120000000D02*
X119850000Y-117000000D01*
%TO.N,LCD_CS*%
X171575000Y-113380000D02*
X161955000Y-123000000D01*
X161955000Y-123000000D02*
X149000000Y-123000000D01*
%TO.N,LCD_RST*%
X140608299Y-129795000D02*
X172940000Y-129795000D01*
X116850000Y-128000000D02*
X138813299Y-128000000D01*
X138813299Y-128000000D02*
X140608299Y-129795000D01*
X172940000Y-129795000D02*
X174115000Y-128620000D01*
%TO.N,LCD_BL*%
X177215000Y-130600000D02*
X179195000Y-128620000D01*
X116850000Y-130000000D02*
X117450000Y-130600000D01*
X117450000Y-130600000D02*
X177215000Y-130600000D01*
%TO.N,Net-(U4A-+)*%
X121000000Y-87010000D02*
X127000000Y-87010000D01*
X114375000Y-98075000D02*
X112625000Y-96325000D01*
X112625000Y-87225000D02*
X112840000Y-87010000D01*
X130110000Y-87010000D02*
X133120000Y-84000000D01*
X114850000Y-101190000D02*
X114850000Y-98550000D01*
X127000000Y-87010000D02*
X130110000Y-87010000D01*
X120000000Y-87010000D02*
X121000000Y-87010000D01*
X114850000Y-98550000D02*
X114375000Y-98075000D01*
X112625000Y-96325000D02*
X112625000Y-87225000D01*
X112840000Y-87010000D02*
X120000000Y-87010000D01*
%TO.N,AUDIO_OUT_BUFFER_RIGHT*%
D36*
X129231497Y-104000000D02*
X134255000Y-104000000D01*
X111525000Y-107111346D02*
X114373654Y-109960000D01*
X114373654Y-109960000D02*
X123271497Y-109960000D01*
X112625000Y-82225000D02*
X111525000Y-83325000D01*
X123271497Y-109960000D02*
X129231497Y-104000000D01*
X134255000Y-104000000D02*
X143635000Y-113380000D01*
X111525000Y-83325000D02*
X111525000Y-107111346D01*
%TO.N,Net-(C16-Pad1)*%
D35*
X139000000Y-74000000D02*
X129270000Y-74000000D01*
X140195000Y-96540000D02*
X141270000Y-95465000D01*
X141270000Y-95465000D02*
X141270000Y-76270000D01*
X141270000Y-76270000D02*
X139000000Y-74000000D01*
X129270000Y-74000000D02*
X123350000Y-68080000D01*
%TO.N,AUDIO_OUT_JACK_RIGHT*%
D36*
X140195000Y-91540000D02*
X135320000Y-96415000D01*
X135320000Y-96415000D02*
X132195000Y-96415000D01*
%TO.N,+5V*%
D34*
X160562500Y-97562500D02*
X159000000Y-96000000D01*
X147000000Y-89000000D02*
X151000000Y-89000000D01*
X144420000Y-84650000D02*
X144420000Y-86420000D01*
X154000000Y-89000000D02*
X155350000Y-87650000D01*
X151000000Y-91000000D02*
X151000000Y-89000000D01*
X151000000Y-89000000D02*
X154000000Y-89000000D01*
X155350000Y-87650000D02*
X155350000Y-86000000D01*
X160562500Y-98100000D02*
X160562500Y-97562500D01*
X144420000Y-86420000D02*
X147000000Y-89000000D01*
%TO.N,+9V*%
D37*
X146225000Y-59500000D02*
X145950000Y-59775000D01*
%TO.N,AUDIO_IN_JACK_LEFT*%
D36*
X202000000Y-101975000D02*
X199975000Y-104000000D01*
X197575000Y-56000000D02*
X200575000Y-59000000D01*
X200575000Y-59000000D02*
X202000000Y-60425000D01*
X202000000Y-60425000D02*
X202000000Y-101975000D01*
X192800000Y-56000000D02*
X197575000Y-56000000D01*
%TO.N,Net-(U3D-+)*%
D35*
X198900000Y-107925000D02*
X190965000Y-107925000D01*
X190965000Y-107925000D02*
X181850000Y-98810000D01*
X199975000Y-109000000D02*
X198900000Y-107925000D01*
%TO.N,Net-(U4A--)*%
X128040000Y-84000000D02*
X130580000Y-84000000D01*
X123350000Y-75700000D02*
X123350000Y-79310000D01*
X123350000Y-79310000D02*
X128040000Y-84000000D01*
%TO.N,Net-(U4B--)*%
X120205991Y-66955000D02*
X129630991Y-76380000D01*
X129630991Y-76380000D02*
X130580000Y-76380000D01*
X118175000Y-74575000D02*
X118175000Y-67614009D01*
X118834009Y-66955000D02*
X120205991Y-66955000D01*
X130580000Y-76380000D02*
X133120000Y-76380000D01*
X119300000Y-75700000D02*
X118175000Y-74575000D01*
X118175000Y-67614009D02*
X118834009Y-66955000D01*
%TO.N,ENC_4_A*%
X173000000Y-104000000D02*
X170795000Y-104000000D01*
X170795000Y-104000000D02*
X161415000Y-113380000D01*
X189610000Y-100390000D02*
X188000000Y-102000000D01*
X189950000Y-100390000D02*
X189610000Y-100390000D01*
%TO.N,ENC_4_B*%
X170000000Y-111000000D02*
X165000000Y-111000000D01*
X178000000Y-103000000D02*
X170000000Y-111000000D01*
%TO.N,/InputBuffer/V_AUDIOBIAS*%
X180725000Y-90065000D02*
X181850000Y-91190000D01*
X163770000Y-55000000D02*
X166310000Y-55000000D01*
X181850000Y-80190000D02*
X180725000Y-81315000D01*
X180725000Y-81315000D02*
X180725000Y-90065000D01*
%TO.N,Net-(C15-Pad1)*%
X119300000Y-68080000D02*
X119300000Y-69520991D01*
X119300000Y-69520991D02*
X132654009Y-82875000D01*
X134245000Y-83534009D02*
X134245000Y-91905991D01*
X128610991Y-97540000D02*
X121890000Y-97540000D01*
X132654009Y-82875000D02*
X133585991Y-82875000D01*
X133585991Y-82875000D02*
X134245000Y-83534009D01*
X134245000Y-91905991D02*
X128610991Y-97540000D01*
X121890000Y-97540000D02*
X121850000Y-97500000D01*
%TO.N,AUDIO_OUT_JACK_LEFT*%
D36*
X124230000Y-92500000D02*
X128145000Y-96415000D01*
X121850000Y-92500000D02*
X124230000Y-92500000D01*
%TO.N,ENC_MASTER_A*%
D35*
X153000000Y-117000000D02*
X153000000Y-116715000D01*
X153000000Y-116715000D02*
X156335000Y-113380000D01*
%TO.N,/Power/VIN*%
X159025000Y-84675000D02*
X160350000Y-86000000D01*
X156675000Y-98555000D02*
X156675000Y-89675000D01*
X156675000Y-89675000D02*
X160350000Y-86000000D01*
X148230000Y-107000000D02*
X156675000Y-98555000D01*
X137350000Y-70000000D02*
X152025000Y-84675000D01*
X152025000Y-84675000D02*
X159025000Y-84675000D01*
%TO.N,ENC_1_A*%
X168350000Y-88783072D02*
X168350000Y-81500000D01*
X189355000Y-113380000D02*
X188180000Y-114555000D01*
X188180000Y-114555000D02*
X183598299Y-114555000D01*
X183598299Y-114555000D02*
X182910000Y-113866701D01*
X182910000Y-103343072D02*
X168350000Y-88783072D01*
X182910000Y-113866701D02*
X182910000Y-103343072D01*
%TO.N,ENC_1_B*%
X186815000Y-105815000D02*
X176715000Y-95715000D01*
X175918324Y-95715000D02*
X173350000Y-93146676D01*
X186815000Y-113380000D02*
X186815000Y-105815000D01*
X176715000Y-95715000D02*
X175918324Y-95715000D01*
X173350000Y-93146676D02*
X173350000Y-81500000D01*
%TO.N,AUDIO_IN_BUFFER_RIGHT*%
D36*
X176470000Y-55000000D02*
X179010000Y-55000000D01*
%TO.N,AUDIO_IN_BUFFER_LEFT*%
X176470000Y-62620000D02*
X166700000Y-72390000D01*
X166700000Y-72390000D02*
X166700000Y-97935000D01*
X179010000Y-62620000D02*
X176470000Y-62620000D01*
X166700000Y-97935000D02*
X151255000Y-113380000D01*
%TO.N,POWER_JACK_PWR*%
D37*
X134850000Y-56770000D02*
X141080000Y-63000000D01*
X134850000Y-55000000D02*
X134850000Y-56770000D01*
%TO.N,FOOT_SWITCH_2*%
D35*
X144810000Y-107960000D02*
X144810000Y-122175000D01*
X144810000Y-122175000D02*
X151255000Y-128620000D01*
X141850000Y-105000000D02*
X144810000Y-107960000D01*
%TO.N,FOOT_SWITCH_1*%
X128850000Y-108755000D02*
X128850000Y-106000000D01*
X148715000Y-128620000D02*
X128850000Y-108755000D01*
%TD*%
M02*
