%TF.GenerationSoftware,KiCad,Pcbnew,10.0.6*%
%TF.CreationDate,2026-09-02T19:19:22-05:00*%
%TF.ProjectId,DaisyMultiFX,44616973-794d-4756-9c74-6946582e6b69,rev?*%
%TF.SameCoordinates,Original*%
%TF.FileFunction,Legend,Top*%
%TF.FilePolarity,Positive*%
%FSLAX46Y46*%
G04 Gerber Fmt 4.6, Leading zero omitted, Abs format (unit mm)*
G04 Created by KiCad (PCBNEW 10.0.6) date 2026-09-02 19:19:22*
%MOMM*%
%LPD*%
G01*
G04 APERTURE LIST*
%ADD10C,0.150000*%
%ADD11C,0.100000*%
%ADD12C,0.120000*%
%ADD13C,0.250000*%
%ADD14C,0.152400*%
G04 APERTURE END LIST*
D10*
X116484819Y-84491666D02*
X116008628Y-84824999D01*
X116484819Y-85063094D02*
X115484819Y-85063094D01*
X115484819Y-85063094D02*
X115484819Y-84682142D01*
X115484819Y-84682142D02*
X115532438Y-84586904D01*
X115532438Y-84586904D02*
X115580057Y-84539285D01*
X115580057Y-84539285D02*
X115675295Y-84491666D01*
X115675295Y-84491666D02*
X115818152Y-84491666D01*
X115818152Y-84491666D02*
X115913390Y-84539285D01*
X115913390Y-84539285D02*
X115961009Y-84586904D01*
X115961009Y-84586904D02*
X116008628Y-84682142D01*
X116008628Y-84682142D02*
X116008628Y-85063094D01*
X115484819Y-84158332D02*
X115484819Y-83491666D01*
X115484819Y-83491666D02*
X116484819Y-83920237D01*
X159959580Y-59166666D02*
X160007200Y-59214285D01*
X160007200Y-59214285D02*
X160054819Y-59357142D01*
X160054819Y-59357142D02*
X160054819Y-59452380D01*
X160054819Y-59452380D02*
X160007200Y-59595237D01*
X160007200Y-59595237D02*
X159911961Y-59690475D01*
X159911961Y-59690475D02*
X159816723Y-59738094D01*
X159816723Y-59738094D02*
X159626247Y-59785713D01*
X159626247Y-59785713D02*
X159483390Y-59785713D01*
X159483390Y-59785713D02*
X159292914Y-59738094D01*
X159292914Y-59738094D02*
X159197676Y-59690475D01*
X159197676Y-59690475D02*
X159102438Y-59595237D01*
X159102438Y-59595237D02*
X159054819Y-59452380D01*
X159054819Y-59452380D02*
X159054819Y-59357142D01*
X159054819Y-59357142D02*
X159102438Y-59214285D01*
X159102438Y-59214285D02*
X159150057Y-59166666D01*
X159054819Y-58833332D02*
X159054819Y-58166666D01*
X159054819Y-58166666D02*
X160054819Y-58595237D01*
X189454819Y-60166666D02*
X188978628Y-60499999D01*
X189454819Y-60738094D02*
X188454819Y-60738094D01*
X188454819Y-60738094D02*
X188454819Y-60357142D01*
X188454819Y-60357142D02*
X188502438Y-60261904D01*
X188502438Y-60261904D02*
X188550057Y-60214285D01*
X188550057Y-60214285D02*
X188645295Y-60166666D01*
X188645295Y-60166666D02*
X188788152Y-60166666D01*
X188788152Y-60166666D02*
X188883390Y-60214285D01*
X188883390Y-60214285D02*
X188931009Y-60261904D01*
X188931009Y-60261904D02*
X188978628Y-60357142D01*
X188978628Y-60357142D02*
X188978628Y-60738094D01*
X188550057Y-59785713D02*
X188502438Y-59738094D01*
X188502438Y-59738094D02*
X188454819Y-59642856D01*
X188454819Y-59642856D02*
X188454819Y-59404761D01*
X188454819Y-59404761D02*
X188502438Y-59309523D01*
X188502438Y-59309523D02*
X188550057Y-59261904D01*
X188550057Y-59261904D02*
X188645295Y-59214285D01*
X188645295Y-59214285D02*
X188740533Y-59214285D01*
X188740533Y-59214285D02*
X188883390Y-59261904D01*
X188883390Y-59261904D02*
X189454819Y-59833332D01*
X189454819Y-59833332D02*
X189454819Y-59214285D01*
X118854819Y-125119047D02*
X119569104Y-125119047D01*
X119569104Y-125119047D02*
X119711961Y-125166666D01*
X119711961Y-125166666D02*
X119807200Y-125261904D01*
X119807200Y-125261904D02*
X119854819Y-125404761D01*
X119854819Y-125404761D02*
X119854819Y-125499999D01*
X119950057Y-124880952D02*
X119950057Y-124119047D01*
X119854819Y-123404761D02*
X119854819Y-123880951D01*
X119854819Y-123880951D02*
X118854819Y-123880951D01*
X119759580Y-122499999D02*
X119807200Y-122547618D01*
X119807200Y-122547618D02*
X119854819Y-122690475D01*
X119854819Y-122690475D02*
X119854819Y-122785713D01*
X119854819Y-122785713D02*
X119807200Y-122928570D01*
X119807200Y-122928570D02*
X119711961Y-123023808D01*
X119711961Y-123023808D02*
X119616723Y-123071427D01*
X119616723Y-123071427D02*
X119426247Y-123119046D01*
X119426247Y-123119046D02*
X119283390Y-123119046D01*
X119283390Y-123119046D02*
X119092914Y-123071427D01*
X119092914Y-123071427D02*
X118997676Y-123023808D01*
X118997676Y-123023808D02*
X118902438Y-122928570D01*
X118902438Y-122928570D02*
X118854819Y-122785713D01*
X118854819Y-122785713D02*
X118854819Y-122690475D01*
X118854819Y-122690475D02*
X118902438Y-122547618D01*
X118902438Y-122547618D02*
X118950057Y-122499999D01*
X119854819Y-122071427D02*
X118854819Y-122071427D01*
X118854819Y-122071427D02*
X118854819Y-121833332D01*
X118854819Y-121833332D02*
X118902438Y-121690475D01*
X118902438Y-121690475D02*
X118997676Y-121595237D01*
X118997676Y-121595237D02*
X119092914Y-121547618D01*
X119092914Y-121547618D02*
X119283390Y-121499999D01*
X119283390Y-121499999D02*
X119426247Y-121499999D01*
X119426247Y-121499999D02*
X119616723Y-121547618D01*
X119616723Y-121547618D02*
X119711961Y-121595237D01*
X119711961Y-121595237D02*
X119807200Y-121690475D01*
X119807200Y-121690475D02*
X119854819Y-121833332D01*
X119854819Y-121833332D02*
X119854819Y-122071427D01*
X119854819Y-120547618D02*
X119854819Y-121119046D01*
X119854819Y-120833332D02*
X118854819Y-120833332D01*
X118854819Y-120833332D02*
X118997676Y-120928570D01*
X118997676Y-120928570D02*
X119092914Y-121023808D01*
X119092914Y-121023808D02*
X119140533Y-121119046D01*
D11*
X109987180Y-85367857D02*
X110034800Y-85415476D01*
X110034800Y-85415476D02*
X110082419Y-85558333D01*
X110082419Y-85558333D02*
X110082419Y-85653571D01*
X110082419Y-85653571D02*
X110034800Y-85796428D01*
X110034800Y-85796428D02*
X109939561Y-85891666D01*
X109939561Y-85891666D02*
X109844323Y-85939285D01*
X109844323Y-85939285D02*
X109653847Y-85986904D01*
X109653847Y-85986904D02*
X109510990Y-85986904D01*
X109510990Y-85986904D02*
X109320514Y-85939285D01*
X109320514Y-85939285D02*
X109225276Y-85891666D01*
X109225276Y-85891666D02*
X109130038Y-85796428D01*
X109130038Y-85796428D02*
X109082419Y-85653571D01*
X109082419Y-85653571D02*
X109082419Y-85558333D01*
X109082419Y-85558333D02*
X109130038Y-85415476D01*
X109130038Y-85415476D02*
X109177657Y-85367857D01*
X110082419Y-84415476D02*
X110082419Y-84986904D01*
X110082419Y-84701190D02*
X109082419Y-84701190D01*
X109082419Y-84701190D02*
X109225276Y-84796428D01*
X109225276Y-84796428D02*
X109320514Y-84891666D01*
X109320514Y-84891666D02*
X109368133Y-84986904D01*
X109177657Y-84034523D02*
X109130038Y-83986904D01*
X109130038Y-83986904D02*
X109082419Y-83891666D01*
X109082419Y-83891666D02*
X109082419Y-83653571D01*
X109082419Y-83653571D02*
X109130038Y-83558333D01*
X109130038Y-83558333D02*
X109177657Y-83510714D01*
X109177657Y-83510714D02*
X109272895Y-83463095D01*
X109272895Y-83463095D02*
X109368133Y-83463095D01*
X109368133Y-83463095D02*
X109510990Y-83510714D01*
X109510990Y-83510714D02*
X110082419Y-84082142D01*
X110082419Y-84082142D02*
X110082419Y-83463095D01*
X137557180Y-94682857D02*
X137604800Y-94730476D01*
X137604800Y-94730476D02*
X137652419Y-94873333D01*
X137652419Y-94873333D02*
X137652419Y-94968571D01*
X137652419Y-94968571D02*
X137604800Y-95111428D01*
X137604800Y-95111428D02*
X137509561Y-95206666D01*
X137509561Y-95206666D02*
X137414323Y-95254285D01*
X137414323Y-95254285D02*
X137223847Y-95301904D01*
X137223847Y-95301904D02*
X137080990Y-95301904D01*
X137080990Y-95301904D02*
X136890514Y-95254285D01*
X136890514Y-95254285D02*
X136795276Y-95206666D01*
X136795276Y-95206666D02*
X136700038Y-95111428D01*
X136700038Y-95111428D02*
X136652419Y-94968571D01*
X136652419Y-94968571D02*
X136652419Y-94873333D01*
X136652419Y-94873333D02*
X136700038Y-94730476D01*
X136700038Y-94730476D02*
X136747657Y-94682857D01*
X137652419Y-93730476D02*
X137652419Y-94301904D01*
X137652419Y-94016190D02*
X136652419Y-94016190D01*
X136652419Y-94016190D02*
X136795276Y-94111428D01*
X136795276Y-94111428D02*
X136890514Y-94206666D01*
X136890514Y-94206666D02*
X136938133Y-94301904D01*
X136652419Y-92873333D02*
X136652419Y-93063809D01*
X136652419Y-93063809D02*
X136700038Y-93159047D01*
X136700038Y-93159047D02*
X136747657Y-93206666D01*
X136747657Y-93206666D02*
X136890514Y-93301904D01*
X136890514Y-93301904D02*
X137080990Y-93349523D01*
X137080990Y-93349523D02*
X137461942Y-93349523D01*
X137461942Y-93349523D02*
X137557180Y-93301904D01*
X137557180Y-93301904D02*
X137604800Y-93254285D01*
X137604800Y-93254285D02*
X137652419Y-93159047D01*
X137652419Y-93159047D02*
X137652419Y-92968571D01*
X137652419Y-92968571D02*
X137604800Y-92873333D01*
X137604800Y-92873333D02*
X137557180Y-92825714D01*
X137557180Y-92825714D02*
X137461942Y-92778095D01*
X137461942Y-92778095D02*
X137223847Y-92778095D01*
X137223847Y-92778095D02*
X137128609Y-92825714D01*
X137128609Y-92825714D02*
X137080990Y-92873333D01*
X137080990Y-92873333D02*
X137033371Y-92968571D01*
X137033371Y-92968571D02*
X137033371Y-93159047D01*
X137033371Y-93159047D02*
X137080990Y-93254285D01*
X137080990Y-93254285D02*
X137128609Y-93301904D01*
X137128609Y-93301904D02*
X137223847Y-93349523D01*
D10*
X125454819Y-84491666D02*
X124978628Y-84824999D01*
X125454819Y-85063094D02*
X124454819Y-85063094D01*
X124454819Y-85063094D02*
X124454819Y-84682142D01*
X124454819Y-84682142D02*
X124502438Y-84586904D01*
X124502438Y-84586904D02*
X124550057Y-84539285D01*
X124550057Y-84539285D02*
X124645295Y-84491666D01*
X124645295Y-84491666D02*
X124788152Y-84491666D01*
X124788152Y-84491666D02*
X124883390Y-84539285D01*
X124883390Y-84539285D02*
X124931009Y-84586904D01*
X124931009Y-84586904D02*
X124978628Y-84682142D01*
X124978628Y-84682142D02*
X124978628Y-85063094D01*
X124883390Y-83920237D02*
X124835771Y-84015475D01*
X124835771Y-84015475D02*
X124788152Y-84063094D01*
X124788152Y-84063094D02*
X124692914Y-84110713D01*
X124692914Y-84110713D02*
X124645295Y-84110713D01*
X124645295Y-84110713D02*
X124550057Y-84063094D01*
X124550057Y-84063094D02*
X124502438Y-84015475D01*
X124502438Y-84015475D02*
X124454819Y-83920237D01*
X124454819Y-83920237D02*
X124454819Y-83729761D01*
X124454819Y-83729761D02*
X124502438Y-83634523D01*
X124502438Y-83634523D02*
X124550057Y-83586904D01*
X124550057Y-83586904D02*
X124645295Y-83539285D01*
X124645295Y-83539285D02*
X124692914Y-83539285D01*
X124692914Y-83539285D02*
X124788152Y-83586904D01*
X124788152Y-83586904D02*
X124835771Y-83634523D01*
X124835771Y-83634523D02*
X124883390Y-83729761D01*
X124883390Y-83729761D02*
X124883390Y-83920237D01*
X124883390Y-83920237D02*
X124931009Y-84015475D01*
X124931009Y-84015475D02*
X124978628Y-84063094D01*
X124978628Y-84063094D02*
X125073866Y-84110713D01*
X125073866Y-84110713D02*
X125264342Y-84110713D01*
X125264342Y-84110713D02*
X125359580Y-84063094D01*
X125359580Y-84063094D02*
X125407200Y-84015475D01*
X125407200Y-84015475D02*
X125454819Y-83920237D01*
X125454819Y-83920237D02*
X125454819Y-83729761D01*
X125454819Y-83729761D02*
X125407200Y-83634523D01*
X125407200Y-83634523D02*
X125359580Y-83586904D01*
X125359580Y-83586904D02*
X125264342Y-83539285D01*
X125264342Y-83539285D02*
X125073866Y-83539285D01*
X125073866Y-83539285D02*
X124978628Y-83586904D01*
X124978628Y-83586904D02*
X124931009Y-83634523D01*
X124931009Y-83634523D02*
X124883390Y-83729761D01*
X184674819Y-72976666D02*
X184198628Y-73309999D01*
X184674819Y-73548094D02*
X183674819Y-73548094D01*
X183674819Y-73548094D02*
X183674819Y-73167142D01*
X183674819Y-73167142D02*
X183722438Y-73071904D01*
X183722438Y-73071904D02*
X183770057Y-73024285D01*
X183770057Y-73024285D02*
X183865295Y-72976666D01*
X183865295Y-72976666D02*
X184008152Y-72976666D01*
X184008152Y-72976666D02*
X184103390Y-73024285D01*
X184103390Y-73024285D02*
X184151009Y-73071904D01*
X184151009Y-73071904D02*
X184198628Y-73167142D01*
X184198628Y-73167142D02*
X184198628Y-73548094D01*
X183674819Y-72119523D02*
X183674819Y-72309999D01*
X183674819Y-72309999D02*
X183722438Y-72405237D01*
X183722438Y-72405237D02*
X183770057Y-72452856D01*
X183770057Y-72452856D02*
X183912914Y-72548094D01*
X183912914Y-72548094D02*
X184103390Y-72595713D01*
X184103390Y-72595713D02*
X184484342Y-72595713D01*
X184484342Y-72595713D02*
X184579580Y-72548094D01*
X184579580Y-72548094D02*
X184627200Y-72500475D01*
X184627200Y-72500475D02*
X184674819Y-72405237D01*
X184674819Y-72405237D02*
X184674819Y-72214761D01*
X184674819Y-72214761D02*
X184627200Y-72119523D01*
X184627200Y-72119523D02*
X184579580Y-72071904D01*
X184579580Y-72071904D02*
X184484342Y-72024285D01*
X184484342Y-72024285D02*
X184246247Y-72024285D01*
X184246247Y-72024285D02*
X184151009Y-72071904D01*
X184151009Y-72071904D02*
X184103390Y-72119523D01*
X184103390Y-72119523D02*
X184055771Y-72214761D01*
X184055771Y-72214761D02*
X184055771Y-72405237D01*
X184055771Y-72405237D02*
X184103390Y-72500475D01*
X184103390Y-72500475D02*
X184151009Y-72548094D01*
X184151009Y-72548094D02*
X184246247Y-72595713D01*
X112934819Y-105166666D02*
X112458628Y-105499999D01*
X112934819Y-105738094D02*
X111934819Y-105738094D01*
X111934819Y-105738094D02*
X111934819Y-105357142D01*
X111934819Y-105357142D02*
X111982438Y-105261904D01*
X111982438Y-105261904D02*
X112030057Y-105214285D01*
X112030057Y-105214285D02*
X112125295Y-105166666D01*
X112125295Y-105166666D02*
X112268152Y-105166666D01*
X112268152Y-105166666D02*
X112363390Y-105214285D01*
X112363390Y-105214285D02*
X112411009Y-105261904D01*
X112411009Y-105261904D02*
X112458628Y-105357142D01*
X112458628Y-105357142D02*
X112458628Y-105738094D01*
X112934819Y-104690475D02*
X112934819Y-104499999D01*
X112934819Y-104499999D02*
X112887200Y-104404761D01*
X112887200Y-104404761D02*
X112839580Y-104357142D01*
X112839580Y-104357142D02*
X112696723Y-104261904D01*
X112696723Y-104261904D02*
X112506247Y-104214285D01*
X112506247Y-104214285D02*
X112125295Y-104214285D01*
X112125295Y-104214285D02*
X112030057Y-104261904D01*
X112030057Y-104261904D02*
X111982438Y-104309523D01*
X111982438Y-104309523D02*
X111934819Y-104404761D01*
X111934819Y-104404761D02*
X111934819Y-104595237D01*
X111934819Y-104595237D02*
X111982438Y-104690475D01*
X111982438Y-104690475D02*
X112030057Y-104738094D01*
X112030057Y-104738094D02*
X112125295Y-104785713D01*
X112125295Y-104785713D02*
X112363390Y-104785713D01*
X112363390Y-104785713D02*
X112458628Y-104738094D01*
X112458628Y-104738094D02*
X112506247Y-104690475D01*
X112506247Y-104690475D02*
X112553866Y-104595237D01*
X112553866Y-104595237D02*
X112553866Y-104404761D01*
X112553866Y-104404761D02*
X112506247Y-104309523D01*
X112506247Y-104309523D02*
X112458628Y-104261904D01*
X112458628Y-104261904D02*
X112363390Y-104214285D01*
X146198095Y-80544819D02*
X146198095Y-81354342D01*
X146198095Y-81354342D02*
X146245714Y-81449580D01*
X146245714Y-81449580D02*
X146293333Y-81497200D01*
X146293333Y-81497200D02*
X146388571Y-81544819D01*
X146388571Y-81544819D02*
X146579047Y-81544819D01*
X146579047Y-81544819D02*
X146674285Y-81497200D01*
X146674285Y-81497200D02*
X146721904Y-81449580D01*
X146721904Y-81449580D02*
X146769523Y-81354342D01*
X146769523Y-81354342D02*
X146769523Y-80544819D01*
X147769523Y-81544819D02*
X147198095Y-81544819D01*
X147483809Y-81544819D02*
X147483809Y-80544819D01*
X147483809Y-80544819D02*
X147388571Y-80687676D01*
X147388571Y-80687676D02*
X147293333Y-80782914D01*
X147293333Y-80782914D02*
X147198095Y-80830533D01*
X148283333Y-57384580D02*
X148235714Y-57432200D01*
X148235714Y-57432200D02*
X148092857Y-57479819D01*
X148092857Y-57479819D02*
X147997619Y-57479819D01*
X147997619Y-57479819D02*
X147854762Y-57432200D01*
X147854762Y-57432200D02*
X147759524Y-57336961D01*
X147759524Y-57336961D02*
X147711905Y-57241723D01*
X147711905Y-57241723D02*
X147664286Y-57051247D01*
X147664286Y-57051247D02*
X147664286Y-56908390D01*
X147664286Y-56908390D02*
X147711905Y-56717914D01*
X147711905Y-56717914D02*
X147759524Y-56622676D01*
X147759524Y-56622676D02*
X147854762Y-56527438D01*
X147854762Y-56527438D02*
X147997619Y-56479819D01*
X147997619Y-56479819D02*
X148092857Y-56479819D01*
X148092857Y-56479819D02*
X148235714Y-56527438D01*
X148235714Y-56527438D02*
X148283333Y-56575057D01*
X148664286Y-56575057D02*
X148711905Y-56527438D01*
X148711905Y-56527438D02*
X148807143Y-56479819D01*
X148807143Y-56479819D02*
X149045238Y-56479819D01*
X149045238Y-56479819D02*
X149140476Y-56527438D01*
X149140476Y-56527438D02*
X149188095Y-56575057D01*
X149188095Y-56575057D02*
X149235714Y-56670295D01*
X149235714Y-56670295D02*
X149235714Y-56765533D01*
X149235714Y-56765533D02*
X149188095Y-56908390D01*
X149188095Y-56908390D02*
X148616667Y-57479819D01*
X148616667Y-57479819D02*
X149235714Y-57479819D01*
D11*
X198637819Y-106433333D02*
X198590200Y-106385714D01*
X198590200Y-106385714D02*
X198542580Y-106242857D01*
X198542580Y-106242857D02*
X198542580Y-106147619D01*
X198542580Y-106147619D02*
X198590200Y-106004762D01*
X198590200Y-106004762D02*
X198685438Y-105909524D01*
X198685438Y-105909524D02*
X198780676Y-105861905D01*
X198780676Y-105861905D02*
X198971152Y-105814286D01*
X198971152Y-105814286D02*
X199114009Y-105814286D01*
X199114009Y-105814286D02*
X199304485Y-105861905D01*
X199304485Y-105861905D02*
X199399723Y-105909524D01*
X199399723Y-105909524D02*
X199494961Y-106004762D01*
X199494961Y-106004762D02*
X199542580Y-106147619D01*
X199542580Y-106147619D02*
X199542580Y-106242857D01*
X199542580Y-106242857D02*
X199494961Y-106385714D01*
X199494961Y-106385714D02*
X199447342Y-106433333D01*
X198542580Y-106909524D02*
X198542580Y-107100000D01*
X198542580Y-107100000D02*
X198590200Y-107195238D01*
X198590200Y-107195238D02*
X198637819Y-107242857D01*
X198637819Y-107242857D02*
X198780676Y-107338095D01*
X198780676Y-107338095D02*
X198971152Y-107385714D01*
X198971152Y-107385714D02*
X199352104Y-107385714D01*
X199352104Y-107385714D02*
X199447342Y-107338095D01*
X199447342Y-107338095D02*
X199494961Y-107290476D01*
X199494961Y-107290476D02*
X199542580Y-107195238D01*
X199542580Y-107195238D02*
X199542580Y-107004762D01*
X199542580Y-107004762D02*
X199494961Y-106909524D01*
X199494961Y-106909524D02*
X199447342Y-106861905D01*
X199447342Y-106861905D02*
X199352104Y-106814286D01*
X199352104Y-106814286D02*
X199114009Y-106814286D01*
X199114009Y-106814286D02*
X199018771Y-106861905D01*
X199018771Y-106861905D02*
X198971152Y-106909524D01*
X198971152Y-106909524D02*
X198923533Y-107004762D01*
X198923533Y-107004762D02*
X198923533Y-107195238D01*
X198923533Y-107195238D02*
X198971152Y-107290476D01*
X198971152Y-107290476D02*
X199018771Y-107338095D01*
X199018771Y-107338095D02*
X199114009Y-107385714D01*
D10*
X184454819Y-60976666D02*
X183978628Y-61309999D01*
X184454819Y-61548094D02*
X183454819Y-61548094D01*
X183454819Y-61548094D02*
X183454819Y-61167142D01*
X183454819Y-61167142D02*
X183502438Y-61071904D01*
X183502438Y-61071904D02*
X183550057Y-61024285D01*
X183550057Y-61024285D02*
X183645295Y-60976666D01*
X183645295Y-60976666D02*
X183788152Y-60976666D01*
X183788152Y-60976666D02*
X183883390Y-61024285D01*
X183883390Y-61024285D02*
X183931009Y-61071904D01*
X183931009Y-61071904D02*
X183978628Y-61167142D01*
X183978628Y-61167142D02*
X183978628Y-61548094D01*
X183454819Y-60643332D02*
X183454819Y-60024285D01*
X183454819Y-60024285D02*
X183835771Y-60357618D01*
X183835771Y-60357618D02*
X183835771Y-60214761D01*
X183835771Y-60214761D02*
X183883390Y-60119523D01*
X183883390Y-60119523D02*
X183931009Y-60071904D01*
X183931009Y-60071904D02*
X184026247Y-60024285D01*
X184026247Y-60024285D02*
X184264342Y-60024285D01*
X184264342Y-60024285D02*
X184359580Y-60071904D01*
X184359580Y-60071904D02*
X184407200Y-60119523D01*
X184407200Y-60119523D02*
X184454819Y-60214761D01*
X184454819Y-60214761D02*
X184454819Y-60500475D01*
X184454819Y-60500475D02*
X184407200Y-60595713D01*
X184407200Y-60595713D02*
X184359580Y-60643332D01*
X125164819Y-80951904D02*
X125974342Y-80951904D01*
X125974342Y-80951904D02*
X126069580Y-80904285D01*
X126069580Y-80904285D02*
X126117200Y-80856666D01*
X126117200Y-80856666D02*
X126164819Y-80761428D01*
X126164819Y-80761428D02*
X126164819Y-80570952D01*
X126164819Y-80570952D02*
X126117200Y-80475714D01*
X126117200Y-80475714D02*
X126069580Y-80428095D01*
X126069580Y-80428095D02*
X125974342Y-80380476D01*
X125974342Y-80380476D02*
X125164819Y-80380476D01*
X125498152Y-79475714D02*
X126164819Y-79475714D01*
X125117200Y-79713809D02*
X125831485Y-79951904D01*
X125831485Y-79951904D02*
X125831485Y-79332857D01*
X184674819Y-95166666D02*
X184198628Y-95499999D01*
X184674819Y-95738094D02*
X183674819Y-95738094D01*
X183674819Y-95738094D02*
X183674819Y-95357142D01*
X183674819Y-95357142D02*
X183722438Y-95261904D01*
X183722438Y-95261904D02*
X183770057Y-95214285D01*
X183770057Y-95214285D02*
X183865295Y-95166666D01*
X183865295Y-95166666D02*
X184008152Y-95166666D01*
X184008152Y-95166666D02*
X184103390Y-95214285D01*
X184103390Y-95214285D02*
X184151009Y-95261904D01*
X184151009Y-95261904D02*
X184198628Y-95357142D01*
X184198628Y-95357142D02*
X184198628Y-95738094D01*
X184008152Y-94309523D02*
X184674819Y-94309523D01*
X183627200Y-94547618D02*
X184341485Y-94785713D01*
X184341485Y-94785713D02*
X184341485Y-94166666D01*
X132454819Y-93247857D02*
X131978628Y-93581190D01*
X132454819Y-93819285D02*
X131454819Y-93819285D01*
X131454819Y-93819285D02*
X131454819Y-93438333D01*
X131454819Y-93438333D02*
X131502438Y-93343095D01*
X131502438Y-93343095D02*
X131550057Y-93295476D01*
X131550057Y-93295476D02*
X131645295Y-93247857D01*
X131645295Y-93247857D02*
X131788152Y-93247857D01*
X131788152Y-93247857D02*
X131883390Y-93295476D01*
X131883390Y-93295476D02*
X131931009Y-93343095D01*
X131931009Y-93343095D02*
X131978628Y-93438333D01*
X131978628Y-93438333D02*
X131978628Y-93819285D01*
X132454819Y-92295476D02*
X132454819Y-92866904D01*
X132454819Y-92581190D02*
X131454819Y-92581190D01*
X131454819Y-92581190D02*
X131597676Y-92676428D01*
X131597676Y-92676428D02*
X131692914Y-92771666D01*
X131692914Y-92771666D02*
X131740533Y-92866904D01*
X131788152Y-91438333D02*
X132454819Y-91438333D01*
X131407200Y-91676428D02*
X132121485Y-91914523D01*
X132121485Y-91914523D02*
X132121485Y-91295476D01*
D11*
X119212180Y-95642857D02*
X119259800Y-95690476D01*
X119259800Y-95690476D02*
X119307419Y-95833333D01*
X119307419Y-95833333D02*
X119307419Y-95928571D01*
X119307419Y-95928571D02*
X119259800Y-96071428D01*
X119259800Y-96071428D02*
X119164561Y-96166666D01*
X119164561Y-96166666D02*
X119069323Y-96214285D01*
X119069323Y-96214285D02*
X118878847Y-96261904D01*
X118878847Y-96261904D02*
X118735990Y-96261904D01*
X118735990Y-96261904D02*
X118545514Y-96214285D01*
X118545514Y-96214285D02*
X118450276Y-96166666D01*
X118450276Y-96166666D02*
X118355038Y-96071428D01*
X118355038Y-96071428D02*
X118307419Y-95928571D01*
X118307419Y-95928571D02*
X118307419Y-95833333D01*
X118307419Y-95833333D02*
X118355038Y-95690476D01*
X118355038Y-95690476D02*
X118402657Y-95642857D01*
X119307419Y-94690476D02*
X119307419Y-95261904D01*
X119307419Y-94976190D02*
X118307419Y-94976190D01*
X118307419Y-94976190D02*
X118450276Y-95071428D01*
X118450276Y-95071428D02*
X118545514Y-95166666D01*
X118545514Y-95166666D02*
X118593133Y-95261904D01*
X118307419Y-93785714D02*
X118307419Y-94261904D01*
X118307419Y-94261904D02*
X118783609Y-94309523D01*
X118783609Y-94309523D02*
X118735990Y-94261904D01*
X118735990Y-94261904D02*
X118688371Y-94166666D01*
X118688371Y-94166666D02*
X118688371Y-93928571D01*
X118688371Y-93928571D02*
X118735990Y-93833333D01*
X118735990Y-93833333D02*
X118783609Y-93785714D01*
X118783609Y-93785714D02*
X118878847Y-93738095D01*
X118878847Y-93738095D02*
X119116942Y-93738095D01*
X119116942Y-93738095D02*
X119212180Y-93785714D01*
X119212180Y-93785714D02*
X119259800Y-93833333D01*
X119259800Y-93833333D02*
X119307419Y-93928571D01*
X119307419Y-93928571D02*
X119307419Y-94166666D01*
X119307419Y-94166666D02*
X119259800Y-94261904D01*
X119259800Y-94261904D02*
X119212180Y-94309523D01*
D10*
X195454819Y-60476666D02*
X194978628Y-60809999D01*
X195454819Y-61048094D02*
X194454819Y-61048094D01*
X194454819Y-61048094D02*
X194454819Y-60667142D01*
X194454819Y-60667142D02*
X194502438Y-60571904D01*
X194502438Y-60571904D02*
X194550057Y-60524285D01*
X194550057Y-60524285D02*
X194645295Y-60476666D01*
X194645295Y-60476666D02*
X194788152Y-60476666D01*
X194788152Y-60476666D02*
X194883390Y-60524285D01*
X194883390Y-60524285D02*
X194931009Y-60571904D01*
X194931009Y-60571904D02*
X194978628Y-60667142D01*
X194978628Y-60667142D02*
X194978628Y-61048094D01*
X195454819Y-59524285D02*
X195454819Y-60095713D01*
X195454819Y-59809999D02*
X194454819Y-59809999D01*
X194454819Y-59809999D02*
X194597676Y-59905237D01*
X194597676Y-59905237D02*
X194692914Y-60000475D01*
X194692914Y-60000475D02*
X194740533Y-60095713D01*
X196454819Y-61333333D02*
X197169104Y-61333333D01*
X197169104Y-61333333D02*
X197311961Y-61380952D01*
X197311961Y-61380952D02*
X197407200Y-61476190D01*
X197407200Y-61476190D02*
X197454819Y-61619047D01*
X197454819Y-61619047D02*
X197454819Y-61714285D01*
X196788152Y-60428571D02*
X197454819Y-60428571D01*
X196407200Y-60666666D02*
X197121485Y-60904761D01*
X197121485Y-60904761D02*
X197121485Y-60285714D01*
D11*
X110212180Y-76967857D02*
X110259800Y-77015476D01*
X110259800Y-77015476D02*
X110307419Y-77158333D01*
X110307419Y-77158333D02*
X110307419Y-77253571D01*
X110307419Y-77253571D02*
X110259800Y-77396428D01*
X110259800Y-77396428D02*
X110164561Y-77491666D01*
X110164561Y-77491666D02*
X110069323Y-77539285D01*
X110069323Y-77539285D02*
X109878847Y-77586904D01*
X109878847Y-77586904D02*
X109735990Y-77586904D01*
X109735990Y-77586904D02*
X109545514Y-77539285D01*
X109545514Y-77539285D02*
X109450276Y-77491666D01*
X109450276Y-77491666D02*
X109355038Y-77396428D01*
X109355038Y-77396428D02*
X109307419Y-77253571D01*
X109307419Y-77253571D02*
X109307419Y-77158333D01*
X109307419Y-77158333D02*
X109355038Y-77015476D01*
X109355038Y-77015476D02*
X109402657Y-76967857D01*
X110307419Y-76015476D02*
X110307419Y-76586904D01*
X110307419Y-76301190D02*
X109307419Y-76301190D01*
X109307419Y-76301190D02*
X109450276Y-76396428D01*
X109450276Y-76396428D02*
X109545514Y-76491666D01*
X109545514Y-76491666D02*
X109593133Y-76586904D01*
X110307419Y-75063095D02*
X110307419Y-75634523D01*
X110307419Y-75348809D02*
X109307419Y-75348809D01*
X109307419Y-75348809D02*
X109450276Y-75444047D01*
X109450276Y-75444047D02*
X109545514Y-75539285D01*
X109545514Y-75539285D02*
X109593133Y-75634523D01*
D10*
X160832142Y-96904819D02*
X160498809Y-96428628D01*
X160260714Y-96904819D02*
X160260714Y-95904819D01*
X160260714Y-95904819D02*
X160641666Y-95904819D01*
X160641666Y-95904819D02*
X160736904Y-95952438D01*
X160736904Y-95952438D02*
X160784523Y-96000057D01*
X160784523Y-96000057D02*
X160832142Y-96095295D01*
X160832142Y-96095295D02*
X160832142Y-96238152D01*
X160832142Y-96238152D02*
X160784523Y-96333390D01*
X160784523Y-96333390D02*
X160736904Y-96381009D01*
X160736904Y-96381009D02*
X160641666Y-96428628D01*
X160641666Y-96428628D02*
X160260714Y-96428628D01*
X161213095Y-96000057D02*
X161260714Y-95952438D01*
X161260714Y-95952438D02*
X161355952Y-95904819D01*
X161355952Y-95904819D02*
X161594047Y-95904819D01*
X161594047Y-95904819D02*
X161689285Y-95952438D01*
X161689285Y-95952438D02*
X161736904Y-96000057D01*
X161736904Y-96000057D02*
X161784523Y-96095295D01*
X161784523Y-96095295D02*
X161784523Y-96190533D01*
X161784523Y-96190533D02*
X161736904Y-96333390D01*
X161736904Y-96333390D02*
X161165476Y-96904819D01*
X161165476Y-96904819D02*
X161784523Y-96904819D01*
X162736904Y-96904819D02*
X162165476Y-96904819D01*
X162451190Y-96904819D02*
X162451190Y-95904819D01*
X162451190Y-95904819D02*
X162355952Y-96047676D01*
X162355952Y-96047676D02*
X162260714Y-96142914D01*
X162260714Y-96142914D02*
X162165476Y-96190533D01*
D11*
X139683333Y-67362180D02*
X139635714Y-67409800D01*
X139635714Y-67409800D02*
X139492857Y-67457419D01*
X139492857Y-67457419D02*
X139397619Y-67457419D01*
X139397619Y-67457419D02*
X139254762Y-67409800D01*
X139254762Y-67409800D02*
X139159524Y-67314561D01*
X139159524Y-67314561D02*
X139111905Y-67219323D01*
X139111905Y-67219323D02*
X139064286Y-67028847D01*
X139064286Y-67028847D02*
X139064286Y-66885990D01*
X139064286Y-66885990D02*
X139111905Y-66695514D01*
X139111905Y-66695514D02*
X139159524Y-66600276D01*
X139159524Y-66600276D02*
X139254762Y-66505038D01*
X139254762Y-66505038D02*
X139397619Y-66457419D01*
X139397619Y-66457419D02*
X139492857Y-66457419D01*
X139492857Y-66457419D02*
X139635714Y-66505038D01*
X139635714Y-66505038D02*
X139683333Y-66552657D01*
X140588095Y-66457419D02*
X140111905Y-66457419D01*
X140111905Y-66457419D02*
X140064286Y-66933609D01*
X140064286Y-66933609D02*
X140111905Y-66885990D01*
X140111905Y-66885990D02*
X140207143Y-66838371D01*
X140207143Y-66838371D02*
X140445238Y-66838371D01*
X140445238Y-66838371D02*
X140540476Y-66885990D01*
X140540476Y-66885990D02*
X140588095Y-66933609D01*
X140588095Y-66933609D02*
X140635714Y-67028847D01*
X140635714Y-67028847D02*
X140635714Y-67266942D01*
X140635714Y-67266942D02*
X140588095Y-67362180D01*
X140588095Y-67362180D02*
X140540476Y-67409800D01*
X140540476Y-67409800D02*
X140445238Y-67457419D01*
X140445238Y-67457419D02*
X140207143Y-67457419D01*
X140207143Y-67457419D02*
X140111905Y-67409800D01*
X140111905Y-67409800D02*
X140064286Y-67362180D01*
D10*
X197040476Y-132831009D02*
X196707143Y-132831009D01*
X196707143Y-133354819D02*
X196707143Y-132354819D01*
X196707143Y-132354819D02*
X197183333Y-132354819D01*
X197516667Y-133307200D02*
X197659524Y-133354819D01*
X197659524Y-133354819D02*
X197897619Y-133354819D01*
X197897619Y-133354819D02*
X197992857Y-133307200D01*
X197992857Y-133307200D02*
X198040476Y-133259580D01*
X198040476Y-133259580D02*
X198088095Y-133164342D01*
X198088095Y-133164342D02*
X198088095Y-133069104D01*
X198088095Y-133069104D02*
X198040476Y-132973866D01*
X198040476Y-132973866D02*
X197992857Y-132926247D01*
X197992857Y-132926247D02*
X197897619Y-132878628D01*
X197897619Y-132878628D02*
X197707143Y-132831009D01*
X197707143Y-132831009D02*
X197611905Y-132783390D01*
X197611905Y-132783390D02*
X197564286Y-132735771D01*
X197564286Y-132735771D02*
X197516667Y-132640533D01*
X197516667Y-132640533D02*
X197516667Y-132545295D01*
X197516667Y-132545295D02*
X197564286Y-132450057D01*
X197564286Y-132450057D02*
X197611905Y-132402438D01*
X197611905Y-132402438D02*
X197707143Y-132354819D01*
X197707143Y-132354819D02*
X197945238Y-132354819D01*
X197945238Y-132354819D02*
X198088095Y-132402438D01*
X198421429Y-132354819D02*
X199040476Y-132354819D01*
X199040476Y-132354819D02*
X198707143Y-132735771D01*
X198707143Y-132735771D02*
X198850000Y-132735771D01*
X198850000Y-132735771D02*
X198945238Y-132783390D01*
X198945238Y-132783390D02*
X198992857Y-132831009D01*
X198992857Y-132831009D02*
X199040476Y-132926247D01*
X199040476Y-132926247D02*
X199040476Y-133164342D01*
X199040476Y-133164342D02*
X198992857Y-133259580D01*
X198992857Y-133259580D02*
X198945238Y-133307200D01*
X198945238Y-133307200D02*
X198850000Y-133354819D01*
X198850000Y-133354819D02*
X198564286Y-133354819D01*
X198564286Y-133354819D02*
X198469048Y-133307200D01*
X198469048Y-133307200D02*
X198421429Y-133259580D01*
X115454819Y-66333333D02*
X116169104Y-66333333D01*
X116169104Y-66333333D02*
X116311961Y-66380952D01*
X116311961Y-66380952D02*
X116407200Y-66476190D01*
X116407200Y-66476190D02*
X116454819Y-66619047D01*
X116454819Y-66619047D02*
X116454819Y-66714285D01*
X115454819Y-65380952D02*
X115454819Y-65857142D01*
X115454819Y-65857142D02*
X115931009Y-65904761D01*
X115931009Y-65904761D02*
X115883390Y-65857142D01*
X115883390Y-65857142D02*
X115835771Y-65761904D01*
X115835771Y-65761904D02*
X115835771Y-65523809D01*
X115835771Y-65523809D02*
X115883390Y-65428571D01*
X115883390Y-65428571D02*
X115931009Y-65380952D01*
X115931009Y-65380952D02*
X116026247Y-65333333D01*
X116026247Y-65333333D02*
X116264342Y-65333333D01*
X116264342Y-65333333D02*
X116359580Y-65380952D01*
X116359580Y-65380952D02*
X116407200Y-65428571D01*
X116407200Y-65428571D02*
X116454819Y-65523809D01*
X116454819Y-65523809D02*
X116454819Y-65761904D01*
X116454819Y-65761904D02*
X116407200Y-65857142D01*
X116407200Y-65857142D02*
X116359580Y-65904761D01*
D11*
X157683333Y-83457419D02*
X157207143Y-83457419D01*
X157207143Y-83457419D02*
X157207143Y-82457419D01*
X158540476Y-83457419D02*
X157969048Y-83457419D01*
X158254762Y-83457419D02*
X158254762Y-82457419D01*
X158254762Y-82457419D02*
X158159524Y-82600276D01*
X158159524Y-82600276D02*
X158064286Y-82695514D01*
X158064286Y-82695514D02*
X157969048Y-82743133D01*
D10*
X126229819Y-93247857D02*
X125753628Y-93581190D01*
X126229819Y-93819285D02*
X125229819Y-93819285D01*
X125229819Y-93819285D02*
X125229819Y-93438333D01*
X125229819Y-93438333D02*
X125277438Y-93343095D01*
X125277438Y-93343095D02*
X125325057Y-93295476D01*
X125325057Y-93295476D02*
X125420295Y-93247857D01*
X125420295Y-93247857D02*
X125563152Y-93247857D01*
X125563152Y-93247857D02*
X125658390Y-93295476D01*
X125658390Y-93295476D02*
X125706009Y-93343095D01*
X125706009Y-93343095D02*
X125753628Y-93438333D01*
X125753628Y-93438333D02*
X125753628Y-93819285D01*
X126229819Y-92295476D02*
X126229819Y-92866904D01*
X126229819Y-92581190D02*
X125229819Y-92581190D01*
X125229819Y-92581190D02*
X125372676Y-92676428D01*
X125372676Y-92676428D02*
X125467914Y-92771666D01*
X125467914Y-92771666D02*
X125515533Y-92866904D01*
X125229819Y-91962142D02*
X125229819Y-91343095D01*
X125229819Y-91343095D02*
X125610771Y-91676428D01*
X125610771Y-91676428D02*
X125610771Y-91533571D01*
X125610771Y-91533571D02*
X125658390Y-91438333D01*
X125658390Y-91438333D02*
X125706009Y-91390714D01*
X125706009Y-91390714D02*
X125801247Y-91343095D01*
X125801247Y-91343095D02*
X126039342Y-91343095D01*
X126039342Y-91343095D02*
X126134580Y-91390714D01*
X126134580Y-91390714D02*
X126182200Y-91438333D01*
X126182200Y-91438333D02*
X126229819Y-91533571D01*
X126229819Y-91533571D02*
X126229819Y-91819285D01*
X126229819Y-91819285D02*
X126182200Y-91914523D01*
X126182200Y-91914523D02*
X126134580Y-91962142D01*
X180794819Y-59571904D02*
X181604342Y-59571904D01*
X181604342Y-59571904D02*
X181699580Y-59524285D01*
X181699580Y-59524285D02*
X181747200Y-59476666D01*
X181747200Y-59476666D02*
X181794819Y-59381428D01*
X181794819Y-59381428D02*
X181794819Y-59190952D01*
X181794819Y-59190952D02*
X181747200Y-59095714D01*
X181747200Y-59095714D02*
X181699580Y-59048095D01*
X181699580Y-59048095D02*
X181604342Y-59000476D01*
X181604342Y-59000476D02*
X180794819Y-59000476D01*
X180794819Y-58619523D02*
X180794819Y-58000476D01*
X180794819Y-58000476D02*
X181175771Y-58333809D01*
X181175771Y-58333809D02*
X181175771Y-58190952D01*
X181175771Y-58190952D02*
X181223390Y-58095714D01*
X181223390Y-58095714D02*
X181271009Y-58048095D01*
X181271009Y-58048095D02*
X181366247Y-58000476D01*
X181366247Y-58000476D02*
X181604342Y-58000476D01*
X181604342Y-58000476D02*
X181699580Y-58048095D01*
X181699580Y-58048095D02*
X181747200Y-58095714D01*
X181747200Y-58095714D02*
X181794819Y-58190952D01*
X181794819Y-58190952D02*
X181794819Y-58476666D01*
X181794819Y-58476666D02*
X181747200Y-58571904D01*
X181747200Y-58571904D02*
X181699580Y-58619523D01*
X127309580Y-70537857D02*
X127357200Y-70585476D01*
X127357200Y-70585476D02*
X127404819Y-70728333D01*
X127404819Y-70728333D02*
X127404819Y-70823571D01*
X127404819Y-70823571D02*
X127357200Y-70966428D01*
X127357200Y-70966428D02*
X127261961Y-71061666D01*
X127261961Y-71061666D02*
X127166723Y-71109285D01*
X127166723Y-71109285D02*
X126976247Y-71156904D01*
X126976247Y-71156904D02*
X126833390Y-71156904D01*
X126833390Y-71156904D02*
X126642914Y-71109285D01*
X126642914Y-71109285D02*
X126547676Y-71061666D01*
X126547676Y-71061666D02*
X126452438Y-70966428D01*
X126452438Y-70966428D02*
X126404819Y-70823571D01*
X126404819Y-70823571D02*
X126404819Y-70728333D01*
X126404819Y-70728333D02*
X126452438Y-70585476D01*
X126452438Y-70585476D02*
X126500057Y-70537857D01*
X127404819Y-69585476D02*
X127404819Y-70156904D01*
X127404819Y-69871190D02*
X126404819Y-69871190D01*
X126404819Y-69871190D02*
X126547676Y-69966428D01*
X126547676Y-69966428D02*
X126642914Y-70061666D01*
X126642914Y-70061666D02*
X126690533Y-70156904D01*
X126738152Y-68728333D02*
X127404819Y-68728333D01*
X126357200Y-68966428D02*
X127071485Y-69204523D01*
X127071485Y-69204523D02*
X127071485Y-68585476D01*
X141666666Y-54454819D02*
X141666666Y-55169104D01*
X141666666Y-55169104D02*
X141619047Y-55311961D01*
X141619047Y-55311961D02*
X141523809Y-55407200D01*
X141523809Y-55407200D02*
X141380952Y-55454819D01*
X141380952Y-55454819D02*
X141285714Y-55454819D01*
X142666666Y-55454819D02*
X142095238Y-55454819D01*
X142380952Y-55454819D02*
X142380952Y-54454819D01*
X142380952Y-54454819D02*
X142285714Y-54597676D01*
X142285714Y-54597676D02*
X142190476Y-54692914D01*
X142190476Y-54692914D02*
X142095238Y-54740533D01*
X163959580Y-69686666D02*
X164007200Y-69734285D01*
X164007200Y-69734285D02*
X164054819Y-69877142D01*
X164054819Y-69877142D02*
X164054819Y-69972380D01*
X164054819Y-69972380D02*
X164007200Y-70115237D01*
X164007200Y-70115237D02*
X163911961Y-70210475D01*
X163911961Y-70210475D02*
X163816723Y-70258094D01*
X163816723Y-70258094D02*
X163626247Y-70305713D01*
X163626247Y-70305713D02*
X163483390Y-70305713D01*
X163483390Y-70305713D02*
X163292914Y-70258094D01*
X163292914Y-70258094D02*
X163197676Y-70210475D01*
X163197676Y-70210475D02*
X163102438Y-70115237D01*
X163102438Y-70115237D02*
X163054819Y-69972380D01*
X163054819Y-69972380D02*
X163054819Y-69877142D01*
X163054819Y-69877142D02*
X163102438Y-69734285D01*
X163102438Y-69734285D02*
X163150057Y-69686666D01*
X163483390Y-69115237D02*
X163435771Y-69210475D01*
X163435771Y-69210475D02*
X163388152Y-69258094D01*
X163388152Y-69258094D02*
X163292914Y-69305713D01*
X163292914Y-69305713D02*
X163245295Y-69305713D01*
X163245295Y-69305713D02*
X163150057Y-69258094D01*
X163150057Y-69258094D02*
X163102438Y-69210475D01*
X163102438Y-69210475D02*
X163054819Y-69115237D01*
X163054819Y-69115237D02*
X163054819Y-68924761D01*
X163054819Y-68924761D02*
X163102438Y-68829523D01*
X163102438Y-68829523D02*
X163150057Y-68781904D01*
X163150057Y-68781904D02*
X163245295Y-68734285D01*
X163245295Y-68734285D02*
X163292914Y-68734285D01*
X163292914Y-68734285D02*
X163388152Y-68781904D01*
X163388152Y-68781904D02*
X163435771Y-68829523D01*
X163435771Y-68829523D02*
X163483390Y-68924761D01*
X163483390Y-68924761D02*
X163483390Y-69115237D01*
X163483390Y-69115237D02*
X163531009Y-69210475D01*
X163531009Y-69210475D02*
X163578628Y-69258094D01*
X163578628Y-69258094D02*
X163673866Y-69305713D01*
X163673866Y-69305713D02*
X163864342Y-69305713D01*
X163864342Y-69305713D02*
X163959580Y-69258094D01*
X163959580Y-69258094D02*
X164007200Y-69210475D01*
X164007200Y-69210475D02*
X164054819Y-69115237D01*
X164054819Y-69115237D02*
X164054819Y-68924761D01*
X164054819Y-68924761D02*
X164007200Y-68829523D01*
X164007200Y-68829523D02*
X163959580Y-68781904D01*
X163959580Y-68781904D02*
X163864342Y-68734285D01*
X163864342Y-68734285D02*
X163673866Y-68734285D01*
X163673866Y-68734285D02*
X163578628Y-68781904D01*
X163578628Y-68781904D02*
X163531009Y-68829523D01*
X163531009Y-68829523D02*
X163483390Y-68924761D01*
X135261905Y-60984819D02*
X135261905Y-59984819D01*
X135261905Y-59984819D02*
X135500000Y-59984819D01*
X135500000Y-59984819D02*
X135642857Y-60032438D01*
X135642857Y-60032438D02*
X135738095Y-60127676D01*
X135738095Y-60127676D02*
X135785714Y-60222914D01*
X135785714Y-60222914D02*
X135833333Y-60413390D01*
X135833333Y-60413390D02*
X135833333Y-60556247D01*
X135833333Y-60556247D02*
X135785714Y-60746723D01*
X135785714Y-60746723D02*
X135738095Y-60841961D01*
X135738095Y-60841961D02*
X135642857Y-60937200D01*
X135642857Y-60937200D02*
X135500000Y-60984819D01*
X135500000Y-60984819D02*
X135261905Y-60984819D01*
X136785714Y-60984819D02*
X136214286Y-60984819D01*
X136500000Y-60984819D02*
X136500000Y-59984819D01*
X136500000Y-59984819D02*
X136404762Y-60127676D01*
X136404762Y-60127676D02*
X136309524Y-60222914D01*
X136309524Y-60222914D02*
X136214286Y-60270533D01*
X130658095Y-61354819D02*
X130658095Y-60354819D01*
X131229523Y-61354819D02*
X130800952Y-60783390D01*
X131229523Y-60354819D02*
X130658095Y-60926247D01*
X140040476Y-102031009D02*
X139707143Y-102031009D01*
X139707143Y-102554819D02*
X139707143Y-101554819D01*
X139707143Y-101554819D02*
X140183333Y-101554819D01*
X140516667Y-102507200D02*
X140659524Y-102554819D01*
X140659524Y-102554819D02*
X140897619Y-102554819D01*
X140897619Y-102554819D02*
X140992857Y-102507200D01*
X140992857Y-102507200D02*
X141040476Y-102459580D01*
X141040476Y-102459580D02*
X141088095Y-102364342D01*
X141088095Y-102364342D02*
X141088095Y-102269104D01*
X141088095Y-102269104D02*
X141040476Y-102173866D01*
X141040476Y-102173866D02*
X140992857Y-102126247D01*
X140992857Y-102126247D02*
X140897619Y-102078628D01*
X140897619Y-102078628D02*
X140707143Y-102031009D01*
X140707143Y-102031009D02*
X140611905Y-101983390D01*
X140611905Y-101983390D02*
X140564286Y-101935771D01*
X140564286Y-101935771D02*
X140516667Y-101840533D01*
X140516667Y-101840533D02*
X140516667Y-101745295D01*
X140516667Y-101745295D02*
X140564286Y-101650057D01*
X140564286Y-101650057D02*
X140611905Y-101602438D01*
X140611905Y-101602438D02*
X140707143Y-101554819D01*
X140707143Y-101554819D02*
X140945238Y-101554819D01*
X140945238Y-101554819D02*
X141088095Y-101602438D01*
X141469048Y-101650057D02*
X141516667Y-101602438D01*
X141516667Y-101602438D02*
X141611905Y-101554819D01*
X141611905Y-101554819D02*
X141850000Y-101554819D01*
X141850000Y-101554819D02*
X141945238Y-101602438D01*
X141945238Y-101602438D02*
X141992857Y-101650057D01*
X141992857Y-101650057D02*
X142040476Y-101745295D01*
X142040476Y-101745295D02*
X142040476Y-101840533D01*
X142040476Y-101840533D02*
X141992857Y-101983390D01*
X141992857Y-101983390D02*
X141421429Y-102554819D01*
X141421429Y-102554819D02*
X142040476Y-102554819D01*
D11*
X148683333Y-71362180D02*
X148635714Y-71409800D01*
X148635714Y-71409800D02*
X148492857Y-71457419D01*
X148492857Y-71457419D02*
X148397619Y-71457419D01*
X148397619Y-71457419D02*
X148254762Y-71409800D01*
X148254762Y-71409800D02*
X148159524Y-71314561D01*
X148159524Y-71314561D02*
X148111905Y-71219323D01*
X148111905Y-71219323D02*
X148064286Y-71028847D01*
X148064286Y-71028847D02*
X148064286Y-70885990D01*
X148064286Y-70885990D02*
X148111905Y-70695514D01*
X148111905Y-70695514D02*
X148159524Y-70600276D01*
X148159524Y-70600276D02*
X148254762Y-70505038D01*
X148254762Y-70505038D02*
X148397619Y-70457419D01*
X148397619Y-70457419D02*
X148492857Y-70457419D01*
X148492857Y-70457419D02*
X148635714Y-70505038D01*
X148635714Y-70505038D02*
X148683333Y-70552657D01*
X149540476Y-70790752D02*
X149540476Y-71457419D01*
X149302381Y-70409800D02*
X149064286Y-71124085D01*
X149064286Y-71124085D02*
X149683333Y-71124085D01*
D10*
X112459819Y-94907857D02*
X111983628Y-95241190D01*
X112459819Y-95479285D02*
X111459819Y-95479285D01*
X111459819Y-95479285D02*
X111459819Y-95098333D01*
X111459819Y-95098333D02*
X111507438Y-95003095D01*
X111507438Y-95003095D02*
X111555057Y-94955476D01*
X111555057Y-94955476D02*
X111650295Y-94907857D01*
X111650295Y-94907857D02*
X111793152Y-94907857D01*
X111793152Y-94907857D02*
X111888390Y-94955476D01*
X111888390Y-94955476D02*
X111936009Y-95003095D01*
X111936009Y-95003095D02*
X111983628Y-95098333D01*
X111983628Y-95098333D02*
X111983628Y-95479285D01*
X112459819Y-93955476D02*
X112459819Y-94526904D01*
X112459819Y-94241190D02*
X111459819Y-94241190D01*
X111459819Y-94241190D02*
X111602676Y-94336428D01*
X111602676Y-94336428D02*
X111697914Y-94431666D01*
X111697914Y-94431666D02*
X111745533Y-94526904D01*
X111459819Y-93336428D02*
X111459819Y-93241190D01*
X111459819Y-93241190D02*
X111507438Y-93145952D01*
X111507438Y-93145952D02*
X111555057Y-93098333D01*
X111555057Y-93098333D02*
X111650295Y-93050714D01*
X111650295Y-93050714D02*
X111840771Y-93003095D01*
X111840771Y-93003095D02*
X112078866Y-93003095D01*
X112078866Y-93003095D02*
X112269342Y-93050714D01*
X112269342Y-93050714D02*
X112364580Y-93098333D01*
X112364580Y-93098333D02*
X112412200Y-93145952D01*
X112412200Y-93145952D02*
X112459819Y-93241190D01*
X112459819Y-93241190D02*
X112459819Y-93336428D01*
X112459819Y-93336428D02*
X112412200Y-93431666D01*
X112412200Y-93431666D02*
X112364580Y-93479285D01*
X112364580Y-93479285D02*
X112269342Y-93526904D01*
X112269342Y-93526904D02*
X112078866Y-93574523D01*
X112078866Y-93574523D02*
X111840771Y-93574523D01*
X111840771Y-93574523D02*
X111650295Y-93526904D01*
X111650295Y-93526904D02*
X111555057Y-93479285D01*
X111555057Y-93479285D02*
X111507438Y-93431666D01*
X111507438Y-93431666D02*
X111459819Y-93336428D01*
D11*
X195287819Y-105782142D02*
X195240200Y-105734523D01*
X195240200Y-105734523D02*
X195192580Y-105591666D01*
X195192580Y-105591666D02*
X195192580Y-105496428D01*
X195192580Y-105496428D02*
X195240200Y-105353571D01*
X195240200Y-105353571D02*
X195335438Y-105258333D01*
X195335438Y-105258333D02*
X195430676Y-105210714D01*
X195430676Y-105210714D02*
X195621152Y-105163095D01*
X195621152Y-105163095D02*
X195764009Y-105163095D01*
X195764009Y-105163095D02*
X195954485Y-105210714D01*
X195954485Y-105210714D02*
X196049723Y-105258333D01*
X196049723Y-105258333D02*
X196144961Y-105353571D01*
X196144961Y-105353571D02*
X196192580Y-105496428D01*
X196192580Y-105496428D02*
X196192580Y-105591666D01*
X196192580Y-105591666D02*
X196144961Y-105734523D01*
X196144961Y-105734523D02*
X196097342Y-105782142D01*
X195192580Y-106734523D02*
X195192580Y-106163095D01*
X195192580Y-106448809D02*
X196192580Y-106448809D01*
X196192580Y-106448809D02*
X196049723Y-106353571D01*
X196049723Y-106353571D02*
X195954485Y-106258333D01*
X195954485Y-106258333D02*
X195906866Y-106163095D01*
X196192580Y-107353571D02*
X196192580Y-107448809D01*
X196192580Y-107448809D02*
X196144961Y-107544047D01*
X196144961Y-107544047D02*
X196097342Y-107591666D01*
X196097342Y-107591666D02*
X196002104Y-107639285D01*
X196002104Y-107639285D02*
X195811628Y-107686904D01*
X195811628Y-107686904D02*
X195573533Y-107686904D01*
X195573533Y-107686904D02*
X195383057Y-107639285D01*
X195383057Y-107639285D02*
X195287819Y-107591666D01*
X195287819Y-107591666D02*
X195240200Y-107544047D01*
X195240200Y-107544047D02*
X195192580Y-107448809D01*
X195192580Y-107448809D02*
X195192580Y-107353571D01*
X195192580Y-107353571D02*
X195240200Y-107258333D01*
X195240200Y-107258333D02*
X195287819Y-107210714D01*
X195287819Y-107210714D02*
X195383057Y-107163095D01*
X195383057Y-107163095D02*
X195573533Y-107115476D01*
X195573533Y-107115476D02*
X195811628Y-107115476D01*
X195811628Y-107115476D02*
X196002104Y-107163095D01*
X196002104Y-107163095D02*
X196097342Y-107210714D01*
X196097342Y-107210714D02*
X196144961Y-107258333D01*
X196144961Y-107258333D02*
X196192580Y-107353571D01*
D10*
X148558333Y-51809580D02*
X148510714Y-51857200D01*
X148510714Y-51857200D02*
X148367857Y-51904819D01*
X148367857Y-51904819D02*
X148272619Y-51904819D01*
X148272619Y-51904819D02*
X148129762Y-51857200D01*
X148129762Y-51857200D02*
X148034524Y-51761961D01*
X148034524Y-51761961D02*
X147986905Y-51666723D01*
X147986905Y-51666723D02*
X147939286Y-51476247D01*
X147939286Y-51476247D02*
X147939286Y-51333390D01*
X147939286Y-51333390D02*
X147986905Y-51142914D01*
X147986905Y-51142914D02*
X148034524Y-51047676D01*
X148034524Y-51047676D02*
X148129762Y-50952438D01*
X148129762Y-50952438D02*
X148272619Y-50904819D01*
X148272619Y-50904819D02*
X148367857Y-50904819D01*
X148367857Y-50904819D02*
X148510714Y-50952438D01*
X148510714Y-50952438D02*
X148558333Y-51000057D01*
X148891667Y-50904819D02*
X149510714Y-50904819D01*
X149510714Y-50904819D02*
X149177381Y-51285771D01*
X149177381Y-51285771D02*
X149320238Y-51285771D01*
X149320238Y-51285771D02*
X149415476Y-51333390D01*
X149415476Y-51333390D02*
X149463095Y-51381009D01*
X149463095Y-51381009D02*
X149510714Y-51476247D01*
X149510714Y-51476247D02*
X149510714Y-51714342D01*
X149510714Y-51714342D02*
X149463095Y-51809580D01*
X149463095Y-51809580D02*
X149415476Y-51857200D01*
X149415476Y-51857200D02*
X149320238Y-51904819D01*
X149320238Y-51904819D02*
X149034524Y-51904819D01*
X149034524Y-51904819D02*
X148939286Y-51857200D01*
X148939286Y-51857200D02*
X148891667Y-51809580D01*
X193124104Y-121714285D02*
X193124104Y-121238095D01*
X193409819Y-121809523D02*
X192409819Y-121476190D01*
X192409819Y-121476190D02*
X193409819Y-121142857D01*
X193409819Y-120285714D02*
X193409819Y-120857142D01*
X193409819Y-120571428D02*
X192409819Y-120571428D01*
X192409819Y-120571428D02*
X192552676Y-120666666D01*
X192552676Y-120666666D02*
X192647914Y-120761904D01*
X192647914Y-120761904D02*
X192695533Y-120857142D01*
X129040476Y-108831009D02*
X128707143Y-108831009D01*
X128707143Y-109354819D02*
X128707143Y-108354819D01*
X128707143Y-108354819D02*
X129183333Y-108354819D01*
X129516667Y-109307200D02*
X129659524Y-109354819D01*
X129659524Y-109354819D02*
X129897619Y-109354819D01*
X129897619Y-109354819D02*
X129992857Y-109307200D01*
X129992857Y-109307200D02*
X130040476Y-109259580D01*
X130040476Y-109259580D02*
X130088095Y-109164342D01*
X130088095Y-109164342D02*
X130088095Y-109069104D01*
X130088095Y-109069104D02*
X130040476Y-108973866D01*
X130040476Y-108973866D02*
X129992857Y-108926247D01*
X129992857Y-108926247D02*
X129897619Y-108878628D01*
X129897619Y-108878628D02*
X129707143Y-108831009D01*
X129707143Y-108831009D02*
X129611905Y-108783390D01*
X129611905Y-108783390D02*
X129564286Y-108735771D01*
X129564286Y-108735771D02*
X129516667Y-108640533D01*
X129516667Y-108640533D02*
X129516667Y-108545295D01*
X129516667Y-108545295D02*
X129564286Y-108450057D01*
X129564286Y-108450057D02*
X129611905Y-108402438D01*
X129611905Y-108402438D02*
X129707143Y-108354819D01*
X129707143Y-108354819D02*
X129945238Y-108354819D01*
X129945238Y-108354819D02*
X130088095Y-108402438D01*
X131040476Y-109354819D02*
X130469048Y-109354819D01*
X130754762Y-109354819D02*
X130754762Y-108354819D01*
X130754762Y-108354819D02*
X130659524Y-108497676D01*
X130659524Y-108497676D02*
X130564286Y-108592914D01*
X130564286Y-108592914D02*
X130469048Y-108640533D01*
X123454819Y-72532857D02*
X122978628Y-72866190D01*
X123454819Y-73104285D02*
X122454819Y-73104285D01*
X122454819Y-73104285D02*
X122454819Y-72723333D01*
X122454819Y-72723333D02*
X122502438Y-72628095D01*
X122502438Y-72628095D02*
X122550057Y-72580476D01*
X122550057Y-72580476D02*
X122645295Y-72532857D01*
X122645295Y-72532857D02*
X122788152Y-72532857D01*
X122788152Y-72532857D02*
X122883390Y-72580476D01*
X122883390Y-72580476D02*
X122931009Y-72628095D01*
X122931009Y-72628095D02*
X122978628Y-72723333D01*
X122978628Y-72723333D02*
X122978628Y-73104285D01*
X123454819Y-71580476D02*
X123454819Y-72151904D01*
X123454819Y-71866190D02*
X122454819Y-71866190D01*
X122454819Y-71866190D02*
X122597676Y-71961428D01*
X122597676Y-71961428D02*
X122692914Y-72056666D01*
X122692914Y-72056666D02*
X122740533Y-72151904D01*
X122550057Y-71199523D02*
X122502438Y-71151904D01*
X122502438Y-71151904D02*
X122454819Y-71056666D01*
X122454819Y-71056666D02*
X122454819Y-70818571D01*
X122454819Y-70818571D02*
X122502438Y-70723333D01*
X122502438Y-70723333D02*
X122550057Y-70675714D01*
X122550057Y-70675714D02*
X122645295Y-70628095D01*
X122645295Y-70628095D02*
X122740533Y-70628095D01*
X122740533Y-70628095D02*
X122883390Y-70675714D01*
X122883390Y-70675714D02*
X123454819Y-71247142D01*
X123454819Y-71247142D02*
X123454819Y-70628095D01*
X162683333Y-103609580D02*
X162635714Y-103657200D01*
X162635714Y-103657200D02*
X162492857Y-103704819D01*
X162492857Y-103704819D02*
X162397619Y-103704819D01*
X162397619Y-103704819D02*
X162254762Y-103657200D01*
X162254762Y-103657200D02*
X162159524Y-103561961D01*
X162159524Y-103561961D02*
X162111905Y-103466723D01*
X162111905Y-103466723D02*
X162064286Y-103276247D01*
X162064286Y-103276247D02*
X162064286Y-103133390D01*
X162064286Y-103133390D02*
X162111905Y-102942914D01*
X162111905Y-102942914D02*
X162159524Y-102847676D01*
X162159524Y-102847676D02*
X162254762Y-102752438D01*
X162254762Y-102752438D02*
X162397619Y-102704819D01*
X162397619Y-102704819D02*
X162492857Y-102704819D01*
X162492857Y-102704819D02*
X162635714Y-102752438D01*
X162635714Y-102752438D02*
X162683333Y-102800057D01*
X163540476Y-102704819D02*
X163350000Y-102704819D01*
X163350000Y-102704819D02*
X163254762Y-102752438D01*
X163254762Y-102752438D02*
X163207143Y-102800057D01*
X163207143Y-102800057D02*
X163111905Y-102942914D01*
X163111905Y-102942914D02*
X163064286Y-103133390D01*
X163064286Y-103133390D02*
X163064286Y-103514342D01*
X163064286Y-103514342D02*
X163111905Y-103609580D01*
X163111905Y-103609580D02*
X163159524Y-103657200D01*
X163159524Y-103657200D02*
X163254762Y-103704819D01*
X163254762Y-103704819D02*
X163445238Y-103704819D01*
X163445238Y-103704819D02*
X163540476Y-103657200D01*
X163540476Y-103657200D02*
X163588095Y-103609580D01*
X163588095Y-103609580D02*
X163635714Y-103514342D01*
X163635714Y-103514342D02*
X163635714Y-103276247D01*
X163635714Y-103276247D02*
X163588095Y-103181009D01*
X163588095Y-103181009D02*
X163540476Y-103133390D01*
X163540476Y-103133390D02*
X163445238Y-103085771D01*
X163445238Y-103085771D02*
X163254762Y-103085771D01*
X163254762Y-103085771D02*
X163159524Y-103133390D01*
X163159524Y-103133390D02*
X163111905Y-103181009D01*
X163111905Y-103181009D02*
X163064286Y-103276247D01*
D11*
X181683333Y-103987180D02*
X181635714Y-104034800D01*
X181635714Y-104034800D02*
X181492857Y-104082419D01*
X181492857Y-104082419D02*
X181397619Y-104082419D01*
X181397619Y-104082419D02*
X181254762Y-104034800D01*
X181254762Y-104034800D02*
X181159524Y-103939561D01*
X181159524Y-103939561D02*
X181111905Y-103844323D01*
X181111905Y-103844323D02*
X181064286Y-103653847D01*
X181064286Y-103653847D02*
X181064286Y-103510990D01*
X181064286Y-103510990D02*
X181111905Y-103320514D01*
X181111905Y-103320514D02*
X181159524Y-103225276D01*
X181159524Y-103225276D02*
X181254762Y-103130038D01*
X181254762Y-103130038D02*
X181397619Y-103082419D01*
X181397619Y-103082419D02*
X181492857Y-103082419D01*
X181492857Y-103082419D02*
X181635714Y-103130038D01*
X181635714Y-103130038D02*
X181683333Y-103177657D01*
X182635714Y-104082419D02*
X182064286Y-104082419D01*
X182350000Y-104082419D02*
X182350000Y-103082419D01*
X182350000Y-103082419D02*
X182254762Y-103225276D01*
X182254762Y-103225276D02*
X182159524Y-103320514D01*
X182159524Y-103320514D02*
X182064286Y-103368133D01*
X158183333Y-74362180D02*
X158135714Y-74409800D01*
X158135714Y-74409800D02*
X157992857Y-74457419D01*
X157992857Y-74457419D02*
X157897619Y-74457419D01*
X157897619Y-74457419D02*
X157754762Y-74409800D01*
X157754762Y-74409800D02*
X157659524Y-74314561D01*
X157659524Y-74314561D02*
X157611905Y-74219323D01*
X157611905Y-74219323D02*
X157564286Y-74028847D01*
X157564286Y-74028847D02*
X157564286Y-73885990D01*
X157564286Y-73885990D02*
X157611905Y-73695514D01*
X157611905Y-73695514D02*
X157659524Y-73600276D01*
X157659524Y-73600276D02*
X157754762Y-73505038D01*
X157754762Y-73505038D02*
X157897619Y-73457419D01*
X157897619Y-73457419D02*
X157992857Y-73457419D01*
X157992857Y-73457419D02*
X158135714Y-73505038D01*
X158135714Y-73505038D02*
X158183333Y-73552657D01*
X159135714Y-74457419D02*
X158564286Y-74457419D01*
X158850000Y-74457419D02*
X158850000Y-73457419D01*
X158850000Y-73457419D02*
X158754762Y-73600276D01*
X158754762Y-73600276D02*
X158659524Y-73695514D01*
X158659524Y-73695514D02*
X158564286Y-73743133D01*
D10*
X184674819Y-84166666D02*
X184198628Y-84499999D01*
X184674819Y-84738094D02*
X183674819Y-84738094D01*
X183674819Y-84738094D02*
X183674819Y-84357142D01*
X183674819Y-84357142D02*
X183722438Y-84261904D01*
X183722438Y-84261904D02*
X183770057Y-84214285D01*
X183770057Y-84214285D02*
X183865295Y-84166666D01*
X183865295Y-84166666D02*
X184008152Y-84166666D01*
X184008152Y-84166666D02*
X184103390Y-84214285D01*
X184103390Y-84214285D02*
X184151009Y-84261904D01*
X184151009Y-84261904D02*
X184198628Y-84357142D01*
X184198628Y-84357142D02*
X184198628Y-84738094D01*
X183674819Y-83261904D02*
X183674819Y-83738094D01*
X183674819Y-83738094D02*
X184151009Y-83785713D01*
X184151009Y-83785713D02*
X184103390Y-83738094D01*
X184103390Y-83738094D02*
X184055771Y-83642856D01*
X184055771Y-83642856D02*
X184055771Y-83404761D01*
X184055771Y-83404761D02*
X184103390Y-83309523D01*
X184103390Y-83309523D02*
X184151009Y-83261904D01*
X184151009Y-83261904D02*
X184246247Y-83214285D01*
X184246247Y-83214285D02*
X184484342Y-83214285D01*
X184484342Y-83214285D02*
X184579580Y-83261904D01*
X184579580Y-83261904D02*
X184627200Y-83309523D01*
X184627200Y-83309523D02*
X184674819Y-83404761D01*
X184674819Y-83404761D02*
X184674819Y-83642856D01*
X184674819Y-83642856D02*
X184627200Y-83738094D01*
X184627200Y-83738094D02*
X184579580Y-83785713D01*
X151463095Y-98349819D02*
X151463095Y-99159342D01*
X151463095Y-99159342D02*
X151510714Y-99254580D01*
X151510714Y-99254580D02*
X151558333Y-99302200D01*
X151558333Y-99302200D02*
X151653571Y-99349819D01*
X151653571Y-99349819D02*
X151844047Y-99349819D01*
X151844047Y-99349819D02*
X151939285Y-99302200D01*
X151939285Y-99302200D02*
X151986904Y-99254580D01*
X151986904Y-99254580D02*
X152034523Y-99159342D01*
X152034523Y-99159342D02*
X152034523Y-98349819D01*
X152463095Y-98445057D02*
X152510714Y-98397438D01*
X152510714Y-98397438D02*
X152605952Y-98349819D01*
X152605952Y-98349819D02*
X152844047Y-98349819D01*
X152844047Y-98349819D02*
X152939285Y-98397438D01*
X152939285Y-98397438D02*
X152986904Y-98445057D01*
X152986904Y-98445057D02*
X153034523Y-98540295D01*
X153034523Y-98540295D02*
X153034523Y-98635533D01*
X153034523Y-98635533D02*
X152986904Y-98778390D01*
X152986904Y-98778390D02*
X152415476Y-99349819D01*
X152415476Y-99349819D02*
X153034523Y-99349819D01*
X117384819Y-72532857D02*
X116908628Y-72866190D01*
X117384819Y-73104285D02*
X116384819Y-73104285D01*
X116384819Y-73104285D02*
X116384819Y-72723333D01*
X116384819Y-72723333D02*
X116432438Y-72628095D01*
X116432438Y-72628095D02*
X116480057Y-72580476D01*
X116480057Y-72580476D02*
X116575295Y-72532857D01*
X116575295Y-72532857D02*
X116718152Y-72532857D01*
X116718152Y-72532857D02*
X116813390Y-72580476D01*
X116813390Y-72580476D02*
X116861009Y-72628095D01*
X116861009Y-72628095D02*
X116908628Y-72723333D01*
X116908628Y-72723333D02*
X116908628Y-73104285D01*
X117384819Y-71580476D02*
X117384819Y-72151904D01*
X117384819Y-71866190D02*
X116384819Y-71866190D01*
X116384819Y-71866190D02*
X116527676Y-71961428D01*
X116527676Y-71961428D02*
X116622914Y-72056666D01*
X116622914Y-72056666D02*
X116670533Y-72151904D01*
X117384819Y-70628095D02*
X117384819Y-71199523D01*
X117384819Y-70913809D02*
X116384819Y-70913809D01*
X116384819Y-70913809D02*
X116527676Y-71009047D01*
X116527676Y-71009047D02*
X116622914Y-71104285D01*
X116622914Y-71104285D02*
X116670533Y-71199523D01*
X117934580Y-60017857D02*
X117982200Y-60065476D01*
X117982200Y-60065476D02*
X118029819Y-60208333D01*
X118029819Y-60208333D02*
X118029819Y-60303571D01*
X118029819Y-60303571D02*
X117982200Y-60446428D01*
X117982200Y-60446428D02*
X117886961Y-60541666D01*
X117886961Y-60541666D02*
X117791723Y-60589285D01*
X117791723Y-60589285D02*
X117601247Y-60636904D01*
X117601247Y-60636904D02*
X117458390Y-60636904D01*
X117458390Y-60636904D02*
X117267914Y-60589285D01*
X117267914Y-60589285D02*
X117172676Y-60541666D01*
X117172676Y-60541666D02*
X117077438Y-60446428D01*
X117077438Y-60446428D02*
X117029819Y-60303571D01*
X117029819Y-60303571D02*
X117029819Y-60208333D01*
X117029819Y-60208333D02*
X117077438Y-60065476D01*
X117077438Y-60065476D02*
X117125057Y-60017857D01*
X118029819Y-59065476D02*
X118029819Y-59636904D01*
X118029819Y-59351190D02*
X117029819Y-59351190D01*
X117029819Y-59351190D02*
X117172676Y-59446428D01*
X117172676Y-59446428D02*
X117267914Y-59541666D01*
X117267914Y-59541666D02*
X117315533Y-59636904D01*
X117029819Y-58732142D02*
X117029819Y-58113095D01*
X117029819Y-58113095D02*
X117410771Y-58446428D01*
X117410771Y-58446428D02*
X117410771Y-58303571D01*
X117410771Y-58303571D02*
X117458390Y-58208333D01*
X117458390Y-58208333D02*
X117506009Y-58160714D01*
X117506009Y-58160714D02*
X117601247Y-58113095D01*
X117601247Y-58113095D02*
X117839342Y-58113095D01*
X117839342Y-58113095D02*
X117934580Y-58160714D01*
X117934580Y-58160714D02*
X117982200Y-58208333D01*
X117982200Y-58208333D02*
X118029819Y-58303571D01*
X118029819Y-58303571D02*
X118029819Y-58589285D01*
X118029819Y-58589285D02*
X117982200Y-58684523D01*
X117982200Y-58684523D02*
X117934580Y-58732142D01*
%TO.C,R7*%
D12*
X117030000Y-81055000D02*
X117360000Y-81055000D01*
X117030000Y-87595000D02*
X117030000Y-81055000D01*
X117360000Y-87595000D02*
X117030000Y-87595000D01*
X119440000Y-87595000D02*
X119770000Y-87595000D01*
X119770000Y-81055000D02*
X119440000Y-81055000D01*
X119770000Y-87595000D02*
X119770000Y-81055000D01*
%TO.C,C7*%
X155230000Y-55280000D02*
X158470000Y-55280000D01*
X155230000Y-62720000D02*
X155230000Y-55280000D01*
X158470000Y-55280000D02*
X158470000Y-62720000D01*
X158470000Y-62720000D02*
X155230000Y-62720000D01*
%TO.C,R2*%
X187305000Y-56730000D02*
X187305000Y-63270000D01*
X187305000Y-63270000D02*
X187635000Y-63270000D01*
X187635000Y-56730000D02*
X187305000Y-56730000D01*
X189715000Y-56730000D02*
X190045000Y-56730000D01*
X190045000Y-56730000D02*
X190045000Y-63270000D01*
X190045000Y-63270000D02*
X189715000Y-63270000D01*
%TO.C,J_LCD1*%
X110490000Y-113940000D02*
X110490000Y-132060000D01*
X110490000Y-116500000D02*
X114850000Y-116500000D01*
X110490000Y-132060000D02*
X118310000Y-132060000D01*
X112750000Y-115200000D02*
X110490000Y-115200000D01*
X112750000Y-115700000D02*
X110490000Y-115700000D01*
X114850000Y-116500000D02*
X114850000Y-129500000D01*
X114850000Y-129500000D02*
X110490000Y-129500000D01*
X116710000Y-113940000D02*
X116710000Y-114860000D01*
X116710000Y-114860000D02*
X118310000Y-114860000D01*
X116710000Y-115140000D02*
X116710000Y-114860000D01*
X116710000Y-115140000D02*
X117925000Y-115140000D01*
X116710000Y-131140000D02*
X116710000Y-130860000D01*
X116710000Y-132060000D02*
X116710000Y-131140000D01*
X118310000Y-113940000D02*
X110490000Y-113940000D01*
X118310000Y-114860000D02*
X118310000Y-113940000D01*
X118310000Y-131140000D02*
X116710000Y-131140000D01*
X118310000Y-132060000D02*
X118310000Y-131140000D01*
X112750000Y-114700000D02*
X114350000Y-114700000D01*
X114350000Y-115700000D01*
X112750000Y-115700000D01*
X112750000Y-114700000D01*
X112750000Y-130300000D02*
X114350000Y-130300000D01*
X114350000Y-131300000D01*
X112750000Y-131300000D01*
X112750000Y-130300000D01*
%TO.C,C12*%
D11*
X110625000Y-81975000D02*
X111625000Y-81975000D01*
X110625000Y-87475000D02*
X110625000Y-81975000D01*
X110625000Y-87475000D02*
X111625000Y-87475000D01*
X114625000Y-81975000D02*
X113625000Y-81975000D01*
X114625000Y-81975000D02*
X114625000Y-87475000D01*
X114625000Y-87475000D02*
X113625000Y-87475000D01*
%TO.C,C16*%
X138195000Y-91290000D02*
X139195000Y-91290000D01*
X138195000Y-96790000D02*
X138195000Y-91290000D01*
X138195000Y-96790000D02*
X139195000Y-96790000D01*
X142195000Y-91290000D02*
X141195000Y-91290000D01*
X142195000Y-91290000D02*
X142195000Y-96790000D01*
X142195000Y-96790000D02*
X141195000Y-96790000D01*
%TO.C,R8*%
D12*
X121080000Y-81055000D02*
X121410000Y-81055000D01*
X121080000Y-87595000D02*
X121080000Y-81055000D01*
X121410000Y-87595000D02*
X121080000Y-87595000D01*
X123490000Y-87595000D02*
X123820000Y-87595000D01*
X123820000Y-81055000D02*
X123490000Y-81055000D01*
X123820000Y-87595000D02*
X123820000Y-81055000D01*
%TO.C,R6*%
X180480000Y-69540000D02*
X180480000Y-76080000D01*
X180480000Y-76080000D02*
X180810000Y-76080000D01*
X180810000Y-69540000D02*
X180480000Y-69540000D01*
X182890000Y-69540000D02*
X183220000Y-69540000D01*
X183220000Y-69540000D02*
X183220000Y-76080000D01*
X183220000Y-76080000D02*
X182890000Y-76080000D01*
%TO.C,R9*%
X113480000Y-101730000D02*
X113810000Y-101730000D01*
X113480000Y-108270000D02*
X113480000Y-101730000D01*
X113810000Y-108270000D02*
X113480000Y-108270000D01*
X115890000Y-108270000D02*
X116220000Y-108270000D01*
X116220000Y-101730000D02*
X115890000Y-101730000D01*
X116220000Y-108270000D02*
X116220000Y-101730000D01*
%TO.C,U1*%
X145160000Y-86500000D02*
X148760000Y-86500000D01*
X144603600Y-83551193D02*
G75*
G02*
X146960000Y-82050000I2356400J-1098807D01*
G01*
X145160000Y-86500000D02*
G75*
G02*
X144635816Y-85772795I1800000J1850000D01*
G01*
X146960000Y-82050000D02*
G75*
G02*
X149316400Y-83551193I0J-2600000D01*
G01*
X149284184Y-85772795D02*
G75*
G02*
X148760000Y-86500000I-2324184J1122795D01*
G01*
%TO.C,C2*%
X144730000Y-58155000D02*
X152170000Y-58155000D01*
X144730000Y-61395000D02*
X144730000Y-58155000D01*
X152170000Y-58155000D02*
X152170000Y-61395000D01*
X152170000Y-61395000D02*
X144730000Y-61395000D01*
%TO.C,C9*%
D11*
X197975000Y-103750000D02*
X198975000Y-103750000D01*
X197975000Y-109250000D02*
X197975000Y-103750000D01*
X197975000Y-109250000D02*
X198975000Y-109250000D01*
X201975000Y-103750000D02*
X200975000Y-103750000D01*
X201975000Y-103750000D02*
X201975000Y-109250000D01*
X201975000Y-109250000D02*
X200975000Y-109250000D01*
%TO.C,R3*%
D12*
X183030000Y-57540000D02*
X183030000Y-64080000D01*
X183030000Y-64080000D02*
X183360000Y-64080000D01*
X183360000Y-57540000D02*
X183030000Y-57540000D01*
X185440000Y-57540000D02*
X185770000Y-57540000D01*
X185770000Y-57540000D02*
X185770000Y-64080000D01*
X185770000Y-64080000D02*
X185440000Y-64080000D01*
%TO.C,U4*%
X126710000Y-77540000D02*
X126710000Y-79190000D01*
X126710000Y-81190000D02*
X126710000Y-82840000D01*
X126710000Y-82840000D02*
X136990000Y-82840000D01*
X136990000Y-77540000D02*
X126710000Y-77540000D01*
X136990000Y-82840000D02*
X136990000Y-77540000D01*
X126710000Y-79190000D02*
G75*
G02*
X126710000Y-81190000I0J-1000000D01*
G01*
%TO.C,SW4*%
D10*
X185950000Y-85940000D02*
X188800000Y-85940000D01*
X185950000Y-90015000D02*
X185950000Y-85940000D01*
X185950000Y-99840000D02*
X185950000Y-95765000D01*
X185950000Y-99840000D02*
X188800000Y-99840000D01*
X191100000Y-85940000D02*
X193800000Y-85940000D01*
X191100000Y-99840000D02*
X191300000Y-99840000D01*
X193600000Y-99840000D02*
X193800000Y-99840000D01*
X196100000Y-85940000D02*
X198950000Y-85940000D01*
X196100000Y-99840000D02*
X198950000Y-99840000D01*
X198950000Y-90015000D02*
X198950000Y-85940000D01*
X198950000Y-99840000D02*
X198950000Y-95765000D01*
D13*
X187975000Y-100590000D02*
G75*
G02*
X187725000Y-100590000I-125000J0D01*
G01*
X187725000Y-100590000D02*
G75*
G02*
X187975000Y-100590000I125000J0D01*
G01*
%TO.C,R4*%
D12*
X180480000Y-91730000D02*
X180480000Y-98270000D01*
X180480000Y-98270000D02*
X180810000Y-98270000D01*
X180810000Y-91730000D02*
X180480000Y-91730000D01*
X182890000Y-91730000D02*
X183220000Y-91730000D01*
X183220000Y-91730000D02*
X183220000Y-98270000D01*
X183220000Y-98270000D02*
X182890000Y-98270000D01*
%TO.C,R14*%
X130825000Y-89335000D02*
X131155000Y-89335000D01*
X130825000Y-95875000D02*
X130825000Y-89335000D01*
X131155000Y-95875000D02*
X130825000Y-95875000D01*
X133235000Y-95875000D02*
X133565000Y-95875000D01*
X133565000Y-89335000D02*
X133235000Y-89335000D01*
X133565000Y-95875000D02*
X133565000Y-89335000D01*
%TO.C,C15*%
D11*
X119850000Y-92250000D02*
X120850000Y-92250000D01*
X119850000Y-97750000D02*
X119850000Y-92250000D01*
X119850000Y-97750000D02*
X120850000Y-97750000D01*
X123850000Y-92250000D02*
X122850000Y-92250000D01*
X123850000Y-92250000D02*
X123850000Y-97750000D01*
X123850000Y-97750000D02*
X122850000Y-97750000D01*
%TO.C,R1*%
D12*
X191430000Y-56540000D02*
X191430000Y-63080000D01*
X191430000Y-63080000D02*
X191760000Y-63080000D01*
X191760000Y-56540000D02*
X191430000Y-56540000D01*
X193840000Y-56540000D02*
X194170000Y-56540000D01*
X194170000Y-56540000D02*
X194170000Y-63080000D01*
X194170000Y-63080000D02*
X193840000Y-63080000D01*
%TO.C,J4*%
X198275000Y-57550000D02*
X198275000Y-64450000D01*
X198275000Y-59900000D02*
X198775000Y-59900000D01*
X198275000Y-60000000D02*
X198775000Y-60000000D01*
X198275000Y-61900000D02*
X198775000Y-61900000D01*
X198275000Y-62000000D02*
X198775000Y-62000000D01*
X198275000Y-64450000D02*
X201775000Y-64450000D01*
X198775000Y-59900000D02*
X198775000Y-60100000D01*
X198775000Y-60100000D02*
X198275000Y-60100000D01*
X198775000Y-61900000D02*
X198775000Y-62100000D01*
X198775000Y-62100000D02*
X198275000Y-62100000D01*
X199775000Y-56940000D02*
X199775000Y-57550000D01*
X199775000Y-65060000D02*
X199775000Y-64450000D01*
X201075000Y-56940000D02*
X201075000Y-57550000D01*
X201075000Y-65060000D02*
X201075000Y-64450000D01*
X201775000Y-57550000D02*
X198275000Y-57550000D01*
X201775000Y-59500000D02*
X201775000Y-57550000D01*
X201775000Y-62500000D02*
X202385000Y-62500000D01*
X201775000Y-64450000D02*
X201775000Y-62500000D01*
X202385000Y-58700000D02*
X202585000Y-58700000D01*
X202385000Y-59500000D02*
X201775000Y-59500000D01*
X202485000Y-58700000D02*
X202485000Y-58400000D01*
X202585000Y-58400000D02*
X202385000Y-58400000D01*
X202585000Y-58700000D02*
X202585000Y-58400000D01*
X202685000Y-56640000D02*
X201435000Y-56640000D01*
X202685000Y-57890000D02*
X202685000Y-56640000D01*
X197665000Y-56940000D02*
X202385000Y-56940000D01*
X202385000Y-65060000D01*
X197665000Y-65060000D01*
X197665000Y-56940000D01*
%TO.C,C11*%
D11*
X110850000Y-73575000D02*
X111850000Y-73575000D01*
X110850000Y-79075000D02*
X110850000Y-73575000D01*
X110850000Y-79075000D02*
X111850000Y-79075000D01*
X114850000Y-73575000D02*
X113850000Y-73575000D01*
X114850000Y-73575000D02*
X114850000Y-79075000D01*
X114850000Y-79075000D02*
X113850000Y-79075000D01*
%TO.C,R21*%
D12*
X161247936Y-97365000D02*
X161702064Y-97365000D01*
X161247936Y-98835000D02*
X161702064Y-98835000D01*
%TO.C,C5*%
D11*
X137100000Y-68000000D02*
X137100000Y-69000000D01*
X137100000Y-68000000D02*
X142600000Y-68000000D01*
X137100000Y-72000000D02*
X137100000Y-71000000D01*
X142600000Y-68000000D02*
X142600000Y-69000000D01*
X142600000Y-72000000D02*
X137100000Y-72000000D01*
X142600000Y-72000000D02*
X142600000Y-71000000D01*
%TO.C,SW1*%
D10*
X164350000Y-67050000D02*
X167200000Y-67050000D01*
X164350000Y-71125000D02*
X164350000Y-67050000D01*
X164350000Y-80950000D02*
X164350000Y-76875000D01*
X164350000Y-80950000D02*
X167200000Y-80950000D01*
X169500000Y-67050000D02*
X172200000Y-67050000D01*
X169500000Y-80950000D02*
X169700000Y-80950000D01*
X172000000Y-80950000D02*
X172200000Y-80950000D01*
X174500000Y-67050000D02*
X177350000Y-67050000D01*
X174500000Y-80950000D02*
X177350000Y-80950000D01*
X177350000Y-71125000D02*
X177350000Y-67050000D01*
X177350000Y-80950000D02*
X177350000Y-76875000D01*
D13*
X166375000Y-81700000D02*
G75*
G02*
X166125000Y-81700000I-125000J0D01*
G01*
X166125000Y-81700000D02*
G75*
G02*
X166375000Y-81700000I125000J0D01*
G01*
%TO.C,FS3*%
D12*
X194790000Y-129200000D02*
X195400000Y-129200000D01*
X194790000Y-130500000D02*
X195400000Y-130500000D01*
X195400000Y-127700000D02*
X195400000Y-131200000D01*
X195400000Y-131200000D02*
X197350000Y-131200000D01*
X197350000Y-131200000D02*
X197350000Y-131810000D01*
X197750000Y-128200000D02*
X197750000Y-127700000D01*
X197850000Y-127700000D02*
X197850000Y-128200000D01*
X197950000Y-127700000D02*
X197950000Y-128200000D01*
X197950000Y-128200000D02*
X197750000Y-128200000D01*
X198350000Y-131200000D02*
X200300000Y-131200000D01*
X198350000Y-131810000D02*
X198350000Y-131200000D01*
X199150000Y-131810000D02*
X199150000Y-132010000D01*
X199150000Y-131910000D02*
X199450000Y-131910000D01*
X199150000Y-132010000D02*
X199450000Y-132010000D01*
X199450000Y-132010000D02*
X199450000Y-131810000D01*
X199960000Y-132110000D02*
X201210000Y-132110000D01*
X200300000Y-127700000D02*
X195400000Y-127700000D01*
X200300000Y-131200000D02*
X200300000Y-127700000D01*
X200910000Y-129200000D02*
X200300000Y-129200000D01*
X200910000Y-130500000D02*
X200300000Y-130500000D01*
X201210000Y-132110000D02*
X201210000Y-130860000D01*
X194790000Y-127090000D02*
X200910000Y-127090000D01*
X200910000Y-131810000D01*
X194790000Y-131810000D01*
X194790000Y-127090000D01*
%TO.C,J5*%
X109740000Y-69110000D02*
X109740000Y-70360000D01*
X109740000Y-70360000D02*
X110990000Y-70360000D01*
X109840000Y-68300000D02*
X109840000Y-68600000D01*
X109840000Y-68600000D02*
X110040000Y-68600000D01*
X109940000Y-68300000D02*
X109940000Y-68600000D01*
X110040000Y-67500000D02*
X110650000Y-67500000D01*
X110040000Y-68300000D02*
X109840000Y-68300000D01*
X110650000Y-62550000D02*
X110650000Y-64500000D01*
X110650000Y-64500000D02*
X110040000Y-64500000D01*
X110650000Y-67500000D02*
X110650000Y-69450000D01*
X110650000Y-69450000D02*
X114150000Y-69450000D01*
X111350000Y-61940000D02*
X111350000Y-62550000D01*
X111350000Y-70060000D02*
X111350000Y-69450000D01*
X112650000Y-61940000D02*
X112650000Y-62550000D01*
X112650000Y-70060000D02*
X112650000Y-69450000D01*
X113650000Y-64900000D02*
X114150000Y-64900000D01*
X113650000Y-65100000D02*
X113650000Y-64900000D01*
X113650000Y-66900000D02*
X114150000Y-66900000D01*
X113650000Y-67100000D02*
X113650000Y-66900000D01*
X114150000Y-62550000D02*
X110650000Y-62550000D01*
X114150000Y-65000000D02*
X113650000Y-65000000D01*
X114150000Y-65100000D02*
X113650000Y-65100000D01*
X114150000Y-67000000D02*
X113650000Y-67000000D01*
X114150000Y-67100000D02*
X113650000Y-67100000D01*
X114150000Y-69450000D02*
X114150000Y-62550000D01*
X110040000Y-61940000D02*
X114760000Y-61940000D01*
X114760000Y-70060000D01*
X110040000Y-70060000D01*
X110040000Y-61940000D01*
%TO.C,L1*%
D11*
X162200000Y-86000000D02*
G75*
G02*
X153500000Y-86000000I-4350000J0D01*
G01*
X153500000Y-86000000D02*
G75*
G02*
X162200000Y-86000000I4350000J0D01*
G01*
%TO.C,R13*%
D12*
X126775000Y-89335000D02*
X127105000Y-89335000D01*
X126775000Y-95875000D02*
X126775000Y-89335000D01*
X127105000Y-95875000D02*
X126775000Y-95875000D01*
X129185000Y-95875000D02*
X129515000Y-95875000D01*
X129515000Y-89335000D02*
X129185000Y-89335000D01*
X129515000Y-95875000D02*
X129515000Y-89335000D01*
%TO.C,U3*%
X162440000Y-56160000D02*
X162440000Y-61460000D01*
X162440000Y-61460000D02*
X180340000Y-61460000D01*
X180340000Y-56160000D02*
X162440000Y-56160000D01*
X180340000Y-57810000D02*
X180340000Y-56160000D01*
X180340000Y-61460000D02*
X180340000Y-59810000D01*
X180340000Y-59810000D02*
G75*
G02*
X180340000Y-57810000I0J1000000D01*
G01*
%TO.C,C14*%
X128080000Y-66175000D02*
X131320000Y-66175000D01*
X128080000Y-73615000D02*
X128080000Y-66175000D01*
X131320000Y-66175000D02*
X131320000Y-73615000D01*
X131320000Y-73615000D02*
X128080000Y-73615000D01*
%TO.C,J1*%
X132490000Y-52890000D02*
X132490000Y-54140000D01*
X132790000Y-54500000D02*
X133400000Y-54500000D01*
X132790000Y-55800000D02*
X133400000Y-55800000D01*
X133400000Y-53800000D02*
X133400000Y-57300000D01*
X133400000Y-57300000D02*
X140300000Y-57300000D01*
X133740000Y-52890000D02*
X132490000Y-52890000D01*
X134250000Y-52990000D02*
X134250000Y-53190000D01*
X134550000Y-52990000D02*
X134250000Y-52990000D01*
X134550000Y-53090000D02*
X134250000Y-53090000D01*
X134550000Y-53190000D02*
X134550000Y-52990000D01*
X135350000Y-53190000D02*
X135350000Y-53800000D01*
X135350000Y-53800000D02*
X133400000Y-53800000D01*
X135750000Y-56800000D02*
X135950000Y-56800000D01*
X135750000Y-57300000D02*
X135750000Y-56800000D01*
X135850000Y-57300000D02*
X135850000Y-56800000D01*
X135950000Y-56800000D02*
X135950000Y-57300000D01*
X137750000Y-56800000D02*
X137950000Y-56800000D01*
X137750000Y-57300000D02*
X137750000Y-56800000D01*
X137850000Y-57300000D02*
X137850000Y-56800000D01*
X137950000Y-56800000D02*
X137950000Y-57300000D01*
X138350000Y-53800000D02*
X138350000Y-53190000D01*
X140300000Y-53800000D02*
X138350000Y-53800000D01*
X140300000Y-57300000D02*
X140300000Y-53800000D01*
X140910000Y-54500000D02*
X140300000Y-54500000D01*
X140910000Y-55800000D02*
X140300000Y-55800000D01*
X132790000Y-53190000D02*
X140910000Y-53190000D01*
X140910000Y-57910000D01*
X132790000Y-57910000D01*
X132790000Y-53190000D01*
%TO.C,C8*%
X159230000Y-65800000D02*
X162470000Y-65800000D01*
X159230000Y-73240000D02*
X159230000Y-65800000D01*
X162470000Y-65800000D02*
X162470000Y-73240000D01*
X162470000Y-73240000D02*
X159230000Y-73240000D01*
%TO.C,D1*%
X132260000Y-63000000D02*
X133280000Y-63000000D01*
X134060000Y-61530000D02*
X134060000Y-64470000D01*
X134180000Y-61530000D02*
X134180000Y-64470000D01*
X134300000Y-61530000D02*
X134300000Y-64470000D01*
X139740000Y-63000000D02*
X138720000Y-63000000D01*
X133280000Y-61530000D02*
X138720000Y-61530000D01*
X138720000Y-64470000D01*
X133280000Y-64470000D01*
X133280000Y-61530000D01*
%TO.C,FS2*%
X137490000Y-102890000D02*
X137490000Y-104140000D01*
X137790000Y-104500000D02*
X138400000Y-104500000D01*
X137790000Y-105800000D02*
X138400000Y-105800000D01*
X138400000Y-103800000D02*
X138400000Y-107300000D01*
X138400000Y-107300000D02*
X143300000Y-107300000D01*
X138740000Y-102890000D02*
X137490000Y-102890000D01*
X139250000Y-102990000D02*
X139250000Y-103190000D01*
X139550000Y-102990000D02*
X139250000Y-102990000D01*
X139550000Y-103090000D02*
X139250000Y-103090000D01*
X139550000Y-103190000D02*
X139550000Y-102990000D01*
X140350000Y-103190000D02*
X140350000Y-103800000D01*
X140350000Y-103800000D02*
X138400000Y-103800000D01*
X140750000Y-106800000D02*
X140950000Y-106800000D01*
X140750000Y-107300000D02*
X140750000Y-106800000D01*
X140850000Y-107300000D02*
X140850000Y-106800000D01*
X140950000Y-106800000D02*
X140950000Y-107300000D01*
X141350000Y-103800000D02*
X141350000Y-103190000D01*
X143300000Y-103800000D02*
X141350000Y-103800000D01*
X143300000Y-107300000D02*
X143300000Y-103800000D01*
X143910000Y-104500000D02*
X143300000Y-104500000D01*
X143910000Y-105800000D02*
X143300000Y-105800000D01*
X137790000Y-103190000D02*
X143910000Y-103190000D01*
X143910000Y-107910000D01*
X137790000Y-107910000D01*
X137790000Y-103190000D01*
%TO.C,C4*%
D11*
X146100000Y-72000000D02*
X146100000Y-73000000D01*
X146100000Y-72000000D02*
X151600000Y-72000000D01*
X146100000Y-76000000D02*
X146100000Y-75000000D01*
X151600000Y-72000000D02*
X151600000Y-73000000D01*
X151600000Y-76000000D02*
X146100000Y-76000000D01*
X151600000Y-76000000D02*
X151600000Y-75000000D01*
%TO.C,R10*%
D12*
X113005000Y-90995000D02*
X113335000Y-90995000D01*
X113005000Y-97535000D02*
X113005000Y-90995000D01*
X113335000Y-97535000D02*
X113005000Y-97535000D01*
X115415000Y-97535000D02*
X115745000Y-97535000D01*
X115745000Y-90995000D02*
X115415000Y-90995000D01*
X115745000Y-97535000D02*
X115745000Y-90995000D01*
%TO.C,C10*%
D11*
X190850000Y-103750000D02*
X191850000Y-103750000D01*
X190850000Y-109250000D02*
X190850000Y-103750000D01*
X190850000Y-109250000D02*
X191850000Y-109250000D01*
X194850000Y-103750000D02*
X193850000Y-103750000D01*
X194850000Y-103750000D02*
X194850000Y-109250000D01*
X194850000Y-109250000D02*
X193850000Y-109250000D01*
%TO.C,C3*%
D12*
X145005000Y-52580000D02*
X152445000Y-52580000D01*
X145005000Y-55820000D02*
X145005000Y-52580000D01*
X152445000Y-52580000D02*
X152445000Y-55820000D01*
X152445000Y-55820000D02*
X145005000Y-55820000D01*
%TO.C,A1*%
X139755000Y-112100000D02*
X190755000Y-112100000D01*
X139755000Y-129900000D02*
X139755000Y-112100000D01*
X190755000Y-112100000D02*
X190755000Y-129900000D01*
X190755000Y-114580000D02*
X139755000Y-114580000D01*
X190755000Y-117000000D02*
X191955000Y-117000000D01*
X190755000Y-127380000D02*
X139755000Y-127380000D01*
X190755000Y-129900000D02*
X139755000Y-129900000D01*
X191055000Y-111800000D02*
X188655000Y-111800000D01*
X191055000Y-114100000D02*
X191055000Y-111800000D01*
X191955000Y-117000000D02*
X191955000Y-125000000D01*
X191955000Y-125000000D02*
X190755000Y-125000000D01*
%TO.C,FS1*%
X126790000Y-105200000D02*
X127400000Y-105200000D01*
X126790000Y-106500000D02*
X127400000Y-106500000D01*
X127400000Y-103700000D02*
X127400000Y-107200000D01*
X127400000Y-107200000D02*
X129350000Y-107200000D01*
X129350000Y-107200000D02*
X129350000Y-107810000D01*
X129750000Y-104200000D02*
X129750000Y-103700000D01*
X129850000Y-103700000D02*
X129850000Y-104200000D01*
X129950000Y-103700000D02*
X129950000Y-104200000D01*
X129950000Y-104200000D02*
X129750000Y-104200000D01*
X130350000Y-107200000D02*
X132300000Y-107200000D01*
X130350000Y-107810000D02*
X130350000Y-107200000D01*
X131150000Y-107810000D02*
X131150000Y-108010000D01*
X131150000Y-107910000D02*
X131450000Y-107910000D01*
X131150000Y-108010000D02*
X131450000Y-108010000D01*
X131450000Y-108010000D02*
X131450000Y-107810000D01*
X131960000Y-108110000D02*
X133210000Y-108110000D01*
X132300000Y-103700000D02*
X127400000Y-103700000D01*
X132300000Y-107200000D02*
X132300000Y-103700000D01*
X132910000Y-105200000D02*
X132300000Y-105200000D01*
X132910000Y-106500000D02*
X132300000Y-106500000D01*
X133210000Y-108110000D02*
X133210000Y-106860000D01*
X126790000Y-103090000D02*
X132910000Y-103090000D01*
X132910000Y-107810000D01*
X126790000Y-107810000D01*
X126790000Y-103090000D01*
%TO.C,R12*%
X121980000Y-68620000D02*
X122310000Y-68620000D01*
X121980000Y-75160000D02*
X121980000Y-68620000D01*
X122310000Y-75160000D02*
X121980000Y-75160000D01*
X124390000Y-75160000D02*
X124720000Y-75160000D01*
X124720000Y-68620000D02*
X124390000Y-68620000D01*
X124720000Y-75160000D02*
X124720000Y-68620000D01*
%TO.C,C6*%
X160045225Y-105525000D02*
X160545225Y-105525000D01*
X160295225Y-105275000D02*
X160295225Y-105775000D01*
X162850000Y-104420000D02*
X162850000Y-105960000D01*
X162850000Y-108040000D02*
X162850000Y-109580000D01*
X162890000Y-104420000D02*
X162890000Y-105960000D01*
X162890000Y-108040000D02*
X162890000Y-109580000D01*
X162930000Y-104421000D02*
X162930000Y-105960000D01*
X162930000Y-108040000D02*
X162930000Y-109579000D01*
X162970000Y-104423000D02*
X162970000Y-105960000D01*
X162970000Y-108040000D02*
X162970000Y-109577000D01*
X163010000Y-104425000D02*
X163010000Y-105960000D01*
X163010000Y-108040000D02*
X163010000Y-109575000D01*
X163050000Y-104428000D02*
X163050000Y-105960000D01*
X163050000Y-108040000D02*
X163050000Y-109572000D01*
X163090000Y-104431000D02*
X163090000Y-105960000D01*
X163090000Y-108040000D02*
X163090000Y-109569000D01*
X163130000Y-104435000D02*
X163130000Y-105960000D01*
X163130000Y-108040000D02*
X163130000Y-109565000D01*
X163170000Y-104440000D02*
X163170000Y-105960000D01*
X163170000Y-108040000D02*
X163170000Y-109560000D01*
X163210000Y-104445000D02*
X163210000Y-105960000D01*
X163210000Y-108040000D02*
X163210000Y-109555000D01*
X163250000Y-104451000D02*
X163250000Y-105960000D01*
X163250000Y-108040000D02*
X163250000Y-109549000D01*
X163290000Y-104457000D02*
X163290000Y-105960000D01*
X163290000Y-108040000D02*
X163290000Y-109543000D01*
X163330000Y-104464000D02*
X163330000Y-105960000D01*
X163330000Y-108040000D02*
X163330000Y-109536000D01*
X163370000Y-104472000D02*
X163370000Y-105960000D01*
X163370000Y-108040000D02*
X163370000Y-109528000D01*
X163410000Y-104481000D02*
X163410000Y-105960000D01*
X163410000Y-108040000D02*
X163410000Y-109519000D01*
X163450000Y-104490000D02*
X163450000Y-105960000D01*
X163450000Y-108040000D02*
X163450000Y-109510000D01*
X163490000Y-104499000D02*
X163490000Y-105960000D01*
X163490000Y-108040000D02*
X163490000Y-109501000D01*
X163530000Y-104510000D02*
X163530000Y-105960000D01*
X163530000Y-108040000D02*
X163530000Y-109490000D01*
X163570000Y-104521000D02*
X163570000Y-105960000D01*
X163570000Y-108040000D02*
X163570000Y-109479000D01*
X163610000Y-104533000D02*
X163610000Y-105960000D01*
X163610000Y-108040000D02*
X163610000Y-109467000D01*
X163650000Y-104545000D02*
X163650000Y-105960000D01*
X163650000Y-108040000D02*
X163650000Y-109455000D01*
X163690000Y-104558000D02*
X163690000Y-105960000D01*
X163690000Y-108040000D02*
X163690000Y-109442000D01*
X163730000Y-104572000D02*
X163730000Y-105960000D01*
X163730000Y-108040000D02*
X163730000Y-109428000D01*
X163770000Y-104587000D02*
X163770000Y-105960000D01*
X163770000Y-108040000D02*
X163770000Y-109413000D01*
X163810000Y-104602000D02*
X163810000Y-105960000D01*
X163810000Y-108040000D02*
X163810000Y-109398000D01*
X163850000Y-104618000D02*
X163850000Y-105960000D01*
X163850000Y-108040000D02*
X163850000Y-109382000D01*
X163890000Y-104635000D02*
X163890000Y-105960000D01*
X163890000Y-108040000D02*
X163890000Y-109365000D01*
X163930000Y-104653000D02*
X163930000Y-105960000D01*
X163930000Y-108040000D02*
X163930000Y-109347000D01*
X163970000Y-104671000D02*
X163970000Y-105960000D01*
X163970000Y-108040000D02*
X163970000Y-109329000D01*
X164010000Y-104691000D02*
X164010000Y-105960000D01*
X164010000Y-108040000D02*
X164010000Y-109309000D01*
X164050000Y-104711000D02*
X164050000Y-105960000D01*
X164050000Y-108040000D02*
X164050000Y-109289000D01*
X164090000Y-104732000D02*
X164090000Y-105960000D01*
X164090000Y-108040000D02*
X164090000Y-109268000D01*
X164130000Y-104754000D02*
X164130000Y-105960000D01*
X164130000Y-108040000D02*
X164130000Y-109246000D01*
X164170000Y-104777000D02*
X164170000Y-105960000D01*
X164170000Y-108040000D02*
X164170000Y-109223000D01*
X164210000Y-104801000D02*
X164210000Y-105960000D01*
X164210000Y-108040000D02*
X164210000Y-109199000D01*
X164250000Y-104825000D02*
X164250000Y-105960000D01*
X164250000Y-108040000D02*
X164250000Y-109175000D01*
X164290000Y-104851000D02*
X164290000Y-105960000D01*
X164290000Y-108040000D02*
X164290000Y-109149000D01*
X164330000Y-104878000D02*
X164330000Y-105960000D01*
X164330000Y-108040000D02*
X164330000Y-109122000D01*
X164370000Y-104906000D02*
X164370000Y-105960000D01*
X164370000Y-108040000D02*
X164370000Y-109094000D01*
X164410000Y-104935000D02*
X164410000Y-105960000D01*
X164410000Y-108040000D02*
X164410000Y-109065000D01*
X164450000Y-104965000D02*
X164450000Y-105960000D01*
X164450000Y-108040000D02*
X164450000Y-109035000D01*
X164490000Y-104997000D02*
X164490000Y-105960000D01*
X164490000Y-108040000D02*
X164490000Y-109003000D01*
X164530000Y-105030000D02*
X164530000Y-105960000D01*
X164530000Y-108040000D02*
X164530000Y-108970000D01*
X164570000Y-105064000D02*
X164570000Y-105960000D01*
X164570000Y-108040000D02*
X164570000Y-108936000D01*
X164610000Y-105099000D02*
X164610000Y-105960000D01*
X164610000Y-108040000D02*
X164610000Y-108901000D01*
X164650000Y-105136000D02*
X164650000Y-105960000D01*
X164650000Y-108040000D02*
X164650000Y-108864000D01*
X164690000Y-105175000D02*
X164690000Y-105960000D01*
X164690000Y-108040000D02*
X164690000Y-108825000D01*
X164730000Y-105215000D02*
X164730000Y-105960000D01*
X164730000Y-108040000D02*
X164730000Y-108785000D01*
X164770000Y-105257000D02*
X164770000Y-105960000D01*
X164770000Y-108040000D02*
X164770000Y-108743000D01*
X164810000Y-105301000D02*
X164810000Y-105960000D01*
X164810000Y-108040000D02*
X164810000Y-108699000D01*
X164850000Y-105348000D02*
X164850000Y-105960000D01*
X164850000Y-108040000D02*
X164850000Y-108652000D01*
X164890000Y-105396000D02*
X164890000Y-108604000D01*
X164930000Y-105447000D02*
X164930000Y-108553000D01*
X164970000Y-105501000D02*
X164970000Y-108499000D01*
X165010000Y-105557000D02*
X165010000Y-108443000D01*
X165050000Y-105617000D02*
X165050000Y-108383000D01*
X165090000Y-105681000D02*
X165090000Y-108319000D01*
X165130000Y-105749000D02*
X165130000Y-108251000D01*
X165170000Y-105823000D02*
X165170000Y-108177000D01*
X165210000Y-105902000D02*
X165210000Y-108098000D01*
X165250000Y-105989000D02*
X165250000Y-108011000D01*
X165290000Y-106086000D02*
X165290000Y-107914000D01*
X165330000Y-106195000D02*
X165330000Y-107805000D01*
X165370000Y-106323000D02*
X165370000Y-107677000D01*
X165410000Y-106483000D02*
X165410000Y-107517000D01*
X165450000Y-106717000D02*
X165450000Y-107283000D01*
X165470000Y-107000000D02*
G75*
G02*
X160230000Y-107000000I-2620000J0D01*
G01*
X160230000Y-107000000D02*
G75*
G02*
X165470000Y-107000000I2620000J0D01*
G01*
%TO.C,SW2*%
D10*
X185950000Y-67050000D02*
X188800000Y-67050000D01*
X185950000Y-71125000D02*
X185950000Y-67050000D01*
X185950000Y-80950000D02*
X185950000Y-76875000D01*
X185950000Y-80950000D02*
X188800000Y-80950000D01*
X191100000Y-67050000D02*
X193800000Y-67050000D01*
X191100000Y-80950000D02*
X191300000Y-80950000D01*
X193600000Y-80950000D02*
X193800000Y-80950000D01*
X196100000Y-67050000D02*
X198950000Y-67050000D01*
X196100000Y-80950000D02*
X198950000Y-80950000D01*
X198950000Y-71125000D02*
X198950000Y-67050000D01*
X198950000Y-80950000D02*
X198950000Y-76875000D01*
D13*
X187975000Y-81700000D02*
G75*
G02*
X187725000Y-81700000I-125000J0D01*
G01*
X187725000Y-81700000D02*
G75*
G02*
X187975000Y-81700000I125000J0D01*
G01*
%TO.C,C1*%
D11*
X179100000Y-104625000D02*
X179100000Y-105625000D01*
X179100000Y-104625000D02*
X184600000Y-104625000D01*
X179100000Y-108625000D02*
X179100000Y-107625000D01*
X184600000Y-104625000D02*
X184600000Y-105625000D01*
X184600000Y-108625000D02*
X179100000Y-108625000D01*
X184600000Y-108625000D02*
X184600000Y-107625000D01*
X155600000Y-75000000D02*
X155600000Y-76000000D01*
X155600000Y-75000000D02*
X161100000Y-75000000D01*
X155600000Y-79000000D02*
X155600000Y-78000000D01*
X161100000Y-75000000D02*
X161100000Y-76000000D01*
X161100000Y-79000000D02*
X155600000Y-79000000D01*
X161100000Y-79000000D02*
X161100000Y-78000000D01*
%TO.C,R5*%
D12*
X180480000Y-80730000D02*
X180480000Y-87270000D01*
X180480000Y-87270000D02*
X180810000Y-87270000D01*
X180810000Y-80730000D02*
X180480000Y-80730000D01*
X182890000Y-80730000D02*
X183220000Y-80730000D01*
X183220000Y-80730000D02*
X183220000Y-87270000D01*
X183220000Y-87270000D02*
X182890000Y-87270000D01*
%TO.C,U2*%
D14*
X146960000Y-97271800D02*
X146960000Y-109286000D01*
X146960000Y-109286000D02*
X157272400Y-109286000D01*
X157272400Y-97271800D02*
X146960000Y-97271800D01*
X157272400Y-109286000D02*
X157272400Y-97271800D01*
%TO.C,R11*%
D12*
X117930000Y-68620000D02*
X118260000Y-68620000D01*
X117930000Y-75160000D02*
X117930000Y-68620000D01*
X118260000Y-75160000D02*
X117930000Y-75160000D01*
X120340000Y-75160000D02*
X120670000Y-75160000D01*
X120670000Y-68620000D02*
X120340000Y-68620000D01*
X120670000Y-75160000D02*
X120670000Y-68620000D01*
%TO.C,C13*%
X118705000Y-55655000D02*
X121945000Y-55655000D01*
X118705000Y-63095000D02*
X118705000Y-55655000D01*
X121945000Y-55655000D02*
X121945000Y-63095000D01*
X121945000Y-63095000D02*
X118705000Y-63095000D01*
%TO.C,SW3*%
D10*
X164350000Y-85940000D02*
X167200000Y-85940000D01*
X164350000Y-90015000D02*
X164350000Y-85940000D01*
X164350000Y-99840000D02*
X164350000Y-95765000D01*
X164350000Y-99840000D02*
X167200000Y-99840000D01*
X169500000Y-85940000D02*
X172200000Y-85940000D01*
X169500000Y-99840000D02*
X169700000Y-99840000D01*
X172000000Y-99840000D02*
X172200000Y-99840000D01*
X174500000Y-85940000D02*
X177350000Y-85940000D01*
X174500000Y-99840000D02*
X177350000Y-99840000D01*
X177350000Y-90015000D02*
X177350000Y-85940000D01*
X177350000Y-99840000D02*
X177350000Y-95765000D01*
D13*
X166375000Y-100590000D02*
G75*
G02*
X166125000Y-100590000I-125000J0D01*
G01*
X166125000Y-100590000D02*
G75*
G02*
X166375000Y-100590000I125000J0D01*
G01*
%TD*%
M02*
