%TF.GenerationSoftware,KiCad,Pcbnew,10.0.6*%
%TF.CreationDate,2026-09-02T19:19:22-05:00*%
%TF.ProjectId,DaisyMultiFX,44616973-794d-4756-9c74-6946582e6b69,rev?*%
%TF.SameCoordinates,Original*%
%TF.FileFunction,Copper,L3,Inr*%
%TF.FilePolarity,Positive*%
%FSLAX46Y46*%
G04 Gerber Fmt 4.6, Leading zero omitted, Abs format (unit mm)*
G04 Created by KiCad (PCBNEW 10.0.6) date 2026-09-02 19:19:22*
%MOMM*%
%LPD*%
G01*
G04 APERTURE LIST*
G04 Aperture macros list*
%AMRoundRect*
0 Rectangle with rounded corners*
0 $1 Rounding radius*
0 $2 $3 $4 $5 $6 $7 $8 $9 X,Y pos of 4 corners*
0 Add a 4 corners polygon primitive as box body*
4,1,4,$2,$3,$4,$5,$6,$7,$8,$9,$2,$3,0*
0 Add four circle primitives for the rounded corners*
1,1,$1+$1,$2,$3*
1,1,$1+$1,$4,$5*
1,1,$1+$1,$6,$7*
1,1,$1+$1,$8,$9*
0 Add four rect primitives between the rounded corners*
20,1,$1+$1,$2,$3,$4,$5,0*
20,1,$1+$1,$4,$5,$6,$7,0*
20,1,$1+$1,$6,$7,$8,$9,0*
20,1,$1+$1,$8,$9,$2,$3,0*%
G04 Aperture macros list end*
%TA.AperFunction,ComponentPad*%
%ADD10C,1.600000*%
%TD*%
%TA.AperFunction,ComponentPad*%
%ADD11RoundRect,0.250000X-0.625000X0.350000X-0.625000X-0.350000X0.625000X-0.350000X0.625000X0.350000X0*%
%TD*%
%TA.AperFunction,ComponentPad*%
%ADD12O,1.750000X1.200000*%
%TD*%
%TA.AperFunction,ComponentPad*%
%ADD13R,1.500000X1.500000*%
%TD*%
%TA.AperFunction,ComponentPad*%
%ADD14C,1.500000*%
%TD*%
%TA.AperFunction,ComponentPad*%
%ADD15RoundRect,0.250000X0.550000X-0.550000X0.550000X0.550000X-0.550000X0.550000X-0.550000X-0.550000X0*%
%TD*%
%TA.AperFunction,ComponentPad*%
%ADD16RoundRect,1.200000X-0.000010X-1.300000X0.000010X-1.300000X0.000010X1.300000X-0.000010X1.300000X0*%
%TD*%
%TA.AperFunction,ComponentPad*%
%ADD17R,1.550000X1.550000*%
%TD*%
%TA.AperFunction,ComponentPad*%
%ADD18C,1.550000*%
%TD*%
%TA.AperFunction,ComponentPad*%
%ADD19RoundRect,0.250000X0.350000X0.625000X-0.350000X0.625000X-0.350000X-0.625000X0.350000X-0.625000X0*%
%TD*%
%TA.AperFunction,ComponentPad*%
%ADD20O,1.200000X1.750000*%
%TD*%
%TA.AperFunction,ComponentPad*%
%ADD21RoundRect,0.250000X0.625000X-0.350000X0.625000X0.350000X-0.625000X0.350000X-0.625000X-0.350000X0*%
%TD*%
%TA.AperFunction,ComponentPad*%
%ADD22R,2.000000X2.000000*%
%TD*%
%TA.AperFunction,ComponentPad*%
%ADD23C,2.000000*%
%TD*%
%TA.AperFunction,ComponentPad*%
%ADD24RoundRect,0.250000X-0.550000X0.550000X-0.550000X-0.550000X0.550000X-0.550000X0.550000X0.550000X0*%
%TD*%
%TA.AperFunction,ComponentPad*%
%ADD25RoundRect,0.250000X-0.350000X-0.625000X0.350000X-0.625000X0.350000X0.625000X-0.350000X0.625000X0*%
%TD*%
%TA.AperFunction,ComponentPad*%
%ADD26RoundRect,0.249999X-0.850001X-0.850001X0.850001X-0.850001X0.850001X0.850001X-0.850001X0.850001X0*%
%TD*%
%TA.AperFunction,ComponentPad*%
%ADD27C,2.200000*%
%TD*%
%TA.AperFunction,ComponentPad*%
%ADD28R,1.700000X1.700000*%
%TD*%
%TA.AperFunction,ComponentPad*%
%ADD29C,1.700000*%
%TD*%
%TA.AperFunction,ComponentPad*%
%ADD30RoundRect,0.250000X-0.550000X-0.550000X0.550000X-0.550000X0.550000X0.550000X-0.550000X0.550000X0*%
%TD*%
%TA.AperFunction,ComponentPad*%
%ADD31C,1.651000*%
%TD*%
%TA.AperFunction,ViaPad*%
%ADD32C,0.700000*%
%TD*%
%TA.AperFunction,Conductor*%
%ADD33C,0.500000*%
%TD*%
%TA.AperFunction,Conductor*%
%ADD34C,0.250000*%
%TD*%
%TA.AperFunction,Conductor*%
%ADD35C,0.300000*%
%TD*%
%TA.AperFunction,Conductor*%
%ADD36C,0.800000*%
%TD*%
G04 APERTURE END LIST*
D10*
%TO.N,+5V_ISOLATED_POWER*%
%TO.C,R7*%
X118400000Y-88135000D03*
%TO.N,Net-(U4B-+)*%
X118400000Y-80515000D03*
%TD*%
%TO.N,+5V_ISOLATED_POWER*%
%TO.C,C7*%
X156850000Y-56500000D03*
%TO.N,GND*%
X156850000Y-61500000D03*
%TD*%
%TO.N,AUDIO_IN_JACK_RIGHT*%
%TO.C,R2*%
X188675000Y-56190000D03*
%TO.N,GND*%
X188675000Y-63810000D03*
%TD*%
D11*
%TO.N,+3.3V*%
%TO.C,J_LCD1*%
X116850000Y-116000000D03*
D12*
%TO.N,GND*%
X116850000Y-118000000D03*
%TO.N,LCD_MOSI*%
X116850000Y-120000000D03*
%TO.N,LCD_SCK*%
X116850000Y-122000000D03*
%TO.N,LCD_CS*%
X116850000Y-124000000D03*
%TO.N,LCD_DC*%
X116850000Y-126000000D03*
%TO.N,LCD_RST*%
X116850000Y-128000000D03*
%TO.N,LCD_BL*%
X116850000Y-130000000D03*
%TD*%
D13*
%TO.N,Net-(U4A-+)*%
%TO.C,C12*%
X112625000Y-87225000D03*
D14*
%TO.N,AUDIO_OUT_BUFFER_RIGHT*%
X112625000Y-82225000D03*
%TD*%
D13*
%TO.N,Net-(C16-Pad1)*%
%TO.C,C16*%
X140195000Y-96540000D03*
D14*
%TO.N,AUDIO_OUT_JACK_RIGHT*%
X140195000Y-91540000D03*
%TD*%
D10*
%TO.N,Net-(U4B-+)*%
%TO.C,R8*%
X122450000Y-88135000D03*
%TO.N,GND*%
X122450000Y-80515000D03*
%TD*%
%TO.N,Net-(U3B-+)*%
%TO.C,R6*%
X181850000Y-69000000D03*
%TO.N,GND*%
X181850000Y-76620000D03*
%TD*%
%TO.N,+5V_ISOLATED_POWER*%
%TO.C,R9*%
X114850000Y-108810000D03*
%TO.N,Net-(U4A-+)*%
X114850000Y-101190000D03*
%TD*%
D13*
%TO.N,+5V*%
%TO.C,U1*%
X144420000Y-84650000D03*
D14*
%TO.N,GND*%
X146960000Y-84650000D03*
%TO.N,+9V*%
X149500000Y-84650000D03*
%TD*%
D10*
%TO.N,+9V*%
%TO.C,C2*%
X145950000Y-59775000D03*
%TO.N,GND*%
X150950000Y-59775000D03*
%TD*%
D13*
%TO.N,AUDIO_IN_JACK_LEFT*%
%TO.C,C9*%
X199975000Y-104000000D03*
D14*
%TO.N,Net-(U3D-+)*%
X199975000Y-109000000D03*
%TD*%
D10*
%TO.N,+5V_ISOLATED_POWER*%
%TO.C,R3*%
X184400000Y-57000000D03*
%TO.N,Net-(U3B-+)*%
X184400000Y-64620000D03*
%TD*%
D15*
%TO.N,Net-(U4A--)*%
%TO.C,U4*%
X128040000Y-84000000D03*
D10*
X130580000Y-84000000D03*
%TO.N,Net-(U4A-+)*%
X133120000Y-84000000D03*
%TO.N,GND*%
X135660000Y-84000000D03*
%TO.N,Net-(U4B-+)*%
X135660000Y-76380000D03*
%TO.N,Net-(U4B--)*%
X133120000Y-76380000D03*
X130580000Y-76380000D03*
%TO.N,+5V_ISOLATED_POWER*%
X128040000Y-76380000D03*
%TD*%
D16*
%TO.N,*%
%TO.C,SW4*%
X186750000Y-92890000D03*
X198150000Y-92890000D03*
D17*
%TO.N,ENC_4_A*%
X189950000Y-100390000D03*
D18*
%TO.N,ENC_4_B*%
X194950000Y-100390000D03*
%TO.N,GND*%
X192450000Y-100390000D03*
%TD*%
D10*
%TO.N,/InputBuffer/V_AUDIOBIAS*%
%TO.C,R4*%
X181850000Y-91190000D03*
%TO.N,Net-(U3D-+)*%
X181850000Y-98810000D03*
%TD*%
%TO.N,AUDIO_OUT_JACK_RIGHT*%
%TO.C,R14*%
X132195000Y-96415000D03*
%TO.N,GND*%
X132195000Y-88795000D03*
%TD*%
D13*
%TO.N,Net-(C15-Pad1)*%
%TO.C,C15*%
X121850000Y-97500000D03*
D14*
%TO.N,AUDIO_OUT_JACK_LEFT*%
X121850000Y-92500000D03*
%TD*%
D10*
%TO.N,AUDIO_IN_JACK_LEFT*%
%TO.C,R1*%
X192800000Y-56000000D03*
%TO.N,GND*%
X192800000Y-63620000D03*
%TD*%
D11*
%TO.N,AUDIO_IN_JACK_LEFT*%
%TO.C,J4*%
X200575000Y-59000000D03*
D12*
%TO.N,AUDIO_IN_JACK_RIGHT*%
X200575000Y-61000000D03*
%TO.N,GND*%
X200575000Y-63000000D03*
%TD*%
D13*
%TO.N,Net-(U4B-+)*%
%TO.C,C11*%
X112850000Y-78825000D03*
D14*
%TO.N,AUDIO_OUT_BUFFER_LEFT*%
X112850000Y-73825000D03*
%TD*%
D16*
%TO.N,*%
%TO.C,SW7*%
X122120000Y-122000000D03*
X133520000Y-122000000D03*
D18*
%TO.N,ENC_MASTER_SW*%
X130320000Y-115000000D03*
%TO.N,GND*%
X125320000Y-115000000D03*
D17*
%TO.N,ENC_MASTER_A*%
X130320000Y-129500000D03*
D18*
%TO.N,ENC_MASTER_B*%
X125320000Y-129500000D03*
%TO.N,GND*%
X127820000Y-129500000D03*
%TD*%
D13*
%TO.N,/Power/VIN*%
%TO.C,C5*%
X137350000Y-70000000D03*
D14*
%TO.N,GND*%
X142350000Y-70000000D03*
%TD*%
D16*
%TO.N,*%
%TO.C,SW1*%
X165150000Y-74000000D03*
X176550000Y-74000000D03*
D17*
%TO.N,ENC_1_A*%
X168350000Y-81500000D03*
D18*
%TO.N,ENC_1_B*%
X173350000Y-81500000D03*
%TO.N,GND*%
X170850000Y-81500000D03*
%TD*%
D19*
%TO.N,GND*%
%TO.C,FS3*%
X198850000Y-130000000D03*
D20*
%TO.N,FOOT_SWITCH_3*%
X196850000Y-130000000D03*
%TD*%
D21*
%TO.N,AUDIO_OUT_JACK_LEFT*%
%TO.C,J5*%
X111850000Y-68000000D03*
D12*
%TO.N,AUDIO_OUT_JACK_RIGHT*%
X111850000Y-66000000D03*
%TO.N,GND*%
X111850000Y-64000000D03*
%TD*%
D22*
%TO.N,+5V*%
%TO.C,L1*%
X155350000Y-86000000D03*
D23*
%TO.N,/Power/VIN*%
X160350000Y-86000000D03*
%TD*%
D10*
%TO.N,AUDIO_OUT_JACK_LEFT*%
%TO.C,R13*%
X128145000Y-96415000D03*
%TO.N,GND*%
X128145000Y-88795000D03*
%TD*%
D24*
%TO.N,AUDIO_IN_BUFFER_RIGHT*%
%TO.C,U3*%
X179010000Y-55000000D03*
D10*
X176470000Y-55000000D03*
%TO.N,Net-(U3A-+)*%
X173930000Y-55000000D03*
%TO.N,+5V_ISOLATED_POWER*%
X171390000Y-55000000D03*
%TO.N,Net-(U3B-+)*%
X168850000Y-55000000D03*
%TO.N,/InputBuffer/V_AUDIOBIAS*%
X166310000Y-55000000D03*
X163770000Y-55000000D03*
%TO.N,Net-(U3C--)*%
X163770000Y-62620000D03*
X166310000Y-62620000D03*
%TO.N,GND*%
X168850000Y-62620000D03*
X171390000Y-62620000D03*
%TO.N,Net-(U3D-+)*%
X173930000Y-62620000D03*
%TO.N,AUDIO_IN_BUFFER_LEFT*%
X176470000Y-62620000D03*
X179010000Y-62620000D03*
%TD*%
%TO.N,+5V_ISOLATED_POWER*%
%TO.C,C14*%
X129700000Y-72395000D03*
%TO.N,GND*%
X129700000Y-67395000D03*
%TD*%
D25*
%TO.N,POWER_JACK_PWR*%
%TO.C,J1*%
X134850000Y-55000000D03*
D20*
%TO.N,GND*%
X136850000Y-55000000D03*
X138850000Y-55000000D03*
%TD*%
D10*
%TO.N,+5V_ISOLATED_POWER*%
%TO.C,C8*%
X160850000Y-67020000D03*
%TO.N,GND*%
X160850000Y-72020000D03*
%TD*%
D26*
%TO.N,+9V*%
%TO.C,D1*%
X130920000Y-63000000D03*
D27*
%TO.N,POWER_JACK_PWR*%
X141080000Y-63000000D03*
%TD*%
D25*
%TO.N,GND*%
%TO.C,FS2*%
X139850000Y-105000000D03*
D20*
%TO.N,FOOT_SWITCH_2*%
X141850000Y-105000000D03*
%TD*%
D13*
%TO.N,+5V*%
%TO.C,C4*%
X146350000Y-74000000D03*
D14*
%TO.N,GND*%
X151350000Y-74000000D03*
%TD*%
D10*
%TO.N,Net-(U4A-+)*%
%TO.C,R10*%
X114375000Y-98075000D03*
%TO.N,GND*%
X114375000Y-90455000D03*
%TD*%
D13*
%TO.N,AUDIO_IN_JACK_RIGHT*%
%TO.C,C10*%
X192850000Y-104000000D03*
D14*
%TO.N,Net-(U3A-+)*%
X192850000Y-109000000D03*
%TD*%
D10*
%TO.N,+9V*%
%TO.C,C3*%
X146225000Y-54200000D03*
%TO.N,GND*%
X151225000Y-54200000D03*
%TD*%
D28*
%TO.N,ENC_1_A*%
%TO.C,A1*%
X189355000Y-113380000D03*
D29*
%TO.N,ENC_1_B*%
X186815000Y-113380000D03*
%TO.N,ENC_2_A*%
X184275000Y-113380000D03*
%TO.N,ENC_2_B*%
X181735000Y-113380000D03*
%TO.N,ENC_3_A*%
X179195000Y-113380000D03*
%TO.N,ENC_3_B*%
X176655000Y-113380000D03*
%TO.N,ENC_MASTER_SW*%
X174115000Y-113380000D03*
%TO.N,LCD_CS*%
X171575000Y-113380000D03*
%TO.N,LCD_SCK*%
X169035000Y-113380000D03*
%TO.N,unconnected-(A1-SPI1_POCI-Pad10)*%
X166495000Y-113380000D03*
%TO.N,LCD_MOSI*%
X163955000Y-113380000D03*
%TO.N,ENC_4_A*%
X161415000Y-113380000D03*
%TO.N,ENC_4_B*%
X158875000Y-113380000D03*
%TO.N,ENC_MASTER_A*%
X156335000Y-113380000D03*
%TO.N,ENC_MASTER_B*%
X153795000Y-113380000D03*
%TO.N,AUDIO_IN_BUFFER_LEFT*%
X151255000Y-113380000D03*
%TO.N,AUDIO_IN_BUFFER_RIGHT*%
X148715000Y-113380000D03*
%TO.N,AUDIO_OUT_BUFFER_LEFT*%
X146175000Y-113380000D03*
%TO.N,AUDIO_OUT_BUFFER_RIGHT*%
X143635000Y-113380000D03*
%TO.N,GND*%
X141095000Y-113380000D03*
%TO.N,+3.3VA*%
X141095000Y-128620000D03*
%TO.N,unconnected-(A1-ADC_0-Pad22)*%
X143635000Y-128620000D03*
%TO.N,unconnected-(A1-ADC_1-Pad23)*%
X146175000Y-128620000D03*
%TO.N,FOOT_SWITCH_1*%
X148715000Y-128620000D03*
%TO.N,FOOT_SWITCH_2*%
X151255000Y-128620000D03*
%TO.N,FOOT_SWITCH_3*%
X153795000Y-128620000D03*
%TO.N,unconnected-(A1-ADC_5-Pad27)*%
X156335000Y-128620000D03*
%TO.N,unconnected-(A1-ADC_6-Pad28)*%
X158875000Y-128620000D03*
%TO.N,unconnected-(A1-DAC_OUT2-Pad29)*%
X161415000Y-128620000D03*
%TO.N,unconnected-(A1-DAC_OUT1-Pad30)*%
X163955000Y-128620000D03*
%TO.N,unconnected-(A1-SAI2_MCLK-Pad31)*%
X166495000Y-128620000D03*
%TO.N,unconnected-(A1-SAI2_SD_B-Pad32)*%
X169035000Y-128620000D03*
%TO.N,LCD_DC*%
X171575000Y-128620000D03*
%TO.N,LCD_RST*%
X174115000Y-128620000D03*
%TO.N,unconnected-(A1-SAI2_SCK-Pad35)*%
X176655000Y-128620000D03*
%TO.N,LCD_BL*%
X179195000Y-128620000D03*
%TO.N,unconnected-(A1-USB_D_+-Pad37)*%
X181735000Y-128620000D03*
%TO.N,+3.3V*%
X184275000Y-128620000D03*
%TO.N,+9V*%
X186815000Y-128620000D03*
%TO.N,GND*%
X189355000Y-128620000D03*
%TD*%
D19*
%TO.N,GND*%
%TO.C,FS1*%
X130850000Y-106000000D03*
D20*
%TO.N,FOOT_SWITCH_1*%
X128850000Y-106000000D03*
%TD*%
D10*
%TO.N,Net-(U4A--)*%
%TO.C,R12*%
X123350000Y-75700000D03*
%TO.N,Net-(C16-Pad1)*%
X123350000Y-68080000D03*
%TD*%
D30*
%TO.N,+5V_ISOLATED_POWER*%
%TO.C,C6*%
X161850000Y-107000000D03*
D10*
%TO.N,GND*%
X163850000Y-107000000D03*
%TD*%
D16*
%TO.N,*%
%TO.C,SW2*%
X186750000Y-74000000D03*
X198150000Y-74000000D03*
D17*
%TO.N,ENC_2_A*%
X189950000Y-81500000D03*
D18*
%TO.N,ENC_2_B*%
X194950000Y-81500000D03*
%TO.N,GND*%
X192450000Y-81500000D03*
%TD*%
D13*
%TO.N,+9V*%
%TO.C,C1*%
X179350000Y-106625000D03*
D14*
%TO.N,GND*%
X184350000Y-106625000D03*
%TD*%
D13*
%TO.N,+9V*%
%TO.C,C1*%
X155850000Y-77000000D03*
D14*
%TO.N,GND*%
X160850000Y-77000000D03*
%TD*%
D10*
%TO.N,/InputBuffer/V_AUDIOBIAS*%
%TO.C,R5*%
X181850000Y-80190000D03*
%TO.N,Net-(U3A-+)*%
X181850000Y-87810000D03*
%TD*%
D31*
%TO.N,GND*%
%TO.C,U2*%
X148230000Y-99380000D03*
%TO.N,/Power/VIN*%
X148230000Y-107000000D03*
%TO.N,+5V_ISOLATED_POWER*%
X155850000Y-107000000D03*
%TO.N,GND*%
X155850000Y-101920000D03*
%TD*%
D10*
%TO.N,Net-(U4B--)*%
%TO.C,R11*%
X119300000Y-75700000D03*
%TO.N,Net-(C15-Pad1)*%
X119300000Y-68080000D03*
%TD*%
%TO.N,+5V_ISOLATED_POWER*%
%TO.C,C13*%
X120325000Y-61875000D03*
%TO.N,GND*%
X120325000Y-56875000D03*
%TD*%
D16*
%TO.N,*%
%TO.C,SW3*%
X165150000Y-92890000D03*
X176550000Y-92890000D03*
D17*
%TO.N,ENC_3_A*%
X168350000Y-100390000D03*
D18*
%TO.N,ENC_3_B*%
X173350000Y-100390000D03*
%TO.N,GND*%
X170850000Y-100390000D03*
%TD*%
D32*
%TO.N,+5V_ISOLATED_POWER*%
X162000000Y-100000000D03*
%TO.N,LCD_MOSI*%
X135000000Y-117000000D03*
%TO.N,LCD_SCK*%
X148000000Y-118000000D03*
X127000000Y-120770000D03*
%TO.N,LCD_CS*%
X149000000Y-123000000D03*
%TO.N,+5V*%
X159000000Y-96000000D03*
X151000000Y-91000000D03*
%TO.N,ENC_4_A*%
X184000000Y-104000000D03*
X173000000Y-104000000D03*
X188000000Y-102000000D03*
%TO.N,ENC_4_B*%
X178000000Y-103000000D03*
X165000000Y-111000000D03*
X186000000Y-101000000D03*
X184000000Y-102000000D03*
%TO.N,ENC_MASTER_A*%
X153000000Y-117000000D03*
%TO.N,ENC_2_A*%
X188850000Y-87600000D03*
%TD*%
%TO.N,+5V_ISOLATED_POWER*%
D33*
X129700000Y-74720000D02*
X128040000Y-76380000D01*
X155850000Y-107000000D02*
X161850000Y-107000000D01*
X129700000Y-72395000D02*
X129700000Y-74720000D01*
%TO.N,Net-(U4B-+)*%
D34*
X122450000Y-84565000D02*
X118400000Y-80515000D01*
X122450000Y-88135000D02*
X122450000Y-84565000D01*
%TO.N,+3.3V*%
D33*
X146868629Y-118000000D02*
X147668629Y-118800000D01*
X122000000Y-116000000D02*
X124000000Y-118000000D01*
X124000000Y-118000000D02*
X146868629Y-118000000D01*
X174455000Y-118800000D02*
X184275000Y-128620000D01*
X147668629Y-118800000D02*
X174455000Y-118800000D01*
X116850000Y-116000000D02*
X122000000Y-116000000D01*
%TO.N,LCD_MOSI*%
D34*
X161010000Y-116325000D02*
X163955000Y-113380000D01*
X135675000Y-116325000D02*
X161010000Y-116325000D01*
X135000000Y-117000000D02*
X135675000Y-116325000D01*
%TO.N,LCD_SCK*%
X164415000Y-118000000D02*
X148000000Y-118000000D01*
X127000000Y-120770000D02*
X125405000Y-119175000D01*
X169035000Y-113380000D02*
X164415000Y-118000000D01*
X119675000Y-119175000D02*
X116850000Y-122000000D01*
X125405000Y-119175000D02*
X119675000Y-119175000D01*
%TO.N,LCD_CS*%
X117675000Y-124825000D02*
X116850000Y-124000000D01*
X149000000Y-123000000D02*
X147175000Y-124825000D01*
X147175000Y-124825000D02*
X117675000Y-124825000D01*
%TO.N,LCD_DC*%
X168955000Y-126000000D02*
X171575000Y-128620000D01*
X116850000Y-126000000D02*
X168955000Y-126000000D01*
%TO.N,AUDIO_OUT_JACK_RIGHT*%
D35*
X111850000Y-66000000D02*
X123600000Y-77750000D01*
X123600000Y-77750000D02*
X123600000Y-87820000D01*
X123600000Y-87820000D02*
X132195000Y-96415000D01*
%TO.N,Net-(U3B-+)*%
D34*
X184400000Y-65660000D02*
X179625000Y-60885000D01*
X181850000Y-69000000D02*
X184400000Y-66450000D01*
X174735000Y-60885000D02*
X168850000Y-55000000D01*
X184400000Y-66450000D02*
X184400000Y-65660000D01*
X179625000Y-60885000D02*
X174735000Y-60885000D01*
%TO.N,+5V*%
D33*
X146350000Y-74000000D02*
X146000000Y-74000000D01*
X144420000Y-75580000D02*
X144420000Y-84650000D01*
X159000000Y-96000000D02*
X156000000Y-96000000D01*
X156000000Y-96000000D02*
X151000000Y-91000000D01*
X146000000Y-74000000D02*
X144420000Y-75580000D01*
%TO.N,+9V*%
D36*
X149500000Y-84650000D02*
X155850000Y-78300000D01*
X192000000Y-123435000D02*
X192000000Y-111000000D01*
X155850000Y-69675000D02*
X145950000Y-59775000D01*
X155850000Y-78300000D02*
X155850000Y-77000000D01*
X155850000Y-77000000D02*
X155850000Y-69675000D01*
X171475000Y-106625000D02*
X149500000Y-84650000D01*
X145950000Y-59775000D02*
X145950000Y-54475000D01*
X145950000Y-54475000D02*
X146225000Y-54200000D01*
X134145000Y-59775000D02*
X130920000Y-63000000D01*
X192000000Y-111000000D02*
X183725000Y-111000000D01*
X179350000Y-106625000D02*
X171475000Y-106625000D01*
X183725000Y-111000000D02*
X179350000Y-106625000D01*
X186815000Y-128620000D02*
X192000000Y-123435000D01*
X145950000Y-59775000D02*
X134145000Y-59775000D01*
%TO.N,Net-(U3D-+)*%
D34*
X178075000Y-66765000D02*
X178075000Y-95035000D01*
X173930000Y-62620000D02*
X178075000Y-66765000D01*
X178075000Y-95035000D02*
X181850000Y-98810000D01*
%TO.N,ENC_4_A*%
X184000000Y-104000000D02*
X173000000Y-104000000D01*
%TO.N,ENC_4_B*%
X184000000Y-102000000D02*
X179000000Y-102000000D01*
X179000000Y-102000000D02*
X178000000Y-103000000D01*
X193850000Y-99290000D02*
X187710000Y-99290000D01*
X194950000Y-100390000D02*
X193850000Y-99290000D01*
X187710000Y-99290000D02*
X186000000Y-101000000D01*
%TO.N,AUDIO_OUT_JACK_LEFT*%
D35*
X111850000Y-68000000D02*
X114000000Y-70150000D01*
X121850000Y-89958654D02*
X121850000Y-92500000D01*
X114000000Y-70150000D02*
X114000000Y-82108654D01*
X114000000Y-82108654D02*
X121850000Y-89958654D01*
%TO.N,Net-(U3A-+)*%
D34*
X192850000Y-109000000D02*
X182975000Y-99125000D01*
X182975000Y-99125000D02*
X182975000Y-88935000D01*
X182975000Y-88935000D02*
X181850000Y-87810000D01*
%TO.N,Net-(U3C--)*%
X163770000Y-62620000D02*
X166310000Y-62620000D01*
%TO.N,ENC_2_A*%
X189950000Y-81500000D02*
X189950000Y-86500000D01*
X189950000Y-86500000D02*
X188850000Y-87600000D01*
%TD*%
M02*
